<?xml version="1.0" encoding="utf-8"?>
<!-- Generator: Adobe Illustrator 24.0.1, SVG Export Plug-In . SVG Version: 6.00 Build 0)  -->
<svg version="1.1" id="v1" xmlns="http://www.w3.org/2000/svg" xmlns:xlink="http://www.w3.org/1999/xlink" x="0px" y="0px"
	 viewBox="0 0 474.5 735" style="enable-background:new 0 0 474.5 735;" xml:space="preserve">
<style type="text/css">
	.st0{fill:none;stroke:#969696;stroke-width:0.5;}
	.st1{font-family:'Helvetica';}
	.st2{font-size:12px;}
	.st3{fill:none;stroke:#FFFFFF;stroke-width:4.5;}
	.st4{fill:none;stroke:#E74848;stroke-width:2.5;stroke-opacity:0.4;}
	.st5{fill:none;stroke:#2626F3;stroke-width:2.5;stroke-opacity:0.4;}
	.st6{fill:none;stroke:#D18A8A;stroke-width:2.5;stroke-opacity:0.4;}
	.st7{fill:none;stroke:#FF0000;stroke-width:2.5;stroke-opacity:0.4;}
	.st8{fill:none;stroke:#0000FF;stroke-width:2.5;stroke-opacity:0.4;}
	.st9{fill:none;stroke:#7777D8;stroke-width:2.5;stroke-opacity:0.4;}
	.st10{fill:none;stroke:#0303FE;stroke-width:2.5;stroke-opacity:0.4;}
	.st11{fill:none;stroke:#E55050;stroke-width:2.5;stroke-opacity:0.4;}
	.st12{fill:none;stroke:#EC3939;stroke-width:2.5;stroke-opacity:0.4;}
	.st13{fill:none;stroke:#EC3B3B;stroke-width:2.5;stroke-opacity:0.4;}
	.st14{fill:none;stroke:#FD0606;stroke-width:2.5;stroke-opacity:0.4;}
	.st15{fill:none;stroke:#5959E2;stroke-width:2.5;stroke-opacity:0.4;}
	.st16{fill:none;stroke:#6666DD;stroke-width:2.5;stroke-opacity:0.4;}
	.st17{fill:none;stroke:#8D8DD0;stroke-width:2.5;stroke-opacity:0.4;}
	.st18{fill:none;stroke:#8989D2;stroke-width:2.5;stroke-opacity:0.4;}
	.st19{fill:none;stroke:#1414F9;stroke-width:2.5;stroke-opacity:0.4;}
	.st20{fill:none;stroke:#3838ED;stroke-width:2.5;stroke-opacity:0.4;}
	.st21{fill:none;stroke:#9F9FCA;stroke-width:2.5;stroke-opacity:0.4;}
	.st22{fill:none;stroke:#3636ED;stroke-width:2.5;stroke-opacity:0.4;}
	.st23{fill:none;stroke:#8A8AD1;stroke-width:2.5;stroke-opacity:0.4;}
	.st24{fill:none;stroke:#C9A2A2;stroke-width:2.5;stroke-opacity:0.4;}
	.st25{fill:none;stroke:#CC9999;stroke-width:2.5;stroke-opacity:0.4;}
	.st26{fill:none;stroke:#AEAEC5;stroke-width:2.5;stroke-opacity:0.4;}
	.st27{fill:none;stroke:#F22929;stroke-width:2.5;stroke-opacity:0.4;}
	.st28{fill:none;stroke:#A8A8C7;stroke-width:2.5;stroke-opacity:0.4;}
	.st29{fill:none;stroke:#D67B7B;stroke-width:2.5;stroke-opacity:0.4;}
	.st30{fill:none;stroke:#4747E8;stroke-width:2.5;stroke-opacity:0.4;}
	.st31{fill:none;stroke:#2D2DF0;stroke-width:2.5;stroke-opacity:0.4;}
	.st32{fill:none;stroke:#2A2AF1;stroke-width:2.5;stroke-opacity:0.4;}
	.st33{fill:none;stroke:#2020F5;stroke-width:2.5;stroke-opacity:0.4;}
	.st34{fill:none;stroke:#CF9090;stroke-width:2.5;stroke-opacity:0.4;}
	.st35{fill:none;stroke:#F02F2F;stroke-width:2.5;stroke-opacity:0.4;}
	.st36{fill:none;stroke:#6565DE;stroke-width:2.5;stroke-opacity:0.4;}
	.st37{fill:none;stroke:#8686D3;stroke-width:2.5;stroke-opacity:0.4;}
	.st38{fill:none;stroke:#DB6C6C;stroke-width:2.5;stroke-opacity:0.4;}
	.st39{fill:none;stroke:#AAAAC7;stroke-width:2.5;stroke-opacity:0.4;}
	.st40{fill:none;stroke:#ADADC6;stroke-width:2.5;stroke-opacity:0.4;}
	.st41{fill:none;stroke:#D48181;stroke-width:2.5;stroke-opacity:0.4;}
	.st42{fill:none;stroke:#A2A2C9;stroke-width:2.5;stroke-opacity:0.4;}
	.st43{fill:none;stroke:#E05F5F;stroke-width:2.5;stroke-opacity:0.4;}
	.st44{fill:none;stroke:#2121F4;stroke-width:2.5;stroke-opacity:0.4;}
	.st45{fill:none;stroke:#E25757;stroke-width:2.5;stroke-opacity:0.4;}
	.st46{fill:none;stroke:#9E9ECB;stroke-width:2.5;stroke-opacity:0.4;}
	.st47{fill:none;stroke:#CF9292;stroke-width:2.5;stroke-opacity:0.4;}
	.st48{fill:none;stroke:#9696CD;stroke-width:2.5;stroke-opacity:0.4;}
	.st49{fill:none;stroke:#F51E1E;stroke-width:2.5;stroke-opacity:0.4;}
	.st50{fill:none;stroke:#4D4DE6;stroke-width:2.5;stroke-opacity:0.4;}
	.st51{fill:none;stroke:#CC9B9B;stroke-width:2.5;stroke-opacity:0.4;}
	.st52{fill:none;stroke:#4545E8;stroke-width:2.5;stroke-opacity:0.4;}
	.st53{fill:none;stroke:#5454E3;stroke-width:2.5;stroke-opacity:0.4;}
	.st54{fill:none;stroke:#8383D4;stroke-width:2.5;stroke-opacity:0.4;}
	.st55{fill:none;stroke:#7272D9;stroke-width:2.5;stroke-opacity:0.4;}
	.st56{fill:none;stroke:#2929F2;stroke-width:2.5;stroke-opacity:0.4;}
	.st57{fill:none;stroke:#7171DA;stroke-width:2.5;stroke-opacity:0.4;}
	.st58{fill:none;stroke:#1E1EF5;stroke-width:2.5;stroke-opacity:0.4;}
	.st59{fill:none;stroke:#6E6EDB;stroke-width:2.5;stroke-opacity:0.4;}
	.st60{fill:none;stroke:#C8A7A7;stroke-width:2.5;stroke-opacity:0.4;}
	.st61{fill:none;stroke:#5D5DE0;stroke-width:2.5;stroke-opacity:0.4;}
	.st62{fill:none;stroke:#6F6FDA;stroke-width:2.5;stroke-opacity:0.4;}
	.st63{fill:none;stroke:#D28989;stroke-width:2.5;stroke-opacity:0.4;}
	.st64{fill:none;stroke:#C8A5A5;stroke-width:2.5;stroke-opacity:0.4;}
	.st65{fill:none;stroke:#B3B3C4;stroke-width:2.5;stroke-opacity:0.4;}
	.st66{fill:none;stroke:#C4B1B1;stroke-width:2.5;stroke-opacity:0.4;}
	.st67{fill:none;stroke:#E35656;stroke-width:2.5;stroke-opacity:0.4;}
	.st68{fill:none;stroke:#DE6363;stroke-width:2.5;stroke-opacity:0.4;}
	.st69{fill:none;stroke:#EA3F3F;stroke-width:2.5;stroke-opacity:0.4;}
	.st70{fill:none;stroke:#7878D7;stroke-width:2.5;stroke-opacity:0.4;}
	.st71{fill:none;stroke:#D97474;stroke-width:2.5;stroke-opacity:0.4;}
	.st72{fill:none;stroke:#D97272;stroke-width:2.5;stroke-opacity:0.4;}
	.st73{fill:none;stroke:#E54E4E;stroke-width:2.5;stroke-opacity:0.4;}
	.st74{fill:none;stroke:#FF0202;stroke-width:2.5;stroke-opacity:0.4;}
	.st75{fill:none;stroke:#F02D2D;stroke-width:2.5;stroke-opacity:0.4;}
	.st76{fill:none;stroke:#FC0B0B;stroke-width:2.5;stroke-opacity:0.4;}
	.st77{fill:none;stroke:#D18C8C;stroke-width:2.5;stroke-opacity:0.4;}
	.st78{fill:none;stroke:#9999CC;stroke-width:2.5;stroke-opacity:0.4;}
	.st79{fill:none;stroke:#6868DD;stroke-width:2.5;stroke-opacity:0.4;}
	.st80{fill:none;stroke:#4B4BE6;stroke-width:2.5;stroke-opacity:0.4;}
	.st81{fill:none;stroke:#DA6F6F;stroke-width:2.5;stroke-opacity:0.4;}
	.st82{fill:none;stroke:#1515F8;stroke-width:2.5;stroke-opacity:0.4;}
	.st83{fill:none;stroke:#7D7DD6;stroke-width:2.5;stroke-opacity:0.4;}
	.st84{fill:none;stroke:#5050E5;stroke-width:2.5;stroke-opacity:0.4;}
	.st85{fill:none;stroke:#DC6B6B;stroke-width:2.5;stroke-opacity:0.4;}
	.st86{fill:none;stroke:#B0B0C5;stroke-width:2.5;stroke-opacity:0.4;}
	.st87{fill:none;stroke:#D87777;stroke-width:2.5;stroke-opacity:0.4;}
	.st88{fill:none;stroke:#6363DE;stroke-width:2.5;stroke-opacity:0.4;}
	.st89{fill:none;stroke:#CA9F9F;stroke-width:2.5;stroke-opacity:0.4;}
	.st90{fill:none;stroke:#1212F9;stroke-width:2.5;stroke-opacity:0.4;}
	.st91{fill:none;stroke:#9595CE;stroke-width:2.5;stroke-opacity:0.4;}
	.st92{fill:none;stroke:#0202FF;stroke-width:2.5;stroke-opacity:0.4;}
	.st93{fill:none;stroke:#7474D9;stroke-width:2.5;stroke-opacity:0.4;}
	.st94{fill:none;stroke:#E45151;stroke-width:2.5;stroke-opacity:0.4;}
	.st95{fill:none;stroke:#FA0F0F;stroke-width:2.5;stroke-opacity:0.4;}
	.st96{fill:none;stroke:#5F5FE0;stroke-width:2.5;stroke-opacity:0.4;}
	.st97{fill:none;stroke:#6060DF;stroke-width:2.5;stroke-opacity:0.4;}
	.st98{fill:none;stroke:#3030EF;stroke-width:2.5;stroke-opacity:0.4;}
	.st99{fill:none;stroke:#CAA1A1;stroke-width:2.5;stroke-opacity:0.4;}
	.st100{fill:none;stroke:#D48383;stroke-width:2.5;stroke-opacity:0.4;}
	.st101{fill:none;stroke:#F42121;stroke-width:2.5;stroke-opacity:0.4;}
	.st102{fill:none;stroke:#D67D7D;stroke-width:2.5;stroke-opacity:0.4;}
	.st103{fill:none;stroke:#CB9C9C;stroke-width:2.5;stroke-opacity:0.4;}
	.st104{fill:none;stroke:#CD9898;stroke-width:2.5;stroke-opacity:0.4;}
	.st105{fill:none;stroke:#C5B0B0;stroke-width:2.5;stroke-opacity:0.4;}
	.st106{fill:none;stroke:#ABABC6;stroke-width:2.5;stroke-opacity:0.4;}
	.st107{fill:none;stroke:#C5AEAE;stroke-width:2.5;stroke-opacity:0.4;}
	.st108{fill:none;stroke:#CB9E9E;stroke-width:2.5;stroke-opacity:0.4;}
	.st109{fill:none;stroke:#D38686;stroke-width:2.5;stroke-opacity:0.4;}
	.st110{fill:none;stroke:#1717F8;stroke-width:2.5;stroke-opacity:0.4;}
	.st111{fill:none;stroke:#DE6565;stroke-width:2.5;stroke-opacity:0.4;}
	.st112{fill:none;stroke:#3B3BEC;stroke-width:2.5;stroke-opacity:0.4;}
	.st113{fill:none;stroke:#C7AAAA;stroke-width:2.5;stroke-opacity:0.4;}
	.st114{fill:none;stroke:#5C5CE1;stroke-width:2.5;stroke-opacity:0.4;}
	.st115{fill:none;stroke:#F12A2A;stroke-width:2.5;stroke-opacity:0.4;}
	.st116{fill:none;stroke:#8C8CD1;stroke-width:2.5;stroke-opacity:0.4;}
	.st117{fill:none;stroke:#9B9BCC;stroke-width:2.5;stroke-opacity:0.4;}
	.st118{fill:none;stroke:#6969DC;stroke-width:2.5;stroke-opacity:0.4;}
	.st119{fill:none;stroke:#F32626;stroke-width:2.5;stroke-opacity:0.4;}
	.st120{fill:none;stroke:#F81717;stroke-width:2.5;stroke-opacity:0.4;}
	.st121{fill:#646464;stroke:#FFFFFF;stroke-width:1.5;}
</style>
<line class="st0" x1="174.5" y1="0" x2="174.5" y2="735"/>
<line class="st0" x1="174.5" y1="539" x2="354.5" y2="539"/>
<line class="st0" x1="174.5" y1="525.1" x2="354.5" y2="525.1"/>
<line class="st0" x1="174.5" y1="421.2" x2="354.5" y2="421.2"/>
<line class="st0" x1="174.5" y1="396.9" x2="354.5" y2="396.9"/>
<line class="st0" x1="174.5" y1="355.4" x2="354.5" y2="355.4"/>
<line class="st0" x1="174.5" y1="403.9" x2="354.5" y2="403.9"/>
<line class="st0" x1="174.5" y1="324.2" x2="354.5" y2="324.2"/>
<line class="st0" x1="174.5" y1="514.7" x2="354.5" y2="514.7"/>
<line class="st0" x1="174.5" y1="345" x2="354.5" y2="345"/>
<line class="st0" x1="174.5" y1="341.5" x2="354.5" y2="341.5"/>
<line class="st0" x1="174.5" y1="525.1" x2="354.5" y2="525.1"/>
<line class="st0" x1="174.5" y1="313.8" x2="354.5" y2="313.8"/>
<line class="st0" x1="174.5" y1="677.5" x2="354.5" y2="677.5"/>
<line class="st0" x1="174.5" y1="341.5" x2="354.5" y2="341.5"/>
<line class="st0" x1="174.5" y1="296.5" x2="354.5" y2="296.5"/>
<line class="st0" x1="174.5" y1="421.2" x2="354.5" y2="421.2"/>
<line class="st0" x1="174.5" y1="476.6" x2="354.5" y2="476.6"/>
<line class="st0" x1="174.5" y1="442" x2="354.5" y2="442"/>
<line class="st0" x1="174.5" y1="209.9" x2="354.5" y2="209.9"/>
<line class="st0" x1="174.5" y1="403.9" x2="354.5" y2="403.9"/>
<line class="st0" x1="174.5" y1="483.5" x2="354.5" y2="483.5"/>
<line class="st0" x1="174.5" y1="286.1" x2="354.5" y2="286.1"/>
<line class="st0" x1="174.5" y1="500.9" x2="354.5" y2="500.9"/>
<line class="st0" x1="174.5" y1="57.5" x2="354.5" y2="57.5"/>
<line class="st0" x1="174.5" y1="300" x2="354.5" y2="300"/>
<line class="st0" x1="174.5" y1="462.8" x2="354.5" y2="462.8"/>
<line class="st0" x1="174.5" y1="597.8" x2="354.5" y2="597.8"/>
<line class="st0" x1="174.5" y1="518.2" x2="354.5" y2="518.2"/>
<line class="st0" x1="174.5" y1="417.7" x2="354.5" y2="417.7"/>
<line class="st0" x1="174.5" y1="400.4" x2="354.5" y2="400.4"/>
<text transform="matrix(1 0 0 1 354.4722 541.9525)" class="st1 st2">anthropology</text>
<text transform="matrix(1 0 0 1 354.4722 528.0978)" class="st1 st2">archaeology</text>
<text transform="matrix(1 0 0 1 354.4722 424.1871)" class="st1 st2">art history</text>
<text transform="matrix(1 0 0 1 354.4722 399.9413)" class="st1 st2">astronomy</text>
<text transform="matrix(1 0 0 1 354.4722 358.3771)" class="st1 st2">biochemistry</text>
<text transform="matrix(1 0 0 1 354.4722 406.8687)" class="st1 st2">chemistry</text>
<text transform="matrix(1 0 0 1 354.4722 327.2039)" class="st1 st2">classics</text>
<text transform="matrix(1 0 0 1 354.4722 517.7067)" class="st1 st2">communications</text>
<text transform="matrix(1 0 0 1 354.4722 347.986)" class="st1 st2">comparative literature</text>
<text transform="matrix(1 0 0 1 354.4722 344.5223)" class="st1 st2">computer science</text>
<text transform="matrix(1 0 0 1 354.4722 528.0978)" class="st1 st2">earth sciences</text>
<text transform="matrix(1 0 0 1 354.4722 316.8128)" class="st1 st2">economics</text>
<text transform="matrix(1 0 0 1 354.4722 680.5)" class="st1 st2">education</text>
<text transform="matrix(1 0 0 1 354.4722 344.5223)" class="st1 st2">engineering</text>
<text transform="matrix(1 0 0 1 354.4722 299.4944)" class="st1 st2">english literature</text>
<text transform="matrix(1 0 0 1 354.4722 424.1871)" class="st1 st2">evolutionary biology</text>
<text transform="matrix(1 0 0 1 354.4722 479.6061)" class="st1 st2">history</text>
<text transform="matrix(1 0 0 1 354.4722 444.9693)" class="st1 st2">linguistics</text>
<text transform="matrix(1 0 0 1 354.4722 212.9022)" class="st1 st2">mathematics</text>
<text transform="matrix(1 0 0 1 354.4722 406.8687)" class="st1 st2">middle eastern studies</text>
<text transform="matrix(1 0 0 1 354.4722 486.5335)" class="st1 st2">molecular biology</text>
<text transform="matrix(1 0 0 1 354.4722 289.1034)" class="st1 st2">music</text>
<text transform="matrix(1 0 0 1 354.4722 503.8519)" class="st1 st2">neuroscience</text>
<text transform="matrix(1 0 0 1 354.4722 60.5)" class="st1 st2">philosophy</text>
<text transform="matrix(1 0 0 1 354.4722 302.9581)" class="st1 st2">physics</text>
<text transform="matrix(1 0 0 1 354.4722 465.7514)" class="st1 st2">political science</text>
<text transform="matrix(1 0 0 1 354.4722 600.8352)" class="st1 st2">psychology</text>
<text transform="matrix(1 0 0 1 354.4722 521.1704)" class="st1 st2">sociology</text>
<text transform="matrix(1 0 0 1 354.4722 420.7234)" class="st1 st2">spanish literature</text>
<text transform="matrix(1 0 0 1 354.4722 403.405)" class="st1 st2">statistics</text>
<text transform="matrix(6.123234e-17 -1 1 6.123234e-17 170.4722 47.5)" class="st1 st2">FAB</text>
<path class="st3" d="M174.5,421.2c-43.6,58.9-43.6,98.1,0,117.8"/>
<path class="st3" d="M174.5,341.5c-73.1,98.7-73.1,164.5,0,197.4"/>
<path class="st3" d="M174.5,677.5c51.3-69.3,51.3-115.5,0-138.5"/>
<path class="st3" d="M174.5,483.5c-20.5,27.7-20.5,46.2,0,55.4"/>
<path class="st3" d="M174.5,286.1c-93.6,126.4-93.6,210.7,0,252.8"/>
<path class="st3" d="M174.5,57.5C-3.8,298.2-3.8,458.7,174.5,539"/>
<path class="st3" d="M174.5,300C86,419.5,86,499.1,174.5,539"/>
<path class="st3" d="M174.5,421.2c-38.5,52-38.5,86.6,0,103.9"/>
<path class="st3" d="M174.5,355.4c-62.9,84.9-62.9,141.4,0,169.7"/>
<path class="st3" d="M174.5,403.9c-44.9,60.6-44.9,101,0,121.2"/>
<path class="st3" d="M174.5,677.5c56.4-76.2,56.4-127,0-152.4"/>
<path class="st3" d="M174.5,296.5c-84.7,114.3-84.7,190.5,0,228.6"/>
<path class="st3" d="M174.5,421.2c-38.5,52-38.5,86.6,0,103.9"/>
<path class="st3" d="M174.5,442c-30.8,41.6-30.8,69.3,0,83.1"/>
<path class="st3" d="M174.5,286.1c-88.5,119.5-88.5,199.2,0,239"/>
<path class="st3" d="M174.5,500.9c-9,12.1-9,20.2,0,24.2"/>
<path class="st3" d="M174.5,597.8c26.9-36.4,26.9-60.6,0-72.7"/>
<path class="st3" d="M174.5,518.2c-2.6,3.5-2.6,5.8,0,6.9"/>
<path class="st3" d="M174.5,539c43.6-58.9,43.6-98.1,0-117.8"/>
<path class="st3" d="M174.5,345c-28.2,38.1-28.2,63.5,0,76.2"/>
<path class="st3" d="M174.5,525.1c38.5-52,38.5-86.6,0-103.9"/>
<path class="st3" d="M174.5,209.9c-78.3,105.6-78.3,176.1,0,211.3"/>
<path class="st3" d="M174.5,500.9c29.5-39.8,29.5-66.4,0-79.7"/>
<path class="st3" d="M174.5,57.5c-134.7,181.8-134.7,303.1,0,363.7"/>
<path class="st3" d="M174.5,462.8c15.4-20.8,15.4-34.6,0-41.6"/>
<path class="st3" d="M174.5,597.8c65.4-88.3,65.4-147.2,0-176.6"/>
<path class="st3" d="M174.5,417.7c-1.3,1.7-1.3,2.9,0,3.5"/>
<path class="st3" d="M174.5,400.4c-7.7,10.4-7.7,17.3,0,20.8"/>
<path class="st3" d="M174.5,341.5c-20.5,27.7-20.5,46.2,0,55.4"/>
<path class="st3" d="M174.5,525.1c47.5-64.1,47.5-106.8,0-128.2"/>
<path class="st3" d="M174.5,341.5c-20.5,27.7-20.5,46.2,0,55.4"/>
<path class="st3" d="M174.5,500.9c38.5-52,38.5-86.6,0-103.9"/>
<path class="st3" d="M174.5,525.1c62.9-84.9,62.9-141.4,0-169.7"/>
<path class="st3" d="M174.5,421.2c24.4-32.9,24.4-54.8,0-65.8"/>
<path class="st3" d="M174.5,341.5c-5.1,6.9-5.1,11.5,0,13.9"/>
<path class="st3" d="M174.5,341.5c-5.1,6.9-5.1,11.5,0,13.9"/>
<path class="st3" d="M174.5,296.5c-21.8,29.4-21.8,49.1,0,58.9"/>
<path class="st3" d="M174.5,421.2c24.4-32.9,24.4-54.8,0-65.8"/>
<path class="st3" d="M174.5,476.6c44.9-60.6,44.9-101,0-121.2"/>
<path class="st3" d="M174.5,483.5c47.5-64.1,47.5-106.8,0-128.2"/>
<path class="st3" d="M174.5,57.5c-110.3,148.9-110.3,248.2,0,297.9"/>
<path class="st3" d="M174.5,462.8c39.8-53.7,39.8-89.5,0-107.4"/>
<path class="st3" d="M174.5,421.2c6.4-8.7,6.4-14.4,0-17.3"/>
<path class="st3" d="M174.5,324.2c-29.5,39.8-29.5,66.4,0,79.7"/>
<path class="st3" d="M174.5,341.5c-23.1,31.2-23.1,52,0,62.3"/>
<path class="st3" d="M174.5,525.1c44.9-60.6,44.9-101,0-121.2"/>
<path class="st3" d="M174.5,677.5c101.3-136.8,101.3-228,0-273.6"/>
<path class="st3" d="M174.5,341.5c-23.1,31.2-23.1,52,0,62.3"/>
<path class="st3" d="M174.5,421.2c6.4-8.7,6.4-14.4,0-17.3"/>
<path class="st3" d="M174.5,403.9L174.5,403.9"/>
<path class="st3" d="M174.5,300c-38.5,52-38.5,86.6,0,103.9"/>
<path class="st3" d="M174.5,462.8c21.8-29.4,21.8-49.1,0-58.9"/>
<path class="st3" d="M174.5,313.8c-3.8,5.2-3.8,8.7,0,10.4"/>
<path class="st3" d="M174.5,677.5c130.9-176.6,130.9-294.4,0-353.3"/>
<path class="st3" d="M174.5,209.9c-42.3,57.2-42.3,95.3,0,114.3"/>
<path class="st3" d="M174.5,300c-9,12.1-9,20.2,0,24.2"/>
<path class="st3" d="M174.5,525.1c3.8-5.2,3.8-8.7,0-10.4"/>
<path class="st3" d="M174.5,355.4c-59,79.7-59,132.8,0,159.3"/>
<path class="st3" d="M174.5,341.5c-64.1,86.6-64.1,144.3,0,173.2"/>
<path class="st3" d="M174.5,677.5c60.3-81.4,60.3-135.7,0-162.8"/>
<path class="st3" d="M174.5,341.5c-64.1,86.6-64.1,144.3,0,173.2"/>
<path class="st3" d="M174.5,209.9c-112.9,152.4-112.9,254,0,304.8"/>
<path class="st3" d="M174.5,300c-79.5,107.4-79.5,179,0,214.7"/>
<path class="st3" d="M174.5,518.2c1.3-1.7,1.3-2.9,0-3.5"/>
<path class="st3" d="M174.5,539c71.8-97,71.8-161.6,0-194"/>
<path class="st3" d="M174.5,421.2c28.2-38.1,28.2-63.5,0-76.2"/>
<path class="st3" d="M174.5,341.5c-1.3,1.7-1.3,2.9,0,3.5"/>
<path class="st3" d="M174.5,442c35.9-48.5,35.9-80.8,0-97"/>
<path class="st3" d="M174.5,300c-16.7,22.5-16.7,37.5,0,45"/>
<path class="st3" d="M174.5,396.9c20.5-27.7,20.5-46.2,0-55.4"/>
<path class="st3" d="M174.5,525.1c68-91.8,68-153,0-183.6"/>
<path class="st3" d="M174.5,677.5c124.4-168,124.4-280,0-336"/>
<path class="st3" d="M174.5,341.5L174.5,341.5"/>
<path class="st3" d="M174.5,209.9c-48.7,65.8-48.7,109.7,0,131.6"/>
<path class="st3" d="M174.5,286.1c-20.5,27.7-20.5,46.2,0,55.4"/>
<path class="st3" d="M174.5,417.7c28.2-38.1,28.2-63.5,0-76.2"/>
<path class="st3" d="M174.5,514.7c-3.8,5.2-3.8,8.7,0,10.4"/>
<path class="st3" d="M174.5,341.5c-68,91.8-68,153,0,183.6"/>
<path class="st3" d="M174.5,677.5c56.4-76.2,56.4-127,0-152.4"/>
<path class="st3" d="M174.5,341.5c-68,91.8-68,153,0,183.6"/>
<path class="st3" d="M174.5,209.9c-116.7,157.6-116.7,262.7,0,315.2"/>
<path class="st3" d="M174.5,500.9c-9,12.1-9,20.2,0,24.2"/>
<path class="st3" d="M174.5,57.5C1.3,291.3,1.3,447.2,174.5,525.1"/>
<path class="st3" d="M174.5,462.8c-23.1,31.2-23.1,52,0,62.3"/>
<path class="st3" d="M174.5,597.8c26.9-36.4,26.9-60.6,0-72.7"/>
<path class="st3" d="M174.5,396.9c30.8-41.6,30.8-69.3,0-83.1"/>
<path class="st3" d="M174.5,324.2c3.8-5.2,3.8-8.7,0-10.4"/>
<path class="st3" d="M174.5,514.7c74.4-100.4,74.4-167.4,0-200.9"/>
<path class="st3" d="M174.5,345c11.5-15.6,11.5-26,0-31.2"/>
<path class="st3" d="M174.5,341.5c10.3-13.9,10.3-23.1,0-27.7"/>
<path class="st3" d="M174.5,677.5c134.7-181.8,134.7-303.1,0-363.7"/>
<path class="st3" d="M174.5,341.5c10.3-13.9,10.3-23.1,0-27.7"/>
<path class="st3" d="M174.5,442c47.5-64.1,47.5-106.8,0-128.2"/>
<path class="st3" d="M174.5,209.9c-38.5,52-38.5,86.6,0,103.9"/>
<path class="st3" d="M174.5,483.5c62.9-84.9,62.9-141.4,0-169.7"/>
<path class="st3" d="M174.5,300c-5.1,6.9-5.1,11.5,0,13.9"/>
<path class="st3" d="M174.5,518.2c75.7-102.2,75.7-170.3,0-204.4"/>
<path class="st3" d="M174.5,355.4c-119.3,161.1-119.3,268.4,0,322.1"/>
<path class="st3" d="M174.5,403.9c-101.3,136.8-101.3,228,0,273.6"/>
<path class="st3" d="M174.5,341.5c-124.4,168-124.4,280,0,336"/>
<path class="st3" d="M174.5,313.8c-134.7,181.8-134.7,303.1,0,363.7"/>
<path class="st3" d="M174.5,341.5c-124.4,168-124.4,280,0,336"/>
<path class="st3" d="M174.5,476.6c-74.4,100.4-74.4,167.4,0,200.9"/>
<path class="st3" d="M174.5,209.9C1.3,443.7,1.3,599.6,174.5,677.5"/>
<path class="st3" d="M174.5,483.5c-71.8,97-71.8,161.6,0,194"/>
<path class="st3" d="M174.5,57.5c-229.6,310-229.6,516.7,0,620"/>
<path class="st3" d="M174.5,300c-139.8,188.8-139.8,314.6,0,377.5"/>
<path class="st3" d="M174.5,462.8c-79.5,107.4-79.5,179,0,214.7"/>
<path class="st3" d="M174.5,597.8c-29.5,39.8-29.5,66.4,0,79.7"/>
<path class="st3" d="M174.5,400.4C71.8,539,71.8,631.3,174.5,677.5"/>
<path class="st3" d="M174.5,396.9c20.5-27.7,20.5-46.2,0-55.4"/>
<path class="st3" d="M174.5,355.4c5.1-6.9,5.1-11.5,0-13.9"/>
<path class="st3" d="M174.5,403.9c23.1-31.2,23.1-52,0-62.3"/>
<path class="st3" d="M174.5,341.5L174.5,341.5"/>
<path class="st3" d="M174.5,525.1c68-91.8,68-153,0-183.6"/>
<path class="st3" d="M174.5,313.8c-10.3,13.9-10.3,23.1,0,27.7"/>
<path class="st3" d="M174.5,677.5c124.4-168,124.4-280,0-336"/>
<path class="st3" d="M174.5,296.5c-16.7,22.5-16.7,37.5,0,45"/>
<path class="st3" d="M174.5,403.9c23.1-31.2,23.1-52,0-62.3"/>
<path class="st3" d="M174.5,483.5c52.6-71,52.6-118.3,0-142"/>
<path class="st3" d="M174.5,300c-15.4,20.8-15.4,34.6,0,41.6"/>
<path class="st3" d="M174.5,518.2c65.4-88.3,65.4-147.2,0-176.6"/>
<path class="st3" d="M174.5,525.1c84.7-114.3,84.7-190.5,0-228.6"/>
<path class="st3" d="M174.5,341.5c16.7-22.5,16.7-37.5,0-45"/>
<path class="st3" d="M174.5,341.5c16.7-22.5,16.7-37.5,0-45"/>
<path class="st3" d="M174.5,421.2c46.2-62.3,46.2-103.9,0-124.7"/>
<path class="st3" d="M174.5,483.5c69.3-93.5,69.3-155.9,0-187"/>
<path class="st3" d="M174.5,597.8c111.6-150.7,111.6-251.1,0-301.3"/>
<path class="st3" d="M174.5,518.2c82.1-110.8,82.1-184.7,0-221.7"/>
<path class="st3" d="M174.5,417.7c44.9-60.6,44.9-101,0-121.2"/>
<path class="st3" d="M174.5,539c43.6-58.9,43.6-98.1,0-117.8"/>
<path class="st3" d="M174.5,525.1c38.5-52,38.5-86.6,0-103.9"/>
<path class="st3" d="M174.5,355.4c-24.4,32.9-24.4,54.8,0,65.8"/>
<path class="st3" d="M174.5,403.9c-6.4,8.7-6.4,14.4,0,17.3"/>
<path class="st3" d="M174.5,514.7c34.6-46.8,34.6-77.9,0-93.5"/>
<path class="st3" d="M174.5,313.8c-39.8,53.7-39.8,89.5,0,107.4"/>
<path class="st3" d="M174.5,677.5c94.9-128.2,94.9-213.6,0-256.3"/>
<path class="st3" d="M174.5,476.6c20.5-27.7,20.5-46.2,0-55.4"/>
<path class="st3" d="M174.5,442c7.7-10.4,7.7-17.3,0-20.8"/>
<path class="st3" d="M174.5,500.9c29.5-39.8,29.5-66.4,0-79.7"/>
<path class="st3" d="M174.5,417.7c-1.3,1.7-1.3,2.9,0,3.5"/>
<path class="st3" d="M174.5,400.4c-7.7,10.4-7.7,17.3,0,20.8"/>
<path class="st3" d="M174.5,539c23.1-31.2,23.1-52,0-62.3"/>
<path class="st3" d="M174.5,514.7c14.1-19.1,14.1-31.8,0-38.1"/>
<path class="st3" d="M174.5,313.8c-60.3,81.4-60.3,135.7,0,162.8"/>
<path class="st3" d="M174.5,677.5c74.4-100.4,74.4-167.4,0-200.9"/>
<path class="st3" d="M174.5,341.5c-50,67.5-50,112.6,0,135.1"/>
<path class="st3" d="M174.5,57.5c-155.2,209.6-155.2,349.3,0,419.1"/>
<path class="st3" d="M174.5,300c-65.4,88.3-65.4,147.2,0,176.6"/>
<path class="st3" d="M174.5,462.8c-5.1,6.9-5.1,11.5,0,13.9"/>
<path class="st3" d="M174.5,597.8c44.9-60.6,44.9-101,0-121.2"/>
<path class="st3" d="M174.5,421.2c-7.7,10.4-7.7,17.3,0,20.8"/>
<path class="st3" d="M174.5,403.9c-14.1,19.1-14.1,31.8,0,38.1"/>
<path class="st3" d="M174.5,345c-35.9,48.5-35.9,80.8,0,97"/>
<path class="st3" d="M174.5,525.1c30.8-41.6,30.8-69.3,0-83.1"/>
<path class="st3" d="M174.5,296.5c-53.9,72.7-53.9,121.2,0,145.5"/>
<path class="st3" d="M174.5,403.9c-14.1,19.1-14.1,31.8,0,38.1"/>
<path class="st3" d="M174.5,483.5c15.4-20.8,15.4-34.6,0-41.6"/>
<path class="st3" d="M174.5,286.1c-57.7,77.9-57.7,129.9,0,155.9"/>
<path class="st3" d="M174.5,417.7c-9,12.1-9,20.2,0,24.2"/>
<path class="st3" d="M174.5,421.2c78.3-105.6,78.3-176.1,0-211.3"/>
<path class="st3" d="M174.5,324.2c42.3-57.2,42.3-95.3,0-114.3"/>
<path class="st3" d="M174.5,341.5c48.7-65.8,48.7-109.7,0-131.6"/>
<path class="st3" d="M174.5,677.5c173.2-233.8,173.2-389.7,0-467.6"/>
<path class="st3" d="M174.5,341.5c48.7-65.8,48.7-109.7,0-131.6"/>
<path class="st3" d="M174.5,403.9c71.8-97,71.8-161.6,0-194"/>
<path class="st3" d="M174.5,500.9c107.8-145.5,107.8-242.5,0-290.9"/>
<path class="st3" d="M174.5,300c33.4-45,33.4-75,0-90.1"/>
<path class="st3" d="M174.5,462.8c93.6-126.4,93.6-210.7,0-252.8"/>
<path class="st3" d="M174.5,518.2c114.2-154.1,114.2-256.9,0-308.3"/>
<path class="st3" d="M174.5,417.7c77-103.9,77-173.2,0-207.8"/>
<path class="st3" d="M174.5,400.4c70.6-95.3,70.6-158.8,0-190.5"/>
<path class="st3" d="M174.5,525.1c44.9-60.6,44.9-101,0-121.2"/>
<path class="st3" d="M174.5,403.9L174.5,403.9"/>
<path class="st3" d="M174.5,514.7c41.1-55.4,41.1-92.4,0-110.8"/>
<path class="st3" d="M174.5,345c-21.8,29.4-21.8,49.1,0,58.9"/>
<path class="st3" d="M174.5,341.5c-23.1,31.2-23.1,52,0,62.3"/>
<path class="st3" d="M174.5,525.1c44.9-60.6,44.9-101,0-121.2"/>
<path class="st3" d="M174.5,341.5c-23.1,31.2-23.1,52,0,62.3"/>
<path class="st3" d="M174.5,57.5c-128.3,173.2-128.3,288.6,0,346.4"/>
<path class="st3" d="M174.5,300c-38.5,52-38.5,86.6,0,103.9"/>
<path class="st3" d="M174.5,355.4c-47.5,64.1-47.5,106.8,0,128.2"/>
<path class="st3" d="M174.5,341.5c-52.6,71-52.6,118.3,0,142"/>
<path class="st3" d="M174.5,476.6c-2.6,3.5-2.6,5.8,0,6.9"/>
<path class="st3" d="M174.5,442c-15.4,20.8-15.4,34.6,0,41.6"/>
<path class="st3" d="M174.5,209.9c-101.3,136.8-101.3,228,0,273.6"/>
<path class="st3" d="M174.5,300c-68,91.8-68,153,0,183.6"/>
<path class="st3" d="M174.5,462.8c-7.7,10.4-7.7,17.3,0,20.8"/>
<path class="st3" d="M174.5,341.5c20.5-27.7,20.5-46.2,0-55.4"/>
<path class="st3" d="M174.5,476.6c70.6-95.3,70.6-158.8,0-190.5"/>
<path class="st3" d="M174.5,442c57.7-77.9,57.7-129.9,0-155.9"/>
<path class="st3" d="M174.5,209.9c-28.2,38.1-28.2,63.5,0,76.2"/>
<path class="st3" d="M174.5,462.8c65.4-88.3,65.4-147.2,0-176.6"/>
<path class="st3" d="M174.5,518.2c86-116,86-193.4,0-232.1"/>
<path class="st3" d="M174.5,417.7c48.7-65.8,48.7-109.7,0-131.6"/>
<path class="st3" d="M174.5,421.2c-29.5,39.8-29.5,66.4,0,79.7"/>
<path class="st3" d="M174.5,514.7c5.1-6.9,5.1-11.5,0-13.9"/>
<path class="st3" d="M174.5,341.5c-59,79.7-59,132.8,0,159.3"/>
<path class="st3" d="M174.5,341.5c-59,79.7-59,132.8,0,159.3"/>
<path class="st3" d="M174.5,476.6c-9,12.1-9,20.2,0,24.2"/>
<path class="st3" d="M174.5,209.9c-107.8,145.5-107.8,242.5,0,290.9"/>
<path class="st3" d="M174.5,597.8c35.9-48.5,35.9-80.8,0-97"/>
<path class="st3" d="M174.5,539c178.3-240.7,178.3-401.2,0-481.5"/>
<path class="st3" d="M174.5,421.2c134.7-181.8,134.7-303.1,0-363.7"/>
<path class="st3" d="M174.5,514.7c169.3-228.6,169.3-381,0-457.2"/>
<path class="st3" d="M174.5,341.5c105.2-142,105.2-236.7,0-284"/>
<path class="st3" d="M174.5,677.5c229.6-310,229.6-516.7,0-620"/>
<path class="st3" d="M174.5,421.2c134.7-181.8,134.7-303.1,0-363.7"/>
<path class="st3" d="M174.5,442c142.4-192.2,142.4-320.4,0-384.5"/>
<path class="st3" d="M174.5,209.9c56.4-76.2,56.4-127,0-152.4"/>
<path class="st3" d="M174.5,483.5c157.8-213,157.8-355,0-426"/>
<path class="st3" d="M174.5,300c89.8-121.2,89.8-202,0-242.5"/>
<path class="st3" d="M174.5,421.2c44.9-60.6,44.9-101,0-121.2"/>
<path class="st3" d="M174.5,355.4c20.5-27.7,20.5-46.2,0-55.4"/>
<path class="st3" d="M174.5,403.9c38.5-52,38.5-86.6,0-103.9"/>
<path class="st3" d="M174.5,324.2c9-12.1,9-20.2,0-24.2"/>
<path class="st3" d="M174.5,341.5c15.4-20.8,15.4-34.6,0-41.6"/>
<path class="st3" d="M174.5,525.1c83.4-112.6,83.4-187.6,0-225.1"/>
<path class="st3" d="M174.5,677.5c139.8-188.8,139.8-314.6,0-377.5"/>
<path class="st3" d="M174.5,341.5c15.4-20.8,15.4-34.6,0-41.6"/>
<path class="st3" d="M174.5,442c52.6-71,52.6-118.3,0-142"/>
<path class="st3" d="M174.5,209.9c-33.4,45-33.4,75,0,90.1"/>
<path class="st3" d="M174.5,500.9c74.4-100.4,74.4-167.4,0-200.9"/>
<path class="st3" d="M174.5,539c28.2-38.1,28.2-63.5,0-76.2"/>
<path class="st3" d="M174.5,421.2c-15.4,20.8-15.4,34.6,0,41.6"/>
<path class="st3" d="M174.5,355.4c-39.8,53.7-39.8,89.5,0,107.4"/>
<path class="st3" d="M174.5,324.2c-51.3,69.3-51.3,115.5,0,138.5"/>
<path class="st3" d="M174.5,514.7c19.2-26,19.2-43.3,0-52"/>
<path class="st3" d="M174.5,421.2c-15.4,20.8-15.4,34.6,0,41.6"/>
<path class="st3" d="M174.5,500.9c14.1-19.1,14.1-31.8,0-38.1"/>
<path class="st3" d="M174.5,57.5c-150.1,202.6-150.1,337.7,0,405.3"/>
<path class="st3" d="M174.5,300c-60.3,81.4-60.3,135.7,0,162.8"/>
<path class="st3" d="M174.5,597.8c50-67.5,50-112.6,0-135.1"/>
<path class="st3" d="M174.5,518.2c20.5-27.7,20.5-46.2,0-55.4"/>
<path class="st3" d="M174.5,417.7c-16.7,22.5-16.7,37.5,0,45"/>
<path class="st3" d="M174.5,345c-93.6,126.4-93.6,210.7,0,252.8"/>
<path class="st3" d="M174.5,341.5c-94.9,128.2-94.9,213.6,0,256.3"/>
<path class="st3" d="M174.5,313.8c-105.2,142-105.2,236.7,0,284"/>
<path class="st3" d="M174.5,677.5c29.5-39.8,29.5-66.4,0-79.7"/>
<path class="st3" d="M174.5,341.5c-94.9,128.2-94.9,213.6,0,256.3"/>
<path class="st3" d="M174.5,421.2c-65.4,88.3-65.4,147.2,0,176.6"/>
<path class="st3" d="M174.5,476.6c-44.9,60.6-44.9,101,0,121.2"/>
<path class="st3" d="M174.5,442c-57.7,77.9-57.7,129.9,0,155.9"/>
<path class="st3" d="M174.5,403.9c-71.8,97-71.8,161.6,0,194"/>
<path class="st3" d="M174.5,500.9c-35.9,48.5-35.9,80.8,0,97"/>
<path class="st3" d="M174.5,57.5c-200.1,270.2-200.1,450.3,0,540.3"/>
<path class="st3" d="M174.5,400.4c-73.1,98.7-73.1,164.5,0,197.4"/>
<path class="st3" d="M174.5,525.1c2.6-3.5,2.6-5.8,0-6.9"/>
<path class="st3" d="M174.5,421.2c-35.9,48.5-35.9,80.8,0,97"/>
<path class="st3" d="M174.5,324.2c-71.8,97-71.8,161.6,0,194"/>
<path class="st3" d="M174.5,345c-64.1,86.6-64.1,144.3,0,173.2"/>
<path class="st3" d="M174.5,677.5c59-79.7,59-132.8,0-159.3"/>
<path class="st3" d="M174.5,421.2c-35.9,48.5-35.9,80.8,0,97"/>
<path class="st3" d="M174.5,483.5c-12.8,17.3-12.8,28.9,0,34.6"/>
<path class="st3" d="M174.5,514.7c35.9-48.5,35.9-80.8,0-97"/>
<path class="st3" d="M174.5,525.1c39.8-53.7,39.8-89.5,0-107.4"/>
<path class="st3" d="M174.5,313.8c-38.5,52-38.5,86.6,0,103.9"/>
<path class="st3" d="M174.5,421.2c1.3-1.7,1.3-2.9,0-3.5"/>
<path class="st3" d="M174.5,209.9c-77,103.9-77,173.2,0,207.8"/>
<path class="st3" d="M174.5,403.9c1.3-1.7,1.3-2.9,0-3.5"/>
<path class="st3" d="M174.5,677.5c102.6-138.5,102.6-230.9,0-277.1"/>
<path class="st3" d="M174.5,296.5c-38.5,52-38.5,86.6,0,103.9"/>
<path class="st3" d="M174.5,442c15.4-20.8,15.4-34.6,0-41.6"/>
<path class="st3" d="M174.5,209.9c-70.6,95.3-70.6,158.8,0,190.5"/>
<path class="st3" d="M174.5,483.5c30.8-41.6,30.8-69.3,0-83.1"/>
<path class="st3" d="M174.5,300c-37.2,50.2-37.2,83.7,0,100.4"/>
<path class="st4" d="M174.5,421.2c-43.6,58.9-43.6,98.1,0,117.8"/>
<path class="st5" d="M174.5,341.5c-73.1,98.7-73.1,164.5,0,197.4"/>
<path class="st6" d="M174.5,677.5c51.3-69.3,51.3-115.5,0-138.5"/>
<path class="st7" d="M174.5,483.5c-20.5,27.7-20.5,46.2,0,55.4"/>
<path class="st8" d="M174.5,286.1c-93.6,126.4-93.6,210.7,0,252.8"/>
<path class="st9" d="M174.5,57.5C-3.8,298.2-3.8,458.7,174.5,539"/>
<path class="st10" d="M174.5,300C86,419.5,86,499.1,174.5,539"/>
<path class="st11" d="M174.5,421.2c-38.5,52-38.5,86.6,0,103.9"/>
<path class="st7" d="M174.5,355.4c-62.9,84.9-62.9,141.4,0,169.7"/>
<path class="st8" d="M174.5,403.9c-44.9,60.6-44.9,101,0,121.2"/>
<path class="st12" d="M174.5,677.5c56.4-76.2,56.4-127,0-152.4"/>
<path class="st7" d="M174.5,296.5c-84.7,114.3-84.7,190.5,0,228.6"/>
<path class="st7" d="M174.5,421.2c-38.5,52-38.5,86.6,0,103.9"/>
<path class="st8" d="M174.5,442c-30.8,41.6-30.8,69.3,0,83.1"/>
<path class="st7" d="M174.5,286.1c-88.5,119.5-88.5,199.2,0,239"/>
<path class="st8" d="M174.5,500.9c-9,12.1-9,20.2,0,24.2"/>
<path class="st8" d="M174.5,597.8c26.9-36.4,26.9-60.6,0-72.7"/>
<path class="st8" d="M174.5,518.2c-2.6,3.5-2.6,5.8,0,6.9"/>
<path class="st13" d="M174.5,539c43.6-58.9,43.6-98.1,0-117.8"/>
<path class="st14" d="M174.5,345c-28.2,38.1-28.2,63.5,0,76.2"/>
<path class="st14" d="M174.5,525.1c38.5-52,38.5-86.6,0-103.9"/>
<path class="st14" d="M174.5,209.9c-78.3,105.6-78.3,176.1,0,211.3"/>
<path class="st8" d="M174.5,500.9c29.5-39.8,29.5-66.4,0-79.7"/>
<path class="st15" d="M174.5,57.5c-134.7,181.8-134.7,303.1,0,363.7"/>
<path class="st14" d="M174.5,462.8c15.4-20.8,15.4-34.6,0-41.6"/>
<path class="st14" d="M174.5,597.8c65.4-88.3,65.4-147.2,0-176.6"/>
<path class="st14" d="M174.5,417.7c-1.3,1.7-1.3,2.9,0,3.5"/>
<path class="st14" d="M174.5,400.4c-7.7,10.4-7.7,17.3,0,20.8"/>
<path class="st16" d="M174.5,341.5c-20.5,27.7-20.5,46.2,0,55.4"/>
<path class="st7" d="M174.5,525.1c47.5-64.1,47.5-106.8,0-128.2"/>
<path class="st7" d="M174.5,341.5c-20.5,27.7-20.5,46.2,0,55.4"/>
<path class="st16" d="M174.5,500.9c38.5-52,38.5-86.6,0-103.9"/>
<path class="st7" d="M174.5,525.1c62.9-84.9,62.9-141.4,0-169.7"/>
<path class="st7" d="M174.5,421.2c24.4-32.9,24.4-54.8,0-65.8"/>
<path class="st17" d="M174.5,341.5c-5.1,6.9-5.1,11.5,0,13.9"/>
<path class="st18" d="M174.5,341.5c-5.1,6.9-5.1,11.5,0,13.9"/>
<path class="st19" d="M174.5,296.5c-21.8,29.4-21.8,49.1,0,58.9"/>
<path class="st20" d="M174.5,421.2c24.4-32.9,24.4-54.8,0-65.8"/>
<path class="st19" d="M174.5,476.6c44.9-60.6,44.9-101,0-121.2"/>
<path class="st21" d="M174.5,483.5c47.5-64.1,47.5-106.8,0-128.2"/>
<path class="st19" d="M174.5,57.5c-110.3,148.9-110.3,248.2,0,297.9"/>
<path class="st19" d="M174.5,462.8c39.8-53.7,39.8-89.5,0-107.4"/>
<path class="st7" d="M174.5,421.2c6.4-8.7,6.4-14.4,0-17.3"/>
<path class="st22" d="M174.5,324.2c-29.5,39.8-29.5,66.4,0,79.7"/>
<path class="st23" d="M174.5,341.5c-23.1,31.2-23.1,52,0,62.3"/>
<path class="st24" d="M174.5,525.1c44.9-60.6,44.9-101,0-121.2"/>
<path class="st25" d="M174.5,677.5c101.3-136.8,101.3-228,0-273.6"/>
<path class="st26" d="M174.5,341.5c-23.1,31.2-23.1,52,0,62.3"/>
<path class="st27" d="M174.5,421.2c6.4-8.7,6.4-14.4,0-17.3"/>
<path class="st22" d="M174.5,403.9L174.5,403.9"/>
<path class="st28" d="M174.5,300c-38.5,52-38.5,86.6,0,103.9"/>
<path class="st22" d="M174.5,462.8c21.8-29.4,21.8-49.1,0-58.9"/>
<path class="st8" d="M174.5,313.8c-3.8,5.2-3.8,8.7,0,10.4"/>
<path class="st29" d="M174.5,677.5c130.9-176.6,130.9-294.4,0-353.3"/>
<path class="st8" d="M174.5,209.9c-42.3,57.2-42.3,95.3,0,114.3"/>
<path class="st7" d="M174.5,300c-9,12.1-9,20.2,0,24.2"/>
<path class="st7" d="M174.5,525.1c3.8-5.2,3.8-8.7,0-10.4"/>
<path class="st8" d="M174.5,355.4c-59,79.7-59,132.8,0,159.3"/>
<path class="st30" d="M174.5,341.5c-64.1,86.6-64.1,144.3,0,173.2"/>
<path class="st25" d="M174.5,677.5c60.3-81.4,60.3-135.7,0-162.8"/>
<path class="st31" d="M174.5,341.5c-64.1,86.6-64.1,144.3,0,173.2"/>
<path class="st32" d="M174.5,209.9c-112.9,152.4-112.9,254,0,304.8"/>
<path class="st33" d="M174.5,300c-79.5,107.4-79.5,179,0,214.7"/>
<path class="st34" d="M174.5,518.2c1.3-1.7,1.3-2.9,0-3.5"/>
<path class="st8" d="M174.5,539c71.8-97,71.8-161.6,0-194"/>
<path class="st7" d="M174.5,421.2c28.2-38.1,28.2-63.5,0-76.2"/>
<path class="st7" d="M174.5,341.5c-1.3,1.7-1.3,2.9,0,3.5"/>
<path class="st35" d="M174.5,442c35.9-48.5,35.9-80.8,0-97"/>
<path class="st8" d="M174.5,300c-16.7,22.5-16.7,37.5,0,45"/>
<path class="st36" d="M174.5,396.9c20.5-27.7,20.5-46.2,0-55.4"/>
<path class="st37" d="M174.5,525.1c68-91.8,68-153,0-183.6"/>
<path class="st38" d="M174.5,677.5c124.4-168,124.4-280,0-336"/>
<path class="st39" d="M174.5,341.5L174.5,341.5"/>
<path class="st40" d="M174.5,209.9c-48.7,65.8-48.7,109.7,0,131.6"/>
<path class="st36" d="M174.5,286.1c-20.5,27.7-20.5,46.2,0,55.4"/>
<path class="st36" d="M174.5,417.7c28.2-38.1,28.2-63.5,0-76.2"/>
<path class="st7" d="M174.5,514.7c-3.8,5.2-3.8,8.7,0,10.4"/>
<path class="st16" d="M174.5,341.5c-68,91.8-68,153,0,183.6"/>
<path class="st41" d="M174.5,677.5c56.4-76.2,56.4-127,0-152.4"/>
<path class="st42" d="M174.5,341.5c-68,91.8-68,153,0,183.6"/>
<path class="st43" d="M174.5,209.9c-116.7,157.6-116.7,262.7,0,315.2"/>
<path class="st7" d="M174.5,500.9c-9,12.1-9,20.2,0,24.2"/>
<path class="st32" d="M174.5,57.5C1.3,291.3,1.3,447.2,174.5,525.1"/>
<path class="st7" d="M174.5,462.8c-23.1,31.2-23.1,52,0,62.3"/>
<path class="st32" d="M174.5,597.8c26.9-36.4,26.9-60.6,0-72.7"/>
<path class="st44" d="M174.5,396.9c30.8-41.6,30.8-69.3,0-83.1"/>
<path class="st44" d="M174.5,324.2c3.8-5.2,3.8-8.7,0-10.4"/>
<path class="st45" d="M174.5,514.7c74.4-100.4,74.4-167.4,0-200.9"/>
<path class="st7" d="M174.5,345c11.5-15.6,11.5-26,0-31.2"/>
<path class="st46" d="M174.5,341.5c10.3-13.9,10.3-23.1,0-27.7"/>
<path class="st47" d="M174.5,677.5c134.7-181.8,134.7-303.1,0-363.7"/>
<path class="st48" d="M174.5,341.5c10.3-13.9,10.3-23.1,0-27.7"/>
<path class="st49" d="M174.5,442c47.5-64.1,47.5-106.8,0-128.2"/>
<path class="st17" d="M174.5,209.9c-38.5,52-38.5,86.6,0,103.9"/>
<path class="st44" d="M174.5,483.5c62.9-84.9,62.9-141.4,0-169.7"/>
<path class="st50" d="M174.5,300c-5.1,6.9-5.1,11.5,0,13.9"/>
<path class="st51" d="M174.5,518.2c75.7-102.2,75.7-170.3,0-204.4"/>
<path class="st52" d="M174.5,355.4c-119.3,161.1-119.3,268.4,0,322.1"/>
<path class="st53" d="M174.5,403.9c-101.3,136.8-101.3,228,0,273.6"/>
<path class="st15" d="M174.5,341.5c-124.4,168-124.4,280,0,336"/>
<path class="st54" d="M174.5,313.8c-134.7,181.8-134.7,303.1,0,363.7"/>
<path class="st31" d="M174.5,341.5c-124.4,168-124.4,280,0,336"/>
<path class="st17" d="M174.5,476.6c-74.4,100.4-74.4,167.4,0,200.9"/>
<path class="st55" d="M174.5,209.9C1.3,443.7,1.3,599.6,174.5,677.5"/>
<path class="st56" d="M174.5,483.5c-71.8,97-71.8,161.6,0,194"/>
<path class="st57" d="M174.5,57.5c-229.6,310-229.6,516.7,0,620"/>
<path class="st58" d="M174.5,300c-139.8,188.8-139.8,314.6,0,377.5"/>
<path class="st59" d="M174.5,462.8c-79.5,107.4-79.5,179,0,214.7"/>
<path class="st60" d="M174.5,597.8c-29.5,39.8-29.5,66.4,0,79.7"/>
<path class="st61" d="M174.5,400.4C71.8,539,71.8,631.3,174.5,677.5"/>
<path class="st62" d="M174.5,396.9c20.5-27.7,20.5-46.2,0-55.4"/>
<path class="st63" d="M174.5,355.4c5.1-6.9,5.1-11.5,0-13.9"/>
<path class="st64" d="M174.5,403.9c23.1-31.2,23.1-52,0-62.3"/>
<path class="st65" d="M174.5,341.5L174.5,341.5"/>
<path class="st24" d="M174.5,525.1c68-91.8,68-153,0-183.6"/>
<path class="st66" d="M174.5,313.8c-10.3,13.9-10.3,23.1,0,27.7"/>
<path class="st47" d="M174.5,677.5c124.4-168,124.4-280,0-336"/>
<path class="st67" d="M174.5,296.5c-16.7,22.5-16.7,37.5,0,45"/>
<path class="st62" d="M174.5,403.9c23.1-31.2,23.1-52,0-62.3"/>
<path class="st68" d="M174.5,483.5c52.6-71,52.6-118.3,0-142"/>
<path class="st65" d="M174.5,300c-15.4,20.8-15.4,34.6,0,41.6"/>
<path class="st69" d="M174.5,518.2c65.4-88.3,65.4-147.2,0-176.6"/>
<path class="st7" d="M174.5,525.1c84.7-114.3,84.7-190.5,0-228.6"/>
<path class="st50" d="M174.5,341.5c16.7-22.5,16.7-37.5,0-45"/>
<path class="st70" d="M174.5,341.5c16.7-22.5,16.7-37.5,0-45"/>
<path class="st7" d="M174.5,421.2c46.2-62.3,46.2-103.9,0-124.7"/>
<path class="st8" d="M174.5,483.5c69.3-93.5,69.3-155.9,0-187"/>
<path class="st71" d="M174.5,597.8c111.6-150.7,111.6-251.1,0-301.3"/>
<path class="st72" d="M174.5,518.2c82.1-110.8,82.1-184.7,0-221.7"/>
<path class="st73" d="M174.5,417.7c44.9-60.6,44.9-101,0-121.2"/>
<path class="st74" d="M174.5,539c43.6-58.9,43.6-98.1,0-117.8"/>
<path class="st7" d="M174.5,525.1c38.5-52,38.5-86.6,0-103.9"/>
<path class="st7" d="M174.5,355.4c-24.4,32.9-24.4,54.8,0,65.8"/>
<path class="st8" d="M174.5,403.9c-6.4,8.7-6.4,14.4,0,17.3"/>
<path class="st7" d="M174.5,514.7c34.6-46.8,34.6-77.9,0-93.5"/>
<path class="st8" d="M174.5,313.8c-39.8,53.7-39.8,89.5,0,107.4"/>
<path class="st75" d="M174.5,677.5c94.9-128.2,94.9-213.6,0-256.3"/>
<path class="st7" d="M174.5,476.6c20.5-27.7,20.5-46.2,0-55.4"/>
<path class="st8" d="M174.5,442c7.7-10.4,7.7-17.3,0-20.8"/>
<path class="st76" d="M174.5,500.9c29.5-39.8,29.5-66.4,0-79.7"/>
<path class="st8" d="M174.5,417.7c-1.3,1.7-1.3,2.9,0,3.5"/>
<path class="st8" d="M174.5,400.4c-7.7,10.4-7.7,17.3,0,20.8"/>
<path class="st34" d="M174.5,539c23.1-31.2,23.1-52,0-62.3"/>
<path class="st77" d="M174.5,514.7c14.1-19.1,14.1-31.8,0-38.1"/>
<path class="st78" d="M174.5,313.8c-60.3,81.4-60.3,135.7,0,162.8"/>
<path class="st64" d="M174.5,677.5c74.4-100.4,74.4-167.4,0-200.9"/>
<path class="st79" d="M174.5,341.5c-50,67.5-50,112.6,0,135.1"/>
<path class="st48" d="M174.5,57.5c-155.2,209.6-155.2,349.3,0,419.1"/>
<path class="st80" d="M174.5,300c-65.4,88.3-65.4,147.2,0,176.6"/>
<path class="st48" d="M174.5,462.8c-5.1,6.9-5.1,11.5,0,13.9"/>
<path class="st81" d="M174.5,597.8c44.9-60.6,44.9-101,0-121.2"/>
<path class="st7" d="M174.5,421.2c-7.7,10.4-7.7,17.3,0,20.8"/>
<path class="st7" d="M174.5,403.9c-14.1,19.1-14.1,31.8,0,38.1"/>
<path class="st12" d="M174.5,345c-35.9,48.5-35.9,80.8,0,97"/>
<path class="st7" d="M174.5,525.1c30.8-41.6,30.8-69.3,0-83.1"/>
<path class="st46" d="M174.5,296.5c-53.9,72.7-53.9,121.2,0,145.5"/>
<path class="st82" d="M174.5,403.9c-14.1,19.1-14.1,31.8,0,38.1"/>
<path class="st7" d="M174.5,483.5c15.4-20.8,15.4-34.6,0-41.6"/>
<path class="st8" d="M174.5,286.1c-57.7,77.9-57.7,129.9,0,155.9"/>
<path class="st83" d="M174.5,417.7c-9,12.1-9,20.2,0,24.2"/>
<path class="st7" d="M174.5,421.2c78.3-105.6,78.3-176.1,0-211.3"/>
<path class="st84" d="M174.5,324.2c42.3-57.2,42.3-95.3,0-114.3"/>
<path class="st40" d="M174.5,341.5c48.7-65.8,48.7-109.7,0-131.6"/>
<path class="st85" d="M174.5,677.5c173.2-233.8,173.2-389.7,0-467.6"/>
<path class="st86" d="M174.5,341.5c48.7-65.8,48.7-109.7,0-131.6"/>
<path class="st84" d="M174.5,403.9c71.8-97,71.8-161.6,0-194"/>
<path class="st87" d="M174.5,500.9c107.8-145.5,107.8-242.5,0-290.9"/>
<path class="st78" d="M174.5,300c33.4-45,33.4-75,0-90.1"/>
<path class="st88" d="M174.5,462.8c93.6-126.4,93.6-210.7,0-252.8"/>
<path class="st45" d="M174.5,518.2c114.2-154.1,114.2-256.9,0-308.3"/>
<path class="st84" d="M174.5,417.7c77-103.9,77-173.2,0-207.8"/>
<path class="st89" d="M174.5,400.4c70.6-95.3,70.6-158.8,0-190.5"/>
<path class="st7" d="M174.5,525.1c44.9-60.6,44.9-101,0-121.2"/>
<path class="st90" d="M174.5,403.9L174.5,403.9"/>
<path class="st7" d="M174.5,514.7c41.1-55.4,41.1-92.4,0-110.8"/>
<path class="st7" d="M174.5,345c-21.8,29.4-21.8,49.1,0,58.9"/>
<path class="st7" d="M174.5,341.5c-23.1,31.2-23.1,52,0,62.3"/>
<path class="st90" d="M174.5,525.1c44.9-60.6,44.9-101,0-121.2"/>
<path class="st90" d="M174.5,341.5c-23.1,31.2-23.1,52,0,62.3"/>
<path class="st90" d="M174.5,57.5c-128.3,173.2-128.3,288.6,0,346.4"/>
<path class="st7" d="M174.5,300c-38.5,52-38.5,86.6,0,103.9"/>
<path class="st91" d="M174.5,355.4c-47.5,64.1-47.5,106.8,0,128.2"/>
<path class="st37" d="M174.5,341.5c-52.6,71-52.6,118.3,0,142"/>
<path class="st7" d="M174.5,476.6c-2.6,3.5-2.6,5.8,0,6.9"/>
<path class="st92" d="M174.5,442c-15.4,20.8-15.4,34.6,0,41.6"/>
<path class="st92" d="M174.5,209.9c-101.3,136.8-101.3,228,0,273.6"/>
<path class="st93" d="M174.5,300c-68,91.8-68,153,0,183.6"/>
<path class="st92" d="M174.5,462.8c-7.7,10.4-7.7,17.3,0,20.8"/>
<path class="st8" d="M174.5,341.5c20.5-27.7,20.5-46.2,0-55.4"/>
<path class="st94" d="M174.5,476.6c70.6-95.3,70.6-158.8,0-190.5"/>
<path class="st7" d="M174.5,442c57.7-77.9,57.7-129.9,0-155.9"/>
<path class="st8" d="M174.5,209.9c-28.2,38.1-28.2,63.5,0,76.2"/>
<path class="st8" d="M174.5,462.8c65.4-88.3,65.4-147.2,0-176.6"/>
<path class="st7" d="M174.5,518.2c86-116,86-193.4,0-232.1"/>
<path class="st7" d="M174.5,417.7c48.7-65.8,48.7-109.7,0-131.6"/>
<path class="st7" d="M174.5,421.2c-29.5,39.8-29.5,66.4,0,79.7"/>
<path class="st95" d="M174.5,514.7c5.1-6.9,5.1-11.5,0-13.9"/>
<path class="st96" d="M174.5,341.5c-59,79.7-59,132.8,0,159.3"/>
<path class="st97" d="M174.5,341.5c-59,79.7-59,132.8,0,159.3"/>
<path class="st8" d="M174.5,476.6c-9,12.1-9,20.2,0,24.2"/>
<path class="st98" d="M174.5,209.9c-107.8,145.5-107.8,242.5,0,290.9"/>
<path class="st99" d="M174.5,597.8c35.9-48.5,35.9-80.8,0-97"/>
<path class="st100" d="M174.5,539c178.3-240.7,178.3-401.2,0-481.5"/>
<path class="st101" d="M174.5,421.2c134.7-181.8,134.7-303.1,0-363.7"/>
<path class="st102" d="M174.5,514.7c169.3-228.6,169.3-381,0-457.2"/>
<path class="st57" d="M174.5,341.5c105.2-142,105.2-236.7,0-284"/>
<path class="st103" d="M174.5,677.5c229.6-310,229.6-516.7,0-620"/>
<path class="st32" d="M174.5,421.2c134.7-181.8,134.7-303.1,0-363.7"/>
<path class="st41" d="M174.5,442c142.4-192.2,142.4-320.4,0-384.5"/>
<path class="st54" d="M174.5,209.9c56.4-76.2,56.4-127,0-152.4"/>
<path class="st32" d="M174.5,483.5c157.8-213,157.8-355,0-426"/>
<path class="st97" d="M174.5,300c89.8-121.2,89.8-202,0-242.5"/>
<path class="st59" d="M174.5,421.2c44.9-60.6,44.9-101,0-121.2"/>
<path class="st104" d="M174.5,355.4c20.5-27.7,20.5-46.2,0-55.4"/>
<path class="st105" d="M174.5,403.9c38.5-52,38.5-86.6,0-103.9"/>
<path class="st59" d="M174.5,324.2c9-12.1,9-20.2,0-24.2"/>
<path class="st106" d="M174.5,341.5c15.4-20.8,15.4-34.6,0-41.6"/>
<path class="st107" d="M174.5,525.1c83.4-112.6,83.4-187.6,0-225.1"/>
<path class="st108" d="M174.5,677.5c139.8-188.8,139.8-314.6,0-377.5"/>
<path class="st65" d="M174.5,341.5c15.4-20.8,15.4-34.6,0-41.6"/>
<path class="st7" d="M174.5,442c52.6-71,52.6-118.3,0-142"/>
<path class="st39" d="M174.5,209.9c-33.4,45-33.4,75,0,90.1"/>
<path class="st103" d="M174.5,500.9c74.4-100.4,74.4-167.4,0-200.9"/>
<path class="st109" d="M174.5,539c28.2-38.1,28.2-63.5,0-76.2"/>
<path class="st7" d="M174.5,421.2c-15.4,20.8-15.4,34.6,0,41.6"/>
<path class="st110" d="M174.5,355.4c-39.8,53.7-39.8,89.5,0,107.4"/>
<path class="st110" d="M174.5,324.2c-51.3,69.3-51.3,115.5,0,138.5"/>
<path class="st87" d="M174.5,514.7c19.2-26,19.2-43.3,0-52"/>
<path class="st110" d="M174.5,421.2c-15.4,20.8-15.4,34.6,0,41.6"/>
<path class="st7" d="M174.5,500.9c14.1-19.1,14.1-31.8,0-38.1"/>
<path class="st23" d="M174.5,57.5c-150.1,202.6-150.1,337.7,0,405.3"/>
<path class="st110" d="M174.5,300c-60.3,81.4-60.3,135.7,0,162.8"/>
<path class="st111" d="M174.5,597.8c50-67.5,50-112.6,0-135.1"/>
<path class="st99" d="M174.5,518.2c20.5-27.7,20.5-46.2,0-55.4"/>
<path class="st7" d="M174.5,417.7c-16.7,22.5-16.7,37.5,0,45"/>
<path class="st7" d="M174.5,345c-93.6,126.4-93.6,210.7,0,252.8"/>
<path class="st112" d="M174.5,341.5c-94.9,128.2-94.9,213.6,0,256.3"/>
<path class="st93" d="M174.5,313.8c-105.2,142-105.2,236.7,0,284"/>
<path class="st113" d="M174.5,677.5c29.5-39.8,29.5-66.4,0-79.7"/>
<path class="st114" d="M174.5,341.5c-94.9,128.2-94.9,213.6,0,256.3"/>
<path class="st115" d="M174.5,421.2c-65.4,88.3-65.4,147.2,0,176.6"/>
<path class="st83" d="M174.5,476.6c-44.9,60.6-44.9,101,0,121.2"/>
<path class="st116" d="M174.5,442c-57.7,77.9-57.7,129.9,0,155.9"/>
<path class="st8" d="M174.5,403.9c-71.8,97-71.8,161.6,0,194"/>
<path class="st117" d="M174.5,500.9c-35.9,48.5-35.9,80.8,0,97"/>
<path class="st53" d="M174.5,57.5c-200.1,270.2-200.1,450.3,0,540.3"/>
<path class="st118" d="M174.5,400.4c-73.1,98.7-73.1,164.5,0,197.4"/>
<path class="st7" d="M174.5,525.1c2.6-3.5,2.6-5.8,0-6.9"/>
<path class="st7" d="M174.5,421.2c-35.9,48.5-35.9,80.8,0,97"/>
<path class="st7" d="M174.5,324.2c-71.8,97-71.8,161.6,0,194"/>
<path class="st8" d="M174.5,345c-64.1,86.6-64.1,144.3,0,173.2"/>
<path class="st113" d="M174.5,677.5c59-79.7,59-132.8,0-159.3"/>
<path class="st7" d="M174.5,421.2c-35.9,48.5-35.9,80.8,0,97"/>
<path class="st7" d="M174.5,483.5c-12.8,17.3-12.8,28.9,0,34.6"/>
<path class="st73" d="M174.5,514.7c35.9-48.5,35.9-80.8,0-97"/>
<path class="st7" d="M174.5,525.1c39.8-53.7,39.8-89.5,0-107.4"/>
<path class="st119" d="M174.5,313.8c-38.5,52-38.5,86.6,0,103.9"/>
<path class="st8" d="M174.5,421.2c1.3-1.7,1.3-2.9,0-3.5"/>
<path class="st7" d="M174.5,209.9c-77,103.9-77,173.2,0,207.8"/>
<path class="st120" d="M174.5,403.9c1.3-1.7,1.3-2.9,0-3.5"/>
<path class="st29" d="M174.5,677.5c102.6-138.5,102.6-230.9,0-277.1"/>
<path class="st7" d="M174.5,296.5c-38.5,52-38.5,86.6,0,103.9"/>
<path class="st56" d="M174.5,442c15.4-20.8,15.4-34.6,0-41.6"/>
<path class="st42" d="M174.5,209.9c-70.6,95.3-70.6,158.8,0,190.5"/>
<path class="st56" d="M174.5,483.5c30.8-41.6,30.8-69.3,0-83.1"/>
<path class="st97" d="M174.5,300c-37.2,50.2-37.2,83.7,0,100.4"/>
<circle class="st121" cx="174.5" cy="539" r="3.5"/>
<circle class="st121" cx="174.5" cy="525.1" r="3.5"/>
<circle class="st121" cx="174.5" cy="421.2" r="3.5"/>
<circle class="st121" cx="174.5" cy="396.9" r="3.5"/>
<circle class="st121" cx="174.5" cy="355.4" r="3.5"/>
<circle class="st121" cx="174.5" cy="403.9" r="3.5"/>
<circle class="st121" cx="174.5" cy="324.2" r="3.5"/>
<circle class="st121" cx="174.5" cy="514.7" r="3.5"/>
<circle class="st121" cx="174.5" cy="345" r="3.5"/>
<circle class="st121" cx="174.5" cy="341.5" r="3.5"/>
<circle class="st121" cx="174.5" cy="525.1" r="3.5"/>
<circle class="st121" cx="174.5" cy="313.8" r="3.5"/>
<circle class="st121" cx="174.5" cy="677.5" r="3.5"/>
<circle class="st121" cx="174.5" cy="341.5" r="3.5"/>
<circle class="st121" cx="174.5" cy="296.5" r="3.5"/>
<circle class="st121" cx="174.5" cy="421.2" r="3.5"/>
<circle class="st121" cx="174.5" cy="476.6" r="3.5"/>
<circle class="st121" cx="174.5" cy="442" r="3.5"/>
<circle class="st121" cx="174.5" cy="209.9" r="3.5"/>
<circle class="st121" cx="174.5" cy="403.9" r="3.5"/>
<circle class="st121" cx="174.5" cy="483.5" r="3.5"/>
<circle class="st121" cx="174.5" cy="286.1" r="3.5"/>
<circle class="st121" cx="174.5" cy="500.9" r="3.5"/>
<circle class="st121" cx="174.5" cy="57.5" r="3.5"/>
<circle class="st121" cx="174.5" cy="300" r="3.5"/>
<circle class="st121" cx="174.5" cy="462.8" r="3.5"/>
<circle class="st121" cx="174.5" cy="597.8" r="3.5"/>
<circle class="st121" cx="174.5" cy="518.2" r="3.5"/>
<circle class="st121" cx="174.5" cy="417.7" r="3.5"/>
<circle class="st121" cx="174.5" cy="400.4" r="3.5"/>
</svg>
