<?xml version="1.0" encoding="utf-8"?>
<!-- Generator: Adobe Illustrator 24.0.1, SVG Export Plug-In . SVG Version: 6.00 Build 0)  -->
<svg version="1.1" id="v1" xmlns="http://www.w3.org/2000/svg" xmlns:xlink="http://www.w3.org/1999/xlink" x="0px" y="0px"
	 viewBox="0 0 474.5 735" style="enable-background:new 0 0 474.5 735;" xml:space="preserve">
<style type="text/css">
	.st0{fill:none;stroke:#969696;stroke-width:0.5;}
	.st1{font-family:'Helvetica';}
	.st2{font-size:12px;}
	.st3{fill:none;stroke:#FFFFFF;stroke-width:4.5;}
	.st4{fill:none;stroke:#E74848;stroke-width:2.5;stroke-opacity:0.4;}
	.st5{fill:none;stroke:#2626F3;stroke-width:2.5;stroke-opacity:0.4;}
	.st6{fill:none;stroke:#D18A8A;stroke-width:2.5;stroke-opacity:0.4;}
	.st7{fill:none;stroke:#FF0000;stroke-width:2.5;stroke-opacity:0.4;}
	.st8{fill:none;stroke:#0000FF;stroke-width:2.5;stroke-opacity:0.4;}
	.st9{fill:none;stroke:#7777D8;stroke-width:2.5;stroke-opacity:0.4;}
	.st10{fill:none;stroke:#0303FE;stroke-width:2.5;stroke-opacity:0.4;}
	.st11{fill:none;stroke:#E55050;stroke-width:2.5;stroke-opacity:0.4;}
	.st12{fill:none;stroke:#EC3939;stroke-width:2.5;stroke-opacity:0.4;}
	.st13{fill:none;stroke:#EC3B3B;stroke-width:2.5;stroke-opacity:0.4;}
	.st14{fill:none;stroke:#FD0606;stroke-width:2.5;stroke-opacity:0.4;}
	.st15{fill:none;stroke:#5959E2;stroke-width:2.5;stroke-opacity:0.4;}
	.st16{fill:none;stroke:#6666DD;stroke-width:2.5;stroke-opacity:0.4;}
	.st17{fill:none;stroke:#8D8DD0;stroke-width:2.5;stroke-opacity:0.4;}
	.st18{fill:none;stroke:#8989D2;stroke-width:2.5;stroke-opacity:0.4;}
	.st19{fill:none;stroke:#1414F9;stroke-width:2.5;stroke-opacity:0.4;}
	.st20{fill:none;stroke:#3838ED;stroke-width:2.5;stroke-opacity:0.4;}
	.st21{fill:none;stroke:#9F9FCA;stroke-width:2.5;stroke-opacity:0.4;}
	.st22{fill:none;stroke:#3636ED;stroke-width:2.5;stroke-opacity:0.4;}
	.st23{fill:none;stroke:#8A8AD1;stroke-width:2.5;stroke-opacity:0.4;}
	.st24{fill:none;stroke:#C9A2A2;stroke-width:2.5;stroke-opacity:0.4;}
	.st25{fill:none;stroke:#CC9999;stroke-width:2.5;stroke-opacity:0.4;}
	.st26{fill:none;stroke:#AEAEC5;stroke-width:2.5;stroke-opacity:0.4;}
	.st27{fill:none;stroke:#F22929;stroke-width:2.5;stroke-opacity:0.4;}
	.st28{fill:none;stroke:#A8A8C7;stroke-width:2.5;stroke-opacity:0.4;}
	.st29{fill:none;stroke:#D67B7B;stroke-width:2.5;stroke-opacity:0.4;}
	.st30{fill:none;stroke:#4747E8;stroke-width:2.5;stroke-opacity:0.4;}
	.st31{fill:none;stroke:#2D2DF0;stroke-width:2.5;stroke-opacity:0.4;}
	.st32{fill:none;stroke:#2A2AF1;stroke-width:2.5;stroke-opacity:0.4;}
	.st33{fill:none;stroke:#2020F5;stroke-width:2.5;stroke-opacity:0.4;}
	.st34{fill:none;stroke:#CF9090;stroke-width:2.5;stroke-opacity:0.4;}
	.st35{fill:none;stroke:#F02F2F;stroke-width:2.5;stroke-opacity:0.4;}
	.st36{fill:none;stroke:#6565DE;stroke-width:2.5;stroke-opacity:0.4;}
	.st37{fill:none;stroke:#8686D3;stroke-width:2.5;stroke-opacity:0.4;}
	.st38{fill:none;stroke:#DB6C6C;stroke-width:2.5;stroke-opacity:0.4;}
	.st39{fill:none;stroke:#AAAAC7;stroke-width:2.5;stroke-opacity:0.4;}
	.st40{fill:none;stroke:#ADADC6;stroke-width:2.5;stroke-opacity:0.4;}
	.st41{fill:none;stroke:#D48181;stroke-width:2.5;stroke-opacity:0.4;}
	.st42{fill:none;stroke:#A2A2C9;stroke-width:2.5;stroke-opacity:0.4;}
	.st43{fill:none;stroke:#E05F5F;stroke-width:2.5;stroke-opacity:0.4;}
	.st44{fill:none;stroke:#2121F4;stroke-width:2.5;stroke-opacity:0.4;}
	.st45{fill:none;stroke:#E25757;stroke-width:2.5;stroke-opacity:0.4;}
	.st46{fill:none;stroke:#9E9ECB;stroke-width:2.5;stroke-opacity:0.4;}
	.st47{fill:none;stroke:#CF9292;stroke-width:2.5;stroke-opacity:0.4;}
	.st48{fill:none;stroke:#9696CD;stroke-width:2.5;stroke-opacity:0.4;}
	.st49{fill:none;stroke:#F51E1E;stroke-width:2.5;stroke-opacity:0.4;}
	.st50{fill:none;stroke:#4D4DE6;stroke-width:2.5;stroke-opacity:0.4;}
	.st51{fill:none;stroke:#CC9B9B;stroke-width:2.5;stroke-opacity:0.4;}
	.st52{fill:none;stroke:#4545E8;stroke-width:2.5;stroke-opacity:0.4;}
	.st53{fill:none;stroke:#5454E3;stroke-width:2.5;stroke-opacity:0.4;}
	.st54{fill:none;stroke:#8383D4;stroke-width:2.5;stroke-opacity:0.4;}
	.st55{fill:none;stroke:#7272D9;stroke-width:2.5;stroke-opacity:0.4;}
	.st56{fill:none;stroke:#2929F2;stroke-width:2.5;stroke-opacity:0.4;}
	.st57{fill:none;stroke:#7171DA;stroke-width:2.5;stroke-opacity:0.4;}
	.st58{fill:none;stroke:#1E1EF5;stroke-width:2.5;stroke-opacity:0.4;}
	.st59{fill:none;stroke:#6E6EDB;stroke-width:2.5;stroke-opacity:0.4;}
	.st60{fill:none;stroke:#C8A7A7;stroke-width:2.5;stroke-opacity:0.4;}
	.st61{fill:none;stroke:#5D5DE0;stroke-width:2.5;stroke-opacity:0.4;}
	.st62{fill:none;stroke:#6F6FDA;stroke-width:2.5;stroke-opacity:0.4;}
	.st63{fill:none;stroke:#D28989;stroke-width:2.5;stroke-opacity:0.4;}
	.st64{fill:none;stroke:#C8A5A5;stroke-width:2.5;stroke-opacity:0.4;}
	.st65{fill:none;stroke:#B3B3C4;stroke-width:2.5;stroke-opacity:0.4;}
	.st66{fill:none;stroke:#C4B1B1;stroke-width:2.5;stroke-opacity:0.4;}
	.st67{fill:none;stroke:#E35656;stroke-width:2.5;stroke-opacity:0.4;}
	.st68{fill:none;stroke:#DE6363;stroke-width:2.5;stroke-opacity:0.4;}
	.st69{fill:none;stroke:#EA3F3F;stroke-width:2.5;stroke-opacity:0.4;}
	.st70{fill:none;stroke:#7878D7;stroke-width:2.5;stroke-opacity:0.4;}
	.st71{fill:none;stroke:#D97474;stroke-width:2.5;stroke-opacity:0.4;}
	.st72{fill:none;stroke:#D97272;stroke-width:2.5;stroke-opacity:0.4;}
	.st73{fill:none;stroke:#E54E4E;stroke-width:2.5;stroke-opacity:0.4;}
	.st74{fill:none;stroke:#FF0202;stroke-width:2.5;stroke-opacity:0.4;}
	.st75{fill:none;stroke:#F02D2D;stroke-width:2.5;stroke-opacity:0.4;}
	.st76{fill:none;stroke:#FC0B0B;stroke-width:2.5;stroke-opacity:0.4;}
	.st77{fill:none;stroke:#D18C8C;stroke-width:2.5;stroke-opacity:0.4;}
	.st78{fill:none;stroke:#9999CC;stroke-width:2.5;stroke-opacity:0.4;}
	.st79{fill:none;stroke:#6868DD;stroke-width:2.5;stroke-opacity:0.4;}
	.st80{fill:none;stroke:#4B4BE6;stroke-width:2.5;stroke-opacity:0.4;}
	.st81{fill:none;stroke:#DA6F6F;stroke-width:2.5;stroke-opacity:0.4;}
	.st82{fill:none;stroke:#1515F8;stroke-width:2.5;stroke-opacity:0.4;}
	.st83{fill:none;stroke:#7D7DD6;stroke-width:2.5;stroke-opacity:0.4;}
	.st84{fill:none;stroke:#5050E5;stroke-width:2.5;stroke-opacity:0.4;}
	.st85{fill:none;stroke:#DC6B6B;stroke-width:2.5;stroke-opacity:0.4;}
	.st86{fill:none;stroke:#B0B0C5;stroke-width:2.5;stroke-opacity:0.4;}
	.st87{fill:none;stroke:#D87777;stroke-width:2.5;stroke-opacity:0.4;}
	.st88{fill:none;stroke:#6363DE;stroke-width:2.5;stroke-opacity:0.4;}
	.st89{fill:none;stroke:#CA9F9F;stroke-width:2.5;stroke-opacity:0.4;}
	.st90{fill:none;stroke:#1212F9;stroke-width:2.5;stroke-opacity:0.4;}
	.st91{fill:none;stroke:#9595CE;stroke-width:2.5;stroke-opacity:0.4;}
	.st92{fill:none;stroke:#0202FF;stroke-width:2.5;stroke-opacity:0.4;}
	.st93{fill:none;stroke:#7474D9;stroke-width:2.5;stroke-opacity:0.4;}
	.st94{fill:none;stroke:#E45151;stroke-width:2.5;stroke-opacity:0.4;}
	.st95{fill:none;stroke:#FA0F0F;stroke-width:2.5;stroke-opacity:0.4;}
	.st96{fill:none;stroke:#5F5FE0;stroke-width:2.5;stroke-opacity:0.4;}
	.st97{fill:none;stroke:#6060DF;stroke-width:2.5;stroke-opacity:0.4;}
	.st98{fill:none;stroke:#3030EF;stroke-width:2.5;stroke-opacity:0.4;}
	.st99{fill:none;stroke:#CAA1A1;stroke-width:2.5;stroke-opacity:0.4;}
	.st100{fill:none;stroke:#D48383;stroke-width:2.5;stroke-opacity:0.4;}
	.st101{fill:none;stroke:#F42121;stroke-width:2.5;stroke-opacity:0.4;}
	.st102{fill:none;stroke:#D67D7D;stroke-width:2.5;stroke-opacity:0.4;}
	.st103{fill:none;stroke:#CB9C9C;stroke-width:2.5;stroke-opacity:0.4;}
	.st104{fill:none;stroke:#CD9898;stroke-width:2.5;stroke-opacity:0.4;}
	.st105{fill:none;stroke:#C5B0B0;stroke-width:2.5;stroke-opacity:0.4;}
	.st106{fill:none;stroke:#ABABC6;stroke-width:2.5;stroke-opacity:0.4;}
	.st107{fill:none;stroke:#C5AEAE;stroke-width:2.5;stroke-opacity:0.4;}
	.st108{fill:none;stroke:#CB9E9E;stroke-width:2.5;stroke-opacity:0.4;}
	.st109{fill:none;stroke:#D38686;stroke-width:2.5;stroke-opacity:0.4;}
	.st110{fill:none;stroke:#1717F8;stroke-width:2.5;stroke-opacity:0.4;}
	.st111{fill:none;stroke:#DE6565;stroke-width:2.5;stroke-opacity:0.4;}
	.st112{fill:none;stroke:#3B3BEC;stroke-width:2.5;stroke-opacity:0.4;}
	.st113{fill:none;stroke:#C7AAAA;stroke-width:2.5;stroke-opacity:0.4;}
	.st114{fill:none;stroke:#5C5CE1;stroke-width:2.5;stroke-opacity:0.4;}
	.st115{fill:none;stroke:#F12A2A;stroke-width:2.5;stroke-opacity:0.4;}
	.st116{fill:none;stroke:#8C8CD1;stroke-width:2.5;stroke-opacity:0.4;}
	.st117{fill:none;stroke:#9B9BCC;stroke-width:2.5;stroke-opacity:0.4;}
	.st118{fill:none;stroke:#6969DC;stroke-width:2.5;stroke-opacity:0.4;}
	.st119{fill:none;stroke:#F32626;stroke-width:2.5;stroke-opacity:0.4;}
	.st120{fill:none;stroke:#F81717;stroke-width:2.5;stroke-opacity:0.4;}
	.st121{fill:#646464;stroke:#FFFFFF;stroke-width:1.5;}
</style>
<line class="st0" x1="174.5" y1="0" x2="174.5" y2="735"/>
<line class="st0" x1="174.5" y1="593.5" x2="354.5" y2="593.5"/>
<line class="st0" x1="174.5" y1="397.5" x2="354.5" y2="397.5"/>
<line class="st0" x1="174.5" y1="633.5" x2="354.5" y2="633.5"/>
<line class="st0" x1="174.5" y1="305.5" x2="354.5" y2="305.5"/>
<line class="st0" x1="174.5" y1="143.5" x2="354.5" y2="143.5"/>
<line class="st0" x1="174.5" y1="57.5" x2="354.5" y2="57.5"/>
<line class="st0" x1="174.5" y1="437.5" x2="354.5" y2="437.5"/>
<line class="st0" x1="174.5" y1="527.5" x2="354.5" y2="527.5"/>
<line class="st0" x1="174.5" y1="597.5" x2="354.5" y2="597.5"/>
<line class="st0" x1="174.5" y1="435.5" x2="354.5" y2="435.5"/>
<line class="st0" x1="174.5" y1="195.5" x2="354.5" y2="195.5"/>
<line class="st0" x1="174.5" y1="385.5" x2="354.5" y2="385.5"/>
<line class="st0" x1="174.5" y1="579.5" x2="354.5" y2="579.5"/>
<line class="st0" x1="174.5" y1="293.5" x2="354.5" y2="293.5"/>
<line class="st0" x1="174.5" y1="675.5" x2="354.5" y2="675.5"/>
<line class="st0" x1="174.5" y1="257.5" x2="354.5" y2="257.5"/>
<line class="st0" x1="174.5" y1="629.5" x2="354.5" y2="629.5"/>
<line class="st0" x1="174.5" y1="505.5" x2="354.5" y2="505.5"/>
<line class="st0" x1="174.5" y1="459.5" x2="354.5" y2="459.5"/>
<line class="st0" x1="174.5" y1="677.5" x2="354.5" y2="677.5"/>
<line class="st0" x1="174.5" y1="105.5" x2="354.5" y2="105.5"/>
<line class="st0" x1="174.5" y1="559.5" x2="354.5" y2="559.5"/>
<line class="st0" x1="174.5" y1="251.5" x2="354.5" y2="251.5"/>
<line class="st0" x1="174.5" y1="661.5" x2="354.5" y2="661.5"/>
<line class="st0" x1="174.5" y1="255.5" x2="354.5" y2="255.5"/>
<line class="st0" x1="174.5" y1="483.5" x2="354.5" y2="483.5"/>
<line class="st0" x1="174.5" y1="445.5" x2="354.5" y2="445.5"/>
<line class="st0" x1="174.5" y1="537.5" x2="354.5" y2="537.5"/>
<line class="st0" x1="174.5" y1="603.5" x2="354.5" y2="603.5"/>
<line class="st0" x1="174.5" y1="461.5" x2="354.5" y2="461.5"/>
<text transform="matrix(1 0 0 1 354.4722 596.5)" class="st1 st2">anthropology</text>
<text transform="matrix(1 0 0 1 354.4722 400.5)" class="st1 st2">archaeology</text>
<text transform="matrix(1 0 0 1 354.4722 636.5)" class="st1 st2">art history</text>
<text transform="matrix(1 0 0 1 354.4722 308.5)" class="st1 st2">astronomy</text>
<text transform="matrix(1 0 0 1 354.4722 146.5)" class="st1 st2">biochemistry</text>
<text transform="matrix(1 0 0 1 354.4722 60.5)" class="st1 st2">chemistry</text>
<text transform="matrix(1 0 0 1 354.4722 440.5)" class="st1 st2">classics</text>
<text transform="matrix(1 0 0 1 354.4722 530.5)" class="st1 st2">communications</text>
<text transform="matrix(1 0 0 1 354.4722 600.5)" class="st1 st2">comparative literature</text>
<text transform="matrix(1 0 0 1 354.4722 438.5)" class="st1 st2">computer science</text>
<text transform="matrix(1 0 0 1 354.4722 198.5)" class="st1 st2">earth sciences</text>
<text transform="matrix(1 0 0 1 354.4722 388.5)" class="st1 st2">economics</text>
<text transform="matrix(1 0 0 1 354.4722 582.5)" class="st1 st2">education</text>
<text transform="matrix(1 0 0 1 354.4722 296.5)" class="st1 st2">engineering</text>
<text transform="matrix(1 0 0 1 354.4722 678.5)" class="st1 st2">english literature</text>
<text transform="matrix(1 0 0 1 354.4722 260.5)" class="st1 st2">evolutionary biology</text>
<text transform="matrix(1 0 0 1 354.4722 632.5)" class="st1 st2">history</text>
<text transform="matrix(1 0 0 1 354.4722 508.5)" class="st1 st2">linguistics</text>
<text transform="matrix(1 0 0 1 354.4722 462.5)" class="st1 st2">mathematics</text>
<text transform="matrix(1 0 0 1 354.4722 680.5)" class="st1 st2">middle eastern studies</text>
<text transform="matrix(1 0 0 1 354.4722 108.5)" class="st1 st2">molecular biology</text>
<text transform="matrix(1 0 0 1 354.4722 562.5)" class="st1 st2">music</text>
<text transform="matrix(1 0 0 1 354.4722 254.5)" class="st1 st2">neuroscience</text>
<text transform="matrix(1 0 0 1 354.4722 664.5)" class="st1 st2">philosophy</text>
<text transform="matrix(1 0 0 1 354.4722 258.5)" class="st1 st2">physics</text>
<text transform="matrix(1 0 0 1 354.4722 486.5)" class="st1 st2">political science</text>
<text transform="matrix(1 0 0 1 354.4722 448.5)" class="st1 st2">psychology</text>
<text transform="matrix(1 0 0 1 354.4722 540.5)" class="st1 st2">sociology</text>
<text transform="matrix(1 0 0 1 354.4722 606.5)" class="st1 st2">spanish literature</text>
<text transform="matrix(1 0 0 1 354.4722 464.5)" class="st1 st2">statistics</text>
<text transform="matrix(6.123234e-17 -1 1 6.123234e-17 170.4722 47.5)" class="st1 st2">HW-OC</text>
<path class="st3" d="M174.5,633.5c14.8-20,14.8-33.3,0-40"/>
<path class="st3" d="M174.5,435.5c-58.5,79-58.5,131.7,0,158"/>
<path class="st3" d="M174.5,579.5c-5.2,7-5.2,11.7,0,14"/>
<path class="st3" d="M174.5,105.5c-180.7,244-180.7,406.7,0,488"/>
<path class="st3" d="M174.5,559.5c-12.6,17-12.6,28.3,0,34"/>
<path class="st3" d="M174.5,661.5c25.2-34,25.2-56.7,0-68"/>
<path class="st3" d="M174.5,255.5c-125.2,169-125.2,281.7,0,338"/>
<path class="st3" d="M174.5,633.5c87.4-118,87.4-196.7,0-236"/>
<path class="st3" d="M174.5,143.5c-94.1,127-94.1,211.7,0,254"/>
<path class="st3" d="M174.5,57.5c-125.9,170-125.9,283.3,0,340"/>
<path class="st3" d="M174.5,579.5c67.4-91,67.4-151.7,0-182"/>
<path class="st3" d="M174.5,675.5c103-139,103-231.7,0-278"/>
<path class="st3" d="M174.5,257.5c-51.9,70-51.9,116.7,0,140"/>
<path class="st3" d="M174.5,505.5c40-54,40-90,0-108"/>
<path class="st3" d="M174.5,559.5c60-81,60-135,0-162"/>
<path class="st3" d="M174.5,251.5c-54.1,73-54.1,121.7,0,146"/>
<path class="st3" d="M174.5,445.5c17.8-24,17.8-40,0-48"/>
<path class="st3" d="M174.5,537.5c51.9-70,51.9-116.7,0-140"/>
<path class="st3" d="M174.5,593.5c-14.8,20-14.8,33.3,0,40"/>
<path class="st3" d="M174.5,597.5c-13.3,18-13.3,30,0,36"/>
<path class="st3" d="M174.5,195.5c-162.2,219-162.2,365,0,438"/>
<path class="st3" d="M174.5,459.5c-64.4,87-64.4,145,0,174"/>
<path class="st3" d="M174.5,251.5c-141.5,191-141.5,318.3,0,382"/>
<path class="st3" d="M174.5,661.5c10.4-14,10.4-23.3,0-28"/>
<path class="st3" d="M174.5,483.5c-55.6,75-55.6,125,0,150"/>
<path class="st3" d="M174.5,445.5c-69.6,94-69.6,156.7,0,188"/>
<path class="st3" d="M174.5,603.5c-11.1,15-11.1,25,0,30"/>
<path class="st3" d="M174.5,461.5c-63.7,86-63.7,143.3,0,172"/>
<path class="st3" d="M174.5,435.5c48.1-65,48.1-108.3,0-130"/>
<path class="st3" d="M174.5,195.5c-40.7,55-40.7,91.7,0,110"/>
<path class="st3" d="M174.5,293.5c-4.4,6-4.4,10,0,12"/>
<path class="st3" d="M174.5,251.5c-20,27-20,45,0,54"/>
<path class="st3" d="M174.5,397.5c94.1-127,94.1-211.7,0-254"/>
<path class="st3" d="M174.5,633.5c181.5-245,181.5-408.3,0-490"/>
<path class="st3" d="M174.5,435.5c108.1-146,108.1-243.3,0-292"/>
<path class="st3" d="M174.5,293.5c55.6-75,55.6-125,0-150"/>
<path class="st3" d="M174.5,675.5c197-266,197-443.3,0-532"/>
<path class="st3" d="M174.5,257.5c42.2-57,42.2-95,0-114"/>
<path class="st3" d="M174.5,629.5c180-243,180-405,0-486"/>
<path class="st3" d="M174.5,105.5c-14.1,19-14.1,31.7,0,38"/>
<path class="st3" d="M174.5,661.5c191.9-259,191.9-431.7,0-518"/>
<path class="st3" d="M174.5,483.5c125.9-170,125.9-283.3,0-340"/>
<path class="st3" d="M174.5,633.5c213.3-288,213.3-480,0-576"/>
<path class="st3" d="M174.5,437.5c140.7-190,140.7-316.7,0-380"/>
<path class="st3" d="M174.5,435.5c140-189,140-315,0-378"/>
<path class="st3" d="M174.5,195.5c51.1-69,51.1-115,0-138"/>
<path class="st3" d="M174.5,579.5c193.3-261,193.3-435,0-522"/>
<path class="st3" d="M174.5,293.5c87.4-118,87.4-196.7,0-236"/>
<path class="st3" d="M174.5,257.5c74.1-100,74.1-166.7,0-200"/>
<path class="st3" d="M174.5,677.5c229.6-310,229.6-516.7,0-620"/>
<path class="st3" d="M174.5,255.5c73.3-99,73.3-165,0-198"/>
<path class="st3" d="M174.5,483.5c157.8-213,157.8-355,0-426"/>
<path class="st3" d="M174.5,385.5c-19.3,26-19.3,43.3,0,52"/>
<path class="st3" d="M174.5,579.5c52.6-71,52.6-118.3,0-142"/>
<path class="st3" d="M174.5,459.5c8.1-11,8.1-18.3,0-22"/>
<path class="st3" d="M174.5,255.5c-67.4,91-67.4,151.7,0,182"/>
<path class="st3" d="M174.5,397.5c-48.1,65-48.1,108.3,0,130"/>
<path class="st3" d="M174.5,143.5c-142.2,192-142.2,320,0,384"/>
<path class="st3" d="M174.5,435.5c-34.1,46-34.1,76.7,0,92"/>
<path class="st3" d="M174.5,579.5c19.3-26,19.3-43.3,0-52"/>
<path class="st3" d="M174.5,293.5c-86.7,117-86.7,195,0,234"/>
<path class="st3" d="M174.5,459.5c-25.2,34-25.2,56.7,0,68"/>
<path class="st3" d="M174.5,255.5c-100.7,136-100.7,226.7,0,272"/>
<path class="st3" d="M174.5,537.5c3.7-5,3.7-8.3,0-10"/>
<path class="st3" d="M174.5,593.5c-1.5,2-1.5,3.3,0,4"/>
<path class="st3" d="M174.5,633.5c13.3-18,13.3-30,0-36"/>
<path class="st3" d="M174.5,435.5c-60,81-60,135,0,162"/>
<path class="st3" d="M174.5,505.5c-34.1,46-34.1,76.7,0,92"/>
<path class="st3" d="M174.5,255.5c-126.7,171-126.7,285,0,342"/>
<path class="st3" d="M174.5,305.5c-48.1,65-48.1,108.3,0,130"/>
<path class="st3" d="M174.5,195.5c-88.9,120-88.9,200,0,240"/>
<path class="st3" d="M174.5,579.5c53.3-72,53.3-120,0-144"/>
<path class="st3" d="M174.5,293.5c-52.6,71-52.6,118.3,0,142"/>
<path class="st3" d="M174.5,459.5c8.9-12,8.9-20,0-24"/>
<path class="st3" d="M174.5,559.5c45.9-62,45.9-103.3,0-124"/>
<path class="st3" d="M174.5,603.5c62.2-84,62.2-140,0-168"/>
<path class="st3" d="M174.5,527.5c123-166,123-276.7,0-332"/>
<path class="st3" d="M174.5,435.5c88.9-120,88.9-200,0-240"/>
<path class="st3" d="M174.5,579.5c142.2-192,142.2-320,0-384"/>
<path class="st3" d="M174.5,293.5c36.3-49,36.3-81.7,0-98"/>
<path class="st3" d="M174.5,459.5c97.8-132,97.8-220,0-264"/>
<path class="st3" d="M174.5,251.5c20.7-28,20.7-46.7,0-56"/>
<path class="st3" d="M174.5,661.5c172.6-233,172.6-388.3,0-466"/>
<path class="st3" d="M174.5,483.5c106.7-144,106.7-240,0-288"/>
<path class="st3" d="M174.5,445.5c92.6-125,92.6-208.3,0-250"/>
<path class="st3" d="M174.5,305.5c-29.6,40-29.6,66.7,0,80"/>
<path class="st3" d="M174.5,437.5c19.3-26,19.3-43.3,0-52"/>
<path class="st3" d="M174.5,527.5c52.6-71,52.6-118.3,0-142"/>
<path class="st3" d="M174.5,597.5c78.5-106,78.5-176.7,0-212"/>
<path class="st3" d="M174.5,435.5c18.5-25,18.5-41.7,0-50"/>
<path class="st3" d="M174.5,579.5c71.9-97,71.9-161.7,0-194"/>
<path class="st3" d="M174.5,293.5c-34.1,46-34.1,76.7,0,92"/>
<path class="st3" d="M174.5,505.5c44.4-60,44.4-100,0-120"/>
<path class="st3" d="M174.5,459.5c27.4-37,27.4-61.7,0-74"/>
<path class="st3" d="M174.5,105.5c-103.7,140-103.7,233.3,0,280"/>
<path class="st3" d="M174.5,255.5c-48.1,65-48.1,108.3,0,130"/>
<path class="st3" d="M174.5,537.5c56.3-76,56.3-126.7,0-152"/>
<path class="st3" d="M174.5,143.5c-161.5,218-161.5,363.3,0,436"/>
<path class="st3" d="M174.5,57.5c-193.3,261-193.3,435,0,522"/>
<path class="st3" d="M174.5,435.5c-53.3,72-53.3,120,0,144"/>
<path class="st3" d="M174.5,385.5c-71.9,97-71.9,161.7,0,194"/>
<path class="st3" d="M174.5,293.5c-105.9,143-105.9,238.3,0,286"/>
<path class="st3" d="M174.5,629.5c18.5-25,18.5-41.7,0-50"/>
<path class="st3" d="M174.5,459.5c-44.4,60-44.4,100,0,120"/>
<path class="st3" d="M174.5,105.5c-175.6,237-175.6,395,0,474"/>
<path class="st3" d="M174.5,661.5c30.4-41,30.4-68.3,0-82"/>
<path class="st3" d="M174.5,255.5c-120,162-120,270,0,324"/>
<path class="st3" d="M174.5,483.5c-35.6,48-35.6,80,0,96"/>
<path class="st3" d="M174.5,445.5c-49.6,67-49.6,111.7,0,134"/>
<path class="st3" d="M174.5,461.5c-43.7,59-43.7,98.3,0,118"/>
<path class="st3" d="M174.5,305.5c4.4-6,4.4-10,0-12"/>
<path class="st3" d="M174.5,143.5c-55.6,75-55.6,125,0,150"/>
<path class="st3" d="M174.5,57.5c-87.4,118-87.4,196.7,0,236"/>
<path class="st3" d="M174.5,435.5c52.6-71,52.6-118.3,0-142"/>
<path class="st3" d="M174.5,195.5c-36.3,49-36.3,81.7,0,98"/>
<path class="st3" d="M174.5,385.5c34.1-46,34.1-76.7,0-92"/>
<path class="st3" d="M174.5,579.5c105.9-143,105.9-238.3,0-286"/>
<path class="st3" d="M174.5,675.5c141.5-191,141.5-318.3,0-382"/>
<path class="st3" d="M174.5,677.5c142.2-192,142.2-320,0-384"/>
<path class="st3" d="M174.5,105.5c-69.6,94-69.6,156.7,0,188"/>
<path class="st3" d="M174.5,255.5c-14.1,19-14.1,31.7,0,38"/>
<path class="st3" d="M174.5,537.5c90.4-122,90.4-203.3,0-244"/>
<path class="st3" d="M174.5,397.5c-103,139-103,231.7,0,278"/>
<path class="st3" d="M174.5,435.5c-88.9,120-88.9,200,0,240"/>
<path class="st3" d="M174.5,293.5c-141.5,191-141.5,318.3,0,382"/>
<path class="st3" d="M174.5,257.5c-154.8,209-154.8,348.3,0,418"/>
<path class="st3" d="M174.5,105.5c-211.1,285-211.1,475,0,570"/>
<path class="st3" d="M174.5,445.5c-85.2,115-85.2,191.7,0,230"/>
<path class="st3" d="M174.5,537.5c-51.1,69-51.1,115,0,138"/>
<path class="st3" d="M174.5,603.5c-26.7,36-26.7,60,0,72"/>
<path class="st3" d="M174.5,593.5c124.4-168,124.4-280,0-336"/>
<path class="st3" d="M174.5,397.5c51.9-70,51.9-116.7,0-140"/>
<path class="st3" d="M174.5,143.5c-42.2,57-42.2,95,0,114"/>
<path class="st3" d="M174.5,57.5c-74.1,100-74.1,166.7,0,200"/>
<path class="st3" d="M174.5,527.5c100-135,100-225,0-270"/>
<path class="st3" d="M174.5,385.5c47.4-64,47.4-106.7,0-128"/>
<path class="st3" d="M174.5,579.5c119.3-161,119.3-268.3,0-322"/>
<path class="st3" d="M174.5,629.5c137.8-186,137.8-310,0-372"/>
<path class="st3" d="M174.5,505.5c91.9-124,91.9-206.7,0-248"/>
<path class="st3" d="M174.5,251.5c-2.2,3-2.2,5,0,6"/>
<path class="st3" d="M174.5,603.5c128.1-173,128.1-288.3,0-346"/>
<path class="st3" d="M174.5,461.5c75.6-102,75.6-170,0-204"/>
<path class="st3" d="M174.5,593.5c-13.3,18-13.3,30,0,36"/>
<path class="st3" d="M174.5,527.5c-37.8,51-37.8,85,0,102"/>
<path class="st3" d="M174.5,385.5c-90.4,122-90.4,203.3,0,244"/>
<path class="st3" d="M174.5,579.5c-18.5,25-18.5,41.7,0,50"/>
<path class="st3" d="M174.5,293.5c-124.4,168-124.4,280,0,336"/>
<path class="st3" d="M174.5,661.5c11.9-16,11.9-26.7,0-32"/>
<path class="st3" d="M174.5,255.5c-138.5,187-138.5,311.7,0,374"/>
<path class="st3" d="M174.5,483.5c-54.1,73-54.1,121.7,0,146"/>
<path class="st3" d="M174.5,445.5c-68.1,92-68.1,153.3,0,184"/>
<path class="st3" d="M174.5,633.5c47.4-64,47.4-106.7,0-128"/>
<path class="st3" d="M174.5,57.5c-165.9,224-165.9,373.3,0,448"/>
<path class="st3" d="M174.5,597.5c34.1-46,34.1-76.7,0-92"/>
<path class="st3" d="M174.5,195.5c-114.8,155-114.8,258.3,0,310"/>
<path class="st3" d="M174.5,675.5c63-85,63-141.7,0-170"/>
<path class="st3" d="M174.5,677.5c63.7-86,63.7-143.3,0-172"/>
<path class="st3" d="M174.5,105.5c-148.1,200-148.1,333.3,0,400"/>
<path class="st3" d="M174.5,559.5c20-27,20-45,0-54"/>
<path class="st3" d="M174.5,603.5c36.3-49,36.3-81.7,0-98"/>
<path class="st3" d="M174.5,633.5c64.4-87,64.4-145,0-174"/>
<path class="st3" d="M174.5,437.5c-8.1,11-8.1,18.3,0,22"/>
<path class="st3" d="M174.5,435.5c-8.9,12-8.9,20,0,24"/>
<path class="st3" d="M174.5,579.5c44.4-60,44.4-100,0-120"/>
<path class="st3" d="M174.5,293.5c-61.5,83-61.5,138.3,0,166"/>
<path class="st3" d="M174.5,677.5c80.7-109,80.7-181.7,0-218"/>
<path class="st3" d="M174.5,251.5c-77,104-77,173.3,0,208"/>
<path class="st3" d="M174.5,255.5c-75.6,102-75.6,170,0,204"/>
<path class="st3" d="M174.5,483.5c8.9-12,8.9-20,0-24"/>
<path class="st3" d="M174.5,537.5c28.9-39,28.9-65,0-78"/>
<path class="st3" d="M174.5,603.5c53.3-72,53.3-120,0-144"/>
<path class="st3" d="M174.5,461.5c0.7-1,0.7-1.7,0-2"/>
<path class="st3" d="M174.5,397.5c-103.7,140-103.7,233.3,0,280"/>
<path class="st3" d="M174.5,57.5c-229.6,310-229.6,516.7,0,620"/>
<path class="st3" d="M174.5,527.5c-55.6,75-55.6,125,0,150"/>
<path class="st3" d="M174.5,597.5c-29.6,40-29.6,66.7,0,80"/>
<path class="st3" d="M174.5,435.5c-89.6,121-89.6,201.7,0,242"/>
<path class="st3" d="M174.5,195.5c-178.5,241-178.5,401.7,0,482"/>
<path class="st3" d="M174.5,293.5c-142.2,192-142.2,320,0,384"/>
<path class="st3" d="M174.5,661.5c-5.9,8-5.9,13.3,0,16"/>
<path class="st3" d="M174.5,255.5c-156.3,211-156.3,351.7,0,422"/>
<path class="st3" d="M174.5,143.5c14.1-19,14.1-31.7,0-38"/>
<path class="st3" d="M174.5,435.5c122.2-165,122.2-275,0-330"/>
<path class="st3" d="M174.5,629.5c194.1-262,194.1-436.7,0-524"/>
<path class="st3" d="M174.5,505.5c148.1-200,148.1-333.3,0-400"/>
<path class="st3" d="M174.5,459.5c131.1-177,131.1-295,0-354"/>
<path class="st3" d="M174.5,255.5c55.6-75,55.6-125,0-150"/>
<path class="st3" d="M174.5,483.5c140-189,140-315,0-378"/>
<path class="st3" d="M174.5,293.5c-98.5,133-98.5,221.7,0,266"/>
<path class="st3" d="M174.5,629.5c25.9-35,25.9-58.3,0-70"/>
<path class="st3" d="M174.5,505.5c-20,27-20,45,0,54"/>
<path class="st3" d="M174.5,459.5c-37,50-37,83.3,0,100"/>
<path class="st3" d="M174.5,483.5c-28.1,38-28.1,63.3,0,76"/>
<path class="st3" d="M174.5,537.5c-8.1,11-8.1,18.3,0,22"/>
<path class="st3" d="M174.5,603.5c16.3-22,16.3-36.7,0-44"/>
<path class="st3" d="M174.5,633.5c141.5-191,141.5-318.3,0-382"/>
<path class="st3" d="M174.5,527.5c102.2-138,102.2-230,0-276"/>
<path class="st3" d="M174.5,435.5c68.1-92,68.1-153.3,0-184"/>
<path class="st3" d="M174.5,293.5c15.6-21,15.6-35,0-42"/>
<path class="st3" d="M174.5,629.5c140-189,140-315,0-378"/>
<path class="st3" d="M174.5,459.5c77-104,77-173.3,0-208"/>
<path class="st3" d="M174.5,445.5c71.9-97,71.9-161.7,0-194"/>
<path class="st3" d="M174.5,593.5c-25.2,34-25.2,56.7,0,68"/>
<path class="st3" d="M174.5,633.5c-10.4,14-10.4,23.3,0,28"/>
<path class="st3" d="M174.5,527.5c-49.6,67-49.6,111.7,0,134"/>
<path class="st3" d="M174.5,435.5c-83.7,113-83.7,188.3,0,226"/>
<path class="st3" d="M174.5,579.5c-30.4,41-30.4,68.3,0,82"/>
<path class="st3" d="M174.5,257.5c-149.6,202-149.6,336.7,0,404"/>
<path class="st3" d="M174.5,505.5c-57.8,78-57.8,130,0,156"/>
<path class="st3" d="M174.5,459.5c-74.8,101-74.8,168.3,0,202"/>
<path class="st3" d="M174.5,105.5c-205.9,278-205.9,463.3,0,556"/>
<path class="st3" d="M174.5,255.5c-150.4,203-150.4,338.3,0,406"/>
<path class="st3" d="M174.5,633.5c140-189,140-315,0-378"/>
<path class="st3" d="M174.5,143.5c-41.5,56-41.5,93.3,0,112"/>
<path class="st3" d="M174.5,57.5c-73.3,99-73.3,165,0,198"/>
<path class="st3" d="M174.5,437.5c67.4-91,67.4-151.7,0-182"/>
<path class="st3" d="M174.5,435.5c66.7-90,66.7-150,0-180"/>
<path class="st3" d="M174.5,195.5c-22.2,30-22.2,50,0,60"/>
<path class="st3" d="M174.5,579.5c120-162,120-270,0-324"/>
<path class="st3" d="M174.5,293.5c14.1-19,14.1-31.7,0-38"/>
<path class="st3" d="M174.5,505.5c92.6-125,92.6-208.3,0-250"/>
<path class="st3" d="M174.5,459.5c75.6-102,75.6-170,0-204"/>
<path class="st3" d="M174.5,251.5c-1.5,2-1.5,3.3,0,4"/>
<path class="st3" d="M174.5,593.5c40.7-55,40.7-91.7,0-110"/>
<path class="st3" d="M174.5,633.5c55.6-75,55.6-125,0-150"/>
<path class="st3" d="M174.5,143.5c-125.9,170-125.9,283.3,0,340"/>
<path class="st3" d="M174.5,437.5c-17,23-17,38.3,0,46"/>
<path class="st3" d="M174.5,527.5c16.3-22,16.3-36.7,0-44"/>
<path class="st3" d="M174.5,257.5c-83.7,113-83.7,188.3,0,226"/>
<path class="st3" d="M174.5,251.5c-85.9,116-85.9,193.3,0,232"/>
<path class="st3" d="M174.5,661.5c65.9-89,65.9-148.3,0-178"/>
<path class="st3" d="M174.5,255.5c-84.4,114-84.4,190,0,228"/>
<path class="st3" d="M174.5,445.5c-14.1,19-14.1,31.7,0,38"/>
<path class="st3" d="M174.5,537.5c20-27,20-45,0-54"/>
<path class="st3" d="M174.5,603.5c44.4-60,44.4-100,0-120"/>
<path class="st3" d="M174.5,597.5c56.3-76,56.3-126.7,0-152"/>
<path class="st3" d="M174.5,435.5c-3.7,5-3.7,8.3,0,10"/>
<path class="st3" d="M174.5,385.5c-22.2,30-22.2,50,0,60"/>
<path class="st3" d="M174.5,579.5c49.6-67,49.6-111.7,0-134"/>
<path class="st3" d="M174.5,293.5c-56.3,76-56.3,126.7,0,152"/>
<path class="st3" d="M174.5,257.5c-69.6,94-69.6,156.7,0,188"/>
<path class="st3" d="M174.5,629.5c68.1-92,68.1-153.3,0-184"/>
<path class="st3" d="M174.5,505.5c22.2-30,22.2-50,0-60"/>
<path class="st3" d="M174.5,677.5c85.9-116,85.9-193.3,0-232"/>
<path class="st3" d="M174.5,251.5c-71.9,97-71.9,161.7,0,194"/>
<path class="st3" d="M174.5,661.5c80-108,80-180,0-216"/>
<path class="st3" d="M174.5,461.5c5.9-8,5.9-13.3,0-16"/>
<path class="st3" d="M174.5,397.5c-51.9,70-51.9,116.7,0,140"/>
<path class="st3" d="M174.5,633.5c35.6-48,35.6-80,0-96"/>
<path class="st3" d="M174.5,437.5c-37,50-37,83.3,0,100"/>
<path class="st3" d="M174.5,597.5c22.2-30,22.2-50,0-60"/>
<path class="st3" d="M174.5,579.5c15.6-21,15.6-35,0-42"/>
<path class="st3" d="M174.5,257.5c-103.7,140-103.7,233.3,0,280"/>
<path class="st3" d="M174.5,105.5c-160,216-160,360,0,432"/>
<path class="st3" d="M174.5,527.5c-28.1,38-28.1,63.3,0,76"/>
<path class="st3" d="M174.5,195.5c-151.1,204-151.1,340,0,408"/>
<path class="st3" d="M174.5,385.5c-80.7,109-80.7,181.7,0,218"/>
<path class="st3" d="M174.5,257.5c-128.1,173-128.1,288.3,0,346"/>
<path class="st3" d="M174.5,459.5c-53.3,72-53.3,120,0,144"/>
<path class="st3" d="M174.5,57.5c-149.6,202-149.6,336.7,0,404"/>
<path class="st3" d="M174.5,579.5c43.7-59,43.7-98.3,0-118"/>
<path class="st3" d="M174.5,675.5c79.3-107,79.3-178.3,0-214"/>
<path class="st3" d="M174.5,505.5c16.3-22,16.3-36.7,0-44"/>
<path class="st3" d="M174.5,459.5c-0.7,1-0.7,1.7,0,2"/>
<path class="st3" d="M174.5,105.5c-131.9,178-131.9,296.7,0,356"/>
<path class="st3" d="M174.5,255.5c-76.3,103-76.3,171.7,0,206"/>
<path class="st4" d="M174.5,633.5c14.8-20,14.8-33.3,0-40"/>
<path class="st5" d="M174.5,435.5c-58.5,79-58.5,131.7,0,158"/>
<path class="st6" d="M174.5,579.5c-5.2,7-5.2,11.7,0,14"/>
<path class="st7" d="M174.5,105.5c-180.7,244-180.7,406.7,0,488"/>
<path class="st8" d="M174.5,559.5c-12.6,17-12.6,28.3,0,34"/>
<path class="st9" d="M174.5,661.5c25.2-34,25.2-56.7,0-68"/>
<path class="st10" d="M174.5,255.5c-125.2,169-125.2,281.7,0,338"/>
<path class="st11" d="M174.5,633.5c87.4-118,87.4-196.7,0-236"/>
<path class="st7" d="M174.5,143.5c-94.1,127-94.1,211.7,0,254"/>
<path class="st8" d="M174.5,57.5c-125.9,170-125.9,283.3,0,340"/>
<path class="st12" d="M174.5,579.5c67.4-91,67.4-151.7,0-182"/>
<path class="st7" d="M174.5,675.5c103-139,103-231.7,0-278"/>
<path class="st7" d="M174.5,257.5c-51.9,70-51.9,116.7,0,140"/>
<path class="st8" d="M174.5,505.5c40-54,40-90,0-108"/>
<path class="st7" d="M174.5,559.5c60-81,60-135,0-162"/>
<path class="st8" d="M174.5,251.5c-54.1,73-54.1,121.7,0,146"/>
<path class="st8" d="M174.5,445.5c17.8-24,17.8-40,0-48"/>
<path class="st8" d="M174.5,537.5c51.9-70,51.9-116.7,0-140"/>
<path class="st13" d="M174.5,593.5c-14.8,20-14.8,33.3,0,40"/>
<path class="st14" d="M174.5,597.5c-13.3,18-13.3,30,0,36"/>
<path class="st14" d="M174.5,195.5c-162.2,219-162.2,365,0,438"/>
<path class="st14" d="M174.5,459.5c-64.4,87-64.4,145,0,174"/>
<path class="st8" d="M174.5,251.5c-141.5,191-141.5,318.3,0,382"/>
<path class="st15" d="M174.5,661.5c10.4-14,10.4-23.3,0-28"/>
<path class="st14" d="M174.5,483.5c-55.6,75-55.6,125,0,150"/>
<path class="st14" d="M174.5,445.5c-69.6,94-69.6,156.7,0,188"/>
<path class="st14" d="M174.5,603.5c-11.1,15-11.1,25,0,30"/>
<path class="st14" d="M174.5,461.5c-63.7,86-63.7,143.3,0,172"/>
<path class="st16" d="M174.5,435.5c48.1-65,48.1-108.3,0-130"/>
<path class="st7" d="M174.5,195.5c-40.7,55-40.7,91.7,0,110"/>
<path class="st7" d="M174.5,293.5c-4.4,6-4.4,10,0,12"/>
<path class="st16" d="M174.5,251.5c-20,27-20,45,0,54"/>
<path class="st7" d="M174.5,397.5c94.1-127,94.1-211.7,0-254"/>
<path class="st7" d="M174.5,633.5c181.5-245,181.5-408.3,0-490"/>
<path class="st17" d="M174.5,435.5c108.1-146,108.1-243.3,0-292"/>
<path class="st18" d="M174.5,293.5c55.6-75,55.6-125,0-150"/>
<path class="st19" d="M174.5,675.5c197-266,197-443.3,0-532"/>
<path class="st20" d="M174.5,257.5c42.2-57,42.2-95,0-114"/>
<path class="st19" d="M174.5,629.5c180-243,180-405,0-486"/>
<path class="st21" d="M174.5,105.5c-14.1,19-14.1,31.7,0,38"/>
<path class="st19" d="M174.5,661.5c191.9-259,191.9-431.7,0-518"/>
<path class="st19" d="M174.5,483.5c125.9-170,125.9-283.3,0-340"/>
<path class="st7" d="M174.5,633.5c213.3-288,213.3-480,0-576"/>
<path class="st22" d="M174.5,437.5c140.7-190,140.7-316.7,0-380"/>
<path class="st23" d="M174.5,435.5c140-189,140-315,0-378"/>
<path class="st24" d="M174.5,195.5c51.1-69,51.1-115,0-138"/>
<path class="st25" d="M174.5,579.5c193.3-261,193.3-435,0-522"/>
<path class="st26" d="M174.5,293.5c87.4-118,87.4-196.7,0-236"/>
<path class="st27" d="M174.5,257.5c74.1-100,74.1-166.7,0-200"/>
<path class="st22" d="M174.5,677.5c229.6-310,229.6-516.7,0-620"/>
<path class="st28" d="M174.5,255.5c73.3-99,73.3-165,0-198"/>
<path class="st22" d="M174.5,483.5c157.8-213,157.8-355,0-426"/>
<path class="st8" d="M174.5,385.5c-19.3,26-19.3,43.3,0,52"/>
<path class="st29" d="M174.5,579.5c52.6-71,52.6-118.3,0-142"/>
<path class="st8" d="M174.5,459.5c8.1-11,8.1-18.3,0-22"/>
<path class="st7" d="M174.5,255.5c-67.4,91-67.4,151.7,0,182"/>
<path class="st7" d="M174.5,397.5c-48.1,65-48.1,108.3,0,130"/>
<path class="st8" d="M174.5,143.5c-142.2,192-142.2,320,0,384"/>
<path class="st30" d="M174.5,435.5c-34.1,46-34.1,76.7,0,92"/>
<path class="st25" d="M174.5,579.5c19.3-26,19.3-43.3,0-52"/>
<path class="st31" d="M174.5,293.5c-86.7,117-86.7,195,0,234"/>
<path class="st32" d="M174.5,459.5c-25.2,34-25.2,56.7,0,68"/>
<path class="st33" d="M174.5,255.5c-100.7,136-100.7,226.7,0,272"/>
<path class="st34" d="M174.5,537.5c3.7-5,3.7-8.3,0-10"/>
<path class="st8" d="M174.5,593.5c-1.5,2-1.5,3.3,0,4"/>
<path class="st7" d="M174.5,633.5c13.3-18,13.3-30,0-36"/>
<path class="st7" d="M174.5,435.5c-60,81-60,135,0,162"/>
<path class="st35" d="M174.5,505.5c-34.1,46-34.1,76.7,0,92"/>
<path class="st8" d="M174.5,255.5c-126.7,171-126.7,285,0,342"/>
<path class="st36" d="M174.5,305.5c-48.1,65-48.1,108.3,0,130"/>
<path class="st37" d="M174.5,195.5c-88.9,120-88.9,200,0,240"/>
<path class="st38" d="M174.5,579.5c53.3-72,53.3-120,0-144"/>
<path class="st39" d="M174.5,293.5c-52.6,71-52.6,118.3,0,142"/>
<path class="st40" d="M174.5,459.5c8.9-12,8.9-20,0-24"/>
<path class="st36" d="M174.5,559.5c45.9-62,45.9-103.3,0-124"/>
<path class="st36" d="M174.5,603.5c62.2-84,62.2-140,0-168"/>
<path class="st7" d="M174.5,527.5c123-166,123-276.7,0-332"/>
<path class="st16" d="M174.5,435.5c88.9-120,88.9-200,0-240"/>
<path class="st41" d="M174.5,579.5c142.2-192,142.2-320,0-384"/>
<path class="st42" d="M174.5,293.5c36.3-49,36.3-81.7,0-98"/>
<path class="st43" d="M174.5,459.5c97.8-132,97.8-220,0-264"/>
<path class="st7" d="M174.5,251.5c20.7-28,20.7-46.7,0-56"/>
<path class="st32" d="M174.5,661.5c172.6-233,172.6-388.3,0-466"/>
<path class="st7" d="M174.5,483.5c106.7-144,106.7-240,0-288"/>
<path class="st32" d="M174.5,445.5c92.6-125,92.6-208.3,0-250"/>
<path class="st44" d="M174.5,305.5c-29.6,40-29.6,66.7,0,80"/>
<path class="st44" d="M174.5,437.5c19.3-26,19.3-43.3,0-52"/>
<path class="st45" d="M174.5,527.5c52.6-71,52.6-118.3,0-142"/>
<path class="st7" d="M174.5,597.5c78.5-106,78.5-176.7,0-212"/>
<path class="st46" d="M174.5,435.5c18.5-25,18.5-41.7,0-50"/>
<path class="st47" d="M174.5,579.5c71.9-97,71.9-161.7,0-194"/>
<path class="st48" d="M174.5,293.5c-34.1,46-34.1,76.7,0,92"/>
<path class="st49" d="M174.5,505.5c44.4-60,44.4-100,0-120"/>
<path class="st17" d="M174.5,459.5c27.4-37,27.4-61.7,0-74"/>
<path class="st44" d="M174.5,105.5c-103.7,140-103.7,233.3,0,280"/>
<path class="st50" d="M174.5,255.5c-48.1,65-48.1,108.3,0,130"/>
<path class="st51" d="M174.5,537.5c56.3-76,56.3-126.7,0-152"/>
<path class="st52" d="M174.5,143.5c-161.5,218-161.5,363.3,0,436"/>
<path class="st53" d="M174.5,57.5c-193.3,261-193.3,435,0,522"/>
<path class="st15" d="M174.5,435.5c-53.3,72-53.3,120,0,144"/>
<path class="st54" d="M174.5,385.5c-71.9,97-71.9,161.7,0,194"/>
<path class="st31" d="M174.5,293.5c-105.9,143-105.9,238.3,0,286"/>
<path class="st17" d="M174.5,629.5c18.5-25,18.5-41.7,0-50"/>
<path class="st55" d="M174.5,459.5c-44.4,60-44.4,100,0,120"/>
<path class="st56" d="M174.5,105.5c-175.6,237-175.6,395,0,474"/>
<path class="st57" d="M174.5,661.5c30.4-41,30.4-68.3,0-82"/>
<path class="st58" d="M174.5,255.5c-120,162-120,270,0,324"/>
<path class="st59" d="M174.5,483.5c-35.6,48-35.6,80,0,96"/>
<path class="st60" d="M174.5,445.5c-49.6,67-49.6,111.7,0,134"/>
<path class="st61" d="M174.5,461.5c-43.7,59-43.7,98.3,0,118"/>
<path class="st62" d="M174.5,305.5c4.4-6,4.4-10,0-12"/>
<path class="st63" d="M174.5,143.5c-55.6,75-55.6,125,0,150"/>
<path class="st64" d="M174.5,57.5c-87.4,118-87.4,196.7,0,236"/>
<path class="st65" d="M174.5,435.5c52.6-71,52.6-118.3,0-142"/>
<path class="st24" d="M174.5,195.5c-36.3,49-36.3,81.7,0,98"/>
<path class="st66" d="M174.5,385.5c34.1-46,34.1-76.7,0-92"/>
<path class="st47" d="M174.5,579.5c105.9-143,105.9-238.3,0-286"/>
<path class="st67" d="M174.5,675.5c141.5-191,141.5-318.3,0-382"/>
<path class="st62" d="M174.5,677.5c142.2-192,142.2-320,0-384"/>
<path class="st68" d="M174.5,105.5c-69.6,94-69.6,156.7,0,188"/>
<path class="st65" d="M174.5,255.5c-14.1,19-14.1,31.7,0,38"/>
<path class="st69" d="M174.5,537.5c90.4-122,90.4-203.3,0-244"/>
<path class="st7" d="M174.5,397.5c-103,139-103,231.7,0,278"/>
<path class="st50" d="M174.5,435.5c-88.9,120-88.9,200,0,240"/>
<path class="st70" d="M174.5,293.5c-141.5,191-141.5,318.3,0,382"/>
<path class="st7" d="M174.5,257.5c-154.8,209-154.8,348.3,0,418"/>
<path class="st8" d="M174.5,105.5c-211.1,285-211.1,475,0,570"/>
<path class="st71" d="M174.5,445.5c-85.2,115-85.2,191.7,0,230"/>
<path class="st72" d="M174.5,537.5c-51.1,69-51.1,115,0,138"/>
<path class="st73" d="M174.5,603.5c-26.7,36-26.7,60,0,72"/>
<path class="st74" d="M174.5,593.5c124.4-168,124.4-280,0-336"/>
<path class="st7" d="M174.5,397.5c51.9-70,51.9-116.7,0-140"/>
<path class="st7" d="M174.5,143.5c-42.2,57-42.2,95,0,114"/>
<path class="st8" d="M174.5,57.5c-74.1,100-74.1,166.7,0,200"/>
<path class="st7" d="M174.5,527.5c100-135,100-225,0-270"/>
<path class="st8" d="M174.5,385.5c47.4-64,47.4-106.7,0-128"/>
<path class="st75" d="M174.5,579.5c119.3-161,119.3-268.3,0-322"/>
<path class="st7" d="M174.5,629.5c137.8-186,137.8-310,0-372"/>
<path class="st8" d="M174.5,505.5c91.9-124,91.9-206.7,0-248"/>
<path class="st76" d="M174.5,251.5c-2.2,3-2.2,5,0,6"/>
<path class="st8" d="M174.5,603.5c128.1-173,128.1-288.3,0-346"/>
<path class="st8" d="M174.5,461.5c75.6-102,75.6-170,0-204"/>
<path class="st34" d="M174.5,593.5c-13.3,18-13.3,30,0,36"/>
<path class="st77" d="M174.5,527.5c-37.8,51-37.8,85,0,102"/>
<path class="st78" d="M174.5,385.5c-90.4,122-90.4,203.3,0,244"/>
<path class="st64" d="M174.5,579.5c-18.5,25-18.5,41.7,0,50"/>
<path class="st79" d="M174.5,293.5c-124.4,168-124.4,280,0,336"/>
<path class="st48" d="M174.5,661.5c11.9-16,11.9-26.7,0-32"/>
<path class="st80" d="M174.5,255.5c-138.5,187-138.5,311.7,0,374"/>
<path class="st48" d="M174.5,483.5c-54.1,73-54.1,121.7,0,146"/>
<path class="st81" d="M174.5,445.5c-68.1,92-68.1,153.3,0,184"/>
<path class="st7" d="M174.5,633.5c47.4-64,47.4-106.7,0-128"/>
<path class="st7" d="M174.5,57.5c-165.9,224-165.9,373.3,0,448"/>
<path class="st12" d="M174.5,597.5c34.1-46,34.1-76.7,0-92"/>
<path class="st7" d="M174.5,195.5c-114.8,155-114.8,258.3,0,310"/>
<path class="st46" d="M174.5,675.5c63-85,63-141.7,0-170"/>
<path class="st82" d="M174.5,677.5c63.7-86,63.7-143.3,0-172"/>
<path class="st7" d="M174.5,105.5c-148.1,200-148.1,333.3,0,400"/>
<path class="st8" d="M174.5,559.5c20-27,20-45,0-54"/>
<path class="st83" d="M174.5,603.5c36.3-49,36.3-81.7,0-98"/>
<path class="st7" d="M174.5,633.5c64.4-87,64.4-145,0-174"/>
<path class="st84" d="M174.5,437.5c-8.1,11-8.1,18.3,0,22"/>
<path class="st40" d="M174.5,435.5c-8.9,12-8.9,20,0,24"/>
<path class="st85" d="M174.5,579.5c44.4-60,44.4-100,0-120"/>
<path class="st86" d="M174.5,293.5c-61.5,83-61.5,138.3,0,166"/>
<path class="st84" d="M174.5,677.5c80.7-109,80.7-181.7,0-218"/>
<path class="st87" d="M174.5,251.5c-77,104-77,173.3,0,208"/>
<path class="st78" d="M174.5,255.5c-75.6,102-75.6,170,0,204"/>
<path class="st88" d="M174.5,483.5c8.9-12,8.9-20,0-24"/>
<path class="st45" d="M174.5,537.5c28.9-39,28.9-65,0-78"/>
<path class="st84" d="M174.5,603.5c53.3-72,53.3-120,0-144"/>
<path class="st89" d="M174.5,461.5c0.7-1,0.7-1.7,0-2"/>
<path class="st7" d="M174.5,397.5c-103.7,140-103.7,233.3,0,280"/>
<path class="st90" d="M174.5,57.5c-229.6,310-229.6,516.7,0,620"/>
<path class="st7" d="M174.5,527.5c-55.6,75-55.6,125,0,150"/>
<path class="st7" d="M174.5,597.5c-29.6,40-29.6,66.7,0,80"/>
<path class="st7" d="M174.5,435.5c-89.6,121-89.6,201.7,0,242"/>
<path class="st90" d="M174.5,195.5c-178.5,241-178.5,401.7,0,482"/>
<path class="st90" d="M174.5,293.5c-142.2,192-142.2,320,0,384"/>
<path class="st90" d="M174.5,661.5c-5.9,8-5.9,13.3,0,16"/>
<path class="st7" d="M174.5,255.5c-156.3,211-156.3,351.7,0,422"/>
<path class="st91" d="M174.5,143.5c14.1-19,14.1-31.7,0-38"/>
<path class="st37" d="M174.5,435.5c122.2-165,122.2-275,0-330"/>
<path class="st7" d="M174.5,629.5c194.1-262,194.1-436.7,0-524"/>
<path class="st92" d="M174.5,505.5c148.1-200,148.1-333.3,0-400"/>
<path class="st92" d="M174.5,459.5c131.1-177,131.1-295,0-354"/>
<path class="st93" d="M174.5,255.5c55.6-75,55.6-125,0-150"/>
<path class="st92" d="M174.5,483.5c140-189,140-315,0-378"/>
<path class="st8" d="M174.5,293.5c-98.5,133-98.5,221.7,0,266"/>
<path class="st94" d="M174.5,629.5c25.9-35,25.9-58.3,0-70"/>
<path class="st7" d="M174.5,505.5c-20,27-20,45,0,54"/>
<path class="st8" d="M174.5,459.5c-37,50-37,83.3,0,100"/>
<path class="st8" d="M174.5,483.5c-28.1,38-28.1,63.3,0,76"/>
<path class="st7" d="M174.5,537.5c-8.1,11-8.1,18.3,0,22"/>
<path class="st7" d="M174.5,603.5c16.3-22,16.3-36.7,0-44"/>
<path class="st7" d="M174.5,633.5c141.5-191,141.5-318.3,0-382"/>
<path class="st95" d="M174.5,527.5c102.2-138,102.2-230,0-276"/>
<path class="st96" d="M174.5,435.5c68.1-92,68.1-153.3,0-184"/>
<path class="st97" d="M174.5,293.5c15.6-21,15.6-35,0-42"/>
<path class="st8" d="M174.5,629.5c140-189,140-315,0-378"/>
<path class="st98" d="M174.5,459.5c77-104,77-173.3,0-208"/>
<path class="st99" d="M174.5,445.5c71.9-97,71.9-161.7,0-194"/>
<path class="st100" d="M174.5,593.5c-25.2,34-25.2,56.7,0,68"/>
<path class="st101" d="M174.5,633.5c-10.4,14-10.4,23.3,0,28"/>
<path class="st102" d="M174.5,527.5c-49.6,67-49.6,111.7,0,134"/>
<path class="st57" d="M174.5,435.5c-83.7,113-83.7,188.3,0,226"/>
<path class="st103" d="M174.5,579.5c-30.4,41-30.4,68.3,0,82"/>
<path class="st32" d="M174.5,257.5c-149.6,202-149.6,336.7,0,404"/>
<path class="st41" d="M174.5,505.5c-57.8,78-57.8,130,0,156"/>
<path class="st54" d="M174.5,459.5c-74.8,101-74.8,168.3,0,202"/>
<path class="st32" d="M174.5,105.5c-205.9,278-205.9,463.3,0,556"/>
<path class="st97" d="M174.5,255.5c-150.4,203-150.4,338.3,0,406"/>
<path class="st59" d="M174.5,633.5c140-189,140-315,0-378"/>
<path class="st104" d="M174.5,143.5c-41.5,56-41.5,93.3,0,112"/>
<path class="st105" d="M174.5,57.5c-73.3,99-73.3,165,0,198"/>
<path class="st59" d="M174.5,437.5c67.4-91,67.4-151.7,0-182"/>
<path class="st106" d="M174.5,435.5c66.7-90,66.7-150,0-180"/>
<path class="st107" d="M174.5,195.5c-22.2,30-22.2,50,0,60"/>
<path class="st108" d="M174.5,579.5c120-162,120-270,0-324"/>
<path class="st65" d="M174.5,293.5c14.1-19,14.1-31.7,0-38"/>
<path class="st7" d="M174.5,505.5c92.6-125,92.6-208.3,0-250"/>
<path class="st39" d="M174.5,459.5c75.6-102,75.6-170,0-204"/>
<path class="st103" d="M174.5,251.5c-1.5,2-1.5,3.3,0,4"/>
<path class="st109" d="M174.5,593.5c40.7-55,40.7-91.7,0-110"/>
<path class="st7" d="M174.5,633.5c55.6-75,55.6-125,0-150"/>
<path class="st110" d="M174.5,143.5c-125.9,170-125.9,283.3,0,340"/>
<path class="st110" d="M174.5,437.5c-17,23-17,38.3,0,46"/>
<path class="st87" d="M174.5,527.5c16.3-22,16.3-36.7,0-44"/>
<path class="st110" d="M174.5,257.5c-83.7,113-83.7,188.3,0,226"/>
<path class="st7" d="M174.5,251.5c-85.9,116-85.9,193.3,0,232"/>
<path class="st23" d="M174.5,661.5c65.9-89,65.9-148.3,0-178"/>
<path class="st110" d="M174.5,255.5c-84.4,114-84.4,190,0,228"/>
<path class="st111" d="M174.5,445.5c-14.1,19-14.1,31.7,0,38"/>
<path class="st99" d="M174.5,537.5c20-27,20-45,0-54"/>
<path class="st7" d="M174.5,603.5c44.4-60,44.4-100,0-120"/>
<path class="st7" d="M174.5,597.5c56.3-76,56.3-126.7,0-152"/>
<path class="st112" d="M174.5,435.5c-3.7,5-3.7,8.3,0,10"/>
<path class="st93" d="M174.5,385.5c-22.2,30-22.2,50,0,60"/>
<path class="st113" d="M174.5,579.5c49.6-67,49.6-111.7,0-134"/>
<path class="st114" d="M174.5,293.5c-56.3,76-56.3,126.7,0,152"/>
<path class="st115" d="M174.5,257.5c-69.6,94-69.6,156.7,0,188"/>
<path class="st83" d="M174.5,629.5c68.1-92,68.1-153.3,0-184"/>
<path class="st116" d="M174.5,505.5c22.2-30,22.2-50,0-60"/>
<path class="st8" d="M174.5,677.5c85.9-116,85.9-193.3,0-232"/>
<path class="st117" d="M174.5,251.5c-71.9,97-71.9,161.7,0,194"/>
<path class="st53" d="M174.5,661.5c80-108,80-180,0-216"/>
<path class="st118" d="M174.5,461.5c5.9-8,5.9-13.3,0-16"/>
<path class="st7" d="M174.5,397.5c-51.9,70-51.9,116.7,0,140"/>
<path class="st7" d="M174.5,633.5c35.6-48,35.6-80,0-96"/>
<path class="st7" d="M174.5,437.5c-37,50-37,83.3,0,100"/>
<path class="st8" d="M174.5,597.5c22.2-30,22.2-50,0-60"/>
<path class="st113" d="M174.5,579.5c15.6-21,15.6-35,0-42"/>
<path class="st7" d="M174.5,257.5c-103.7,140-103.7,233.3,0,280"/>
<path class="st7" d="M174.5,105.5c-160,216-160,360,0,432"/>
<path class="st73" d="M174.5,527.5c-28.1,38-28.1,63.3,0,76"/>
<path class="st7" d="M174.5,195.5c-151.1,204-151.1,340,0,408"/>
<path class="st119" d="M174.5,385.5c-80.7,109-80.7,181.7,0,218"/>
<path class="st8" d="M174.5,257.5c-128.1,173-128.1,288.3,0,346"/>
<path class="st7" d="M174.5,459.5c-53.3,72-53.3,120,0,144"/>
<path class="st120" d="M174.5,57.5c-149.6,202-149.6,336.7,0,404"/>
<path class="st29" d="M174.5,579.5c43.7-59,43.7-98.3,0-118"/>
<path class="st7" d="M174.5,675.5c79.3-107,79.3-178.3,0-214"/>
<path class="st56" d="M174.5,505.5c16.3-22,16.3-36.7,0-44"/>
<path class="st42" d="M174.5,459.5c-0.7,1-0.7,1.7,0,2"/>
<path class="st56" d="M174.5,105.5c-131.9,178-131.9,296.7,0,356"/>
<path class="st97" d="M174.5,255.5c-76.3,103-76.3,171.7,0,206"/>
<circle class="st121" cx="174.5" cy="593.5" r="3.5"/>
<circle class="st121" cx="174.5" cy="397.5" r="3.5"/>
<circle class="st121" cx="174.5" cy="633.5" r="3.5"/>
<circle class="st121" cx="174.5" cy="305.5" r="3.5"/>
<circle class="st121" cx="174.5" cy="143.5" r="3.5"/>
<circle class="st121" cx="174.5" cy="57.5" r="3.5"/>
<circle class="st121" cx="174.5" cy="437.5" r="3.5"/>
<circle class="st121" cx="174.5" cy="527.5" r="3.5"/>
<circle class="st121" cx="174.5" cy="597.5" r="3.5"/>
<circle class="st121" cx="174.5" cy="435.5" r="3.5"/>
<circle class="st121" cx="174.5" cy="195.5" r="3.5"/>
<circle class="st121" cx="174.5" cy="385.5" r="3.5"/>
<circle class="st121" cx="174.5" cy="579.5" r="3.5"/>
<circle class="st121" cx="174.5" cy="293.5" r="3.5"/>
<circle class="st121" cx="174.5" cy="675.5" r="3.5"/>
<circle class="st121" cx="174.5" cy="257.5" r="3.5"/>
<circle class="st121" cx="174.5" cy="629.5" r="3.5"/>
<circle class="st121" cx="174.5" cy="505.5" r="3.5"/>
<circle class="st121" cx="174.5" cy="459.5" r="3.5"/>
<circle class="st121" cx="174.5" cy="677.5" r="3.5"/>
<circle class="st121" cx="174.5" cy="105.5" r="3.5"/>
<circle class="st121" cx="174.5" cy="559.5" r="3.5"/>
<circle class="st121" cx="174.5" cy="251.5" r="3.5"/>
<circle class="st121" cx="174.5" cy="661.5" r="3.5"/>
<circle class="st121" cx="174.5" cy="255.5" r="3.5"/>
<circle class="st121" cx="174.5" cy="483.5" r="3.5"/>
<circle class="st121" cx="174.5" cy="445.5" r="3.5"/>
<circle class="st121" cx="174.5" cy="537.5" r="3.5"/>
<circle class="st121" cx="174.5" cy="603.5" r="3.5"/>
<circle class="st121" cx="174.5" cy="461.5" r="3.5"/>
</svg>
