<?xml version="1.0" encoding="utf-8"?>
<!-- Generator: Adobe Illustrator 24.0.1, SVG Export Plug-In . SVG Version: 6.00 Build 0)  -->
<svg version="1.1" id="v1" xmlns="http://www.w3.org/2000/svg" xmlns:xlink="http://www.w3.org/1999/xlink" x="0px" y="0px"
	 viewBox="0 0 446.7 735" style="enable-background:new 0 0 446.7 735;" xml:space="preserve">
<style type="text/css">
	.st0{fill:none;stroke:#969696;stroke-width:0.5;}
	.st1{font-family:'Helvetica';}
	.st2{font-size:12px;}
	.st3{fill:none;stroke:#FFFFFF;stroke-width:4.5;}
	.st4{fill:none;stroke:#E74848;stroke-width:2.5;stroke-opacity:0.4;}
	.st5{fill:none;stroke:#2626F3;stroke-width:2.5;stroke-opacity:0.4;}
	.st6{fill:none;stroke:#D18A8A;stroke-width:2.5;stroke-opacity:0.4;}
	.st7{fill:none;stroke:#FF0000;stroke-width:2.5;stroke-opacity:0.4;}
	.st8{fill:none;stroke:#0000FF;stroke-width:2.5;stroke-opacity:0.4;}
	.st9{fill:none;stroke:#7777D8;stroke-width:2.5;stroke-opacity:0.4;}
	.st10{fill:none;stroke:#0303FE;stroke-width:2.5;stroke-opacity:0.4;}
	.st11{fill:none;stroke:#E55050;stroke-width:2.5;stroke-opacity:0.4;}
	.st12{fill:none;stroke:#EC3939;stroke-width:2.5;stroke-opacity:0.4;}
	.st13{fill:none;stroke:#EC3B3B;stroke-width:2.5;stroke-opacity:0.4;}
	.st14{fill:none;stroke:#FD0606;stroke-width:2.5;stroke-opacity:0.4;}
	.st15{fill:none;stroke:#5959E2;stroke-width:2.5;stroke-opacity:0.4;}
	.st16{fill:none;stroke:#6666DD;stroke-width:2.5;stroke-opacity:0.4;}
	.st17{fill:none;stroke:#8D8DD0;stroke-width:2.5;stroke-opacity:0.4;}
	.st18{fill:none;stroke:#8989D2;stroke-width:2.5;stroke-opacity:0.4;}
	.st19{fill:none;stroke:#1414F9;stroke-width:2.5;stroke-opacity:0.4;}
	.st20{fill:none;stroke:#3838ED;stroke-width:2.5;stroke-opacity:0.4;}
	.st21{fill:none;stroke:#9F9FCA;stroke-width:2.5;stroke-opacity:0.4;}
	.st22{fill:none;stroke:#3636ED;stroke-width:2.5;stroke-opacity:0.4;}
	.st23{fill:none;stroke:#8A8AD1;stroke-width:2.5;stroke-opacity:0.4;}
	.st24{fill:none;stroke:#C9A2A2;stroke-width:2.5;stroke-opacity:0.4;}
	.st25{fill:none;stroke:#CC9999;stroke-width:2.5;stroke-opacity:0.4;}
	.st26{fill:none;stroke:#AEAEC5;stroke-width:2.5;stroke-opacity:0.4;}
	.st27{fill:none;stroke:#F22929;stroke-width:2.5;stroke-opacity:0.4;}
	.st28{fill:none;stroke:#A8A8C7;stroke-width:2.5;stroke-opacity:0.4;}
	.st29{fill:none;stroke:#D67B7B;stroke-width:2.5;stroke-opacity:0.4;}
	.st30{fill:none;stroke:#4747E8;stroke-width:2.5;stroke-opacity:0.4;}
	.st31{fill:none;stroke:#2D2DF0;stroke-width:2.5;stroke-opacity:0.4;}
	.st32{fill:none;stroke:#2A2AF1;stroke-width:2.5;stroke-opacity:0.4;}
	.st33{fill:none;stroke:#2020F5;stroke-width:2.5;stroke-opacity:0.4;}
	.st34{fill:none;stroke:#CF9090;stroke-width:2.5;stroke-opacity:0.4;}
	.st35{fill:none;stroke:#F02F2F;stroke-width:2.5;stroke-opacity:0.4;}
	.st36{fill:none;stroke:#6565DE;stroke-width:2.5;stroke-opacity:0.4;}
	.st37{fill:none;stroke:#8686D3;stroke-width:2.5;stroke-opacity:0.4;}
	.st38{fill:none;stroke:#DB6C6C;stroke-width:2.5;stroke-opacity:0.4;}
	.st39{fill:none;stroke:#AAAAC7;stroke-width:2.5;stroke-opacity:0.4;}
	.st40{fill:none;stroke:#ADADC6;stroke-width:2.5;stroke-opacity:0.4;}
	.st41{fill:none;stroke:#D48181;stroke-width:2.5;stroke-opacity:0.4;}
	.st42{fill:none;stroke:#A2A2C9;stroke-width:2.5;stroke-opacity:0.4;}
	.st43{fill:none;stroke:#E05F5F;stroke-width:2.5;stroke-opacity:0.4;}
	.st44{fill:none;stroke:#2121F4;stroke-width:2.5;stroke-opacity:0.4;}
	.st45{fill:none;stroke:#E25757;stroke-width:2.5;stroke-opacity:0.4;}
	.st46{fill:none;stroke:#9E9ECB;stroke-width:2.5;stroke-opacity:0.4;}
	.st47{fill:none;stroke:#CF9292;stroke-width:2.5;stroke-opacity:0.4;}
	.st48{fill:none;stroke:#9696CD;stroke-width:2.5;stroke-opacity:0.4;}
	.st49{fill:none;stroke:#F51E1E;stroke-width:2.5;stroke-opacity:0.4;}
	.st50{fill:none;stroke:#4D4DE6;stroke-width:2.5;stroke-opacity:0.4;}
	.st51{fill:none;stroke:#CC9B9B;stroke-width:2.5;stroke-opacity:0.4;}
	.st52{fill:none;stroke:#4545E8;stroke-width:2.5;stroke-opacity:0.4;}
	.st53{fill:none;stroke:#5454E3;stroke-width:2.5;stroke-opacity:0.4;}
	.st54{fill:none;stroke:#8383D4;stroke-width:2.5;stroke-opacity:0.4;}
	.st55{fill:none;stroke:#7272D9;stroke-width:2.5;stroke-opacity:0.4;}
	.st56{fill:none;stroke:#2929F2;stroke-width:2.5;stroke-opacity:0.4;}
	.st57{fill:none;stroke:#7171DA;stroke-width:2.5;stroke-opacity:0.4;}
	.st58{fill:none;stroke:#1E1EF5;stroke-width:2.5;stroke-opacity:0.4;}
	.st59{fill:none;stroke:#6E6EDB;stroke-width:2.5;stroke-opacity:0.4;}
	.st60{fill:none;stroke:#C8A7A7;stroke-width:2.5;stroke-opacity:0.4;}
	.st61{fill:none;stroke:#5D5DE0;stroke-width:2.5;stroke-opacity:0.4;}
	.st62{fill:none;stroke:#6F6FDA;stroke-width:2.5;stroke-opacity:0.4;}
	.st63{fill:none;stroke:#D28989;stroke-width:2.5;stroke-opacity:0.4;}
	.st64{fill:none;stroke:#C8A5A5;stroke-width:2.5;stroke-opacity:0.4;}
	.st65{fill:none;stroke:#B3B3C4;stroke-width:2.5;stroke-opacity:0.4;}
	.st66{fill:none;stroke:#C4B1B1;stroke-width:2.5;stroke-opacity:0.4;}
	.st67{fill:none;stroke:#E35656;stroke-width:2.5;stroke-opacity:0.4;}
	.st68{fill:none;stroke:#DE6363;stroke-width:2.5;stroke-opacity:0.4;}
	.st69{fill:none;stroke:#EA3F3F;stroke-width:2.5;stroke-opacity:0.4;}
	.st70{fill:none;stroke:#7878D7;stroke-width:2.5;stroke-opacity:0.4;}
	.st71{fill:none;stroke:#D97474;stroke-width:2.5;stroke-opacity:0.4;}
	.st72{fill:none;stroke:#D97272;stroke-width:2.5;stroke-opacity:0.4;}
	.st73{fill:none;stroke:#E54E4E;stroke-width:2.5;stroke-opacity:0.4;}
	.st74{fill:none;stroke:#FF0202;stroke-width:2.5;stroke-opacity:0.4;}
	.st75{fill:none;stroke:#F02D2D;stroke-width:2.5;stroke-opacity:0.4;}
	.st76{fill:none;stroke:#FC0B0B;stroke-width:2.5;stroke-opacity:0.4;}
	.st77{fill:none;stroke:#D18C8C;stroke-width:2.5;stroke-opacity:0.4;}
	.st78{fill:none;stroke:#9999CC;stroke-width:2.5;stroke-opacity:0.4;}
	.st79{fill:none;stroke:#6868DD;stroke-width:2.5;stroke-opacity:0.4;}
	.st80{fill:none;stroke:#4B4BE6;stroke-width:2.5;stroke-opacity:0.4;}
	.st81{fill:none;stroke:#DA6F6F;stroke-width:2.5;stroke-opacity:0.4;}
	.st82{fill:none;stroke:#1515F8;stroke-width:2.5;stroke-opacity:0.4;}
	.st83{fill:none;stroke:#7D7DD6;stroke-width:2.5;stroke-opacity:0.4;}
	.st84{fill:none;stroke:#5050E5;stroke-width:2.5;stroke-opacity:0.4;}
	.st85{fill:none;stroke:#DC6B6B;stroke-width:2.5;stroke-opacity:0.4;}
	.st86{fill:none;stroke:#B0B0C5;stroke-width:2.5;stroke-opacity:0.4;}
	.st87{fill:none;stroke:#D87777;stroke-width:2.5;stroke-opacity:0.4;}
	.st88{fill:none;stroke:#6363DE;stroke-width:2.5;stroke-opacity:0.4;}
	.st89{fill:none;stroke:#CA9F9F;stroke-width:2.5;stroke-opacity:0.4;}
	.st90{fill:none;stroke:#1212F9;stroke-width:2.5;stroke-opacity:0.4;}
	.st91{fill:none;stroke:#9595CE;stroke-width:2.5;stroke-opacity:0.4;}
	.st92{fill:none;stroke:#0202FF;stroke-width:2.5;stroke-opacity:0.4;}
	.st93{fill:none;stroke:#7474D9;stroke-width:2.5;stroke-opacity:0.4;}
	.st94{fill:none;stroke:#E45151;stroke-width:2.5;stroke-opacity:0.4;}
	.st95{fill:none;stroke:#FA0F0F;stroke-width:2.5;stroke-opacity:0.4;}
	.st96{fill:none;stroke:#5F5FE0;stroke-width:2.5;stroke-opacity:0.4;}
	.st97{fill:none;stroke:#6060DF;stroke-width:2.5;stroke-opacity:0.4;}
	.st98{fill:none;stroke:#3030EF;stroke-width:2.5;stroke-opacity:0.4;}
	.st99{fill:none;stroke:#CAA1A1;stroke-width:2.5;stroke-opacity:0.4;}
	.st100{fill:none;stroke:#D48383;stroke-width:2.5;stroke-opacity:0.4;}
	.st101{fill:none;stroke:#F42121;stroke-width:2.5;stroke-opacity:0.4;}
	.st102{fill:none;stroke:#D67D7D;stroke-width:2.5;stroke-opacity:0.4;}
	.st103{fill:none;stroke:#CB9C9C;stroke-width:2.5;stroke-opacity:0.4;}
	.st104{fill:none;stroke:#CD9898;stroke-width:2.5;stroke-opacity:0.4;}
	.st105{fill:none;stroke:#C5B0B0;stroke-width:2.5;stroke-opacity:0.4;}
	.st106{fill:none;stroke:#ABABC6;stroke-width:2.5;stroke-opacity:0.4;}
	.st107{fill:none;stroke:#C5AEAE;stroke-width:2.5;stroke-opacity:0.4;}
	.st108{fill:none;stroke:#CB9E9E;stroke-width:2.5;stroke-opacity:0.4;}
	.st109{fill:none;stroke:#D38686;stroke-width:2.5;stroke-opacity:0.4;}
	.st110{fill:none;stroke:#1717F8;stroke-width:2.5;stroke-opacity:0.4;}
	.st111{fill:none;stroke:#DE6565;stroke-width:2.5;stroke-opacity:0.4;}
	.st112{fill:none;stroke:#3B3BEC;stroke-width:2.5;stroke-opacity:0.4;}
	.st113{fill:none;stroke:#C7AAAA;stroke-width:2.5;stroke-opacity:0.4;}
	.st114{fill:none;stroke:#5C5CE1;stroke-width:2.5;stroke-opacity:0.4;}
	.st115{fill:none;stroke:#F12A2A;stroke-width:2.5;stroke-opacity:0.4;}
	.st116{fill:none;stroke:#8C8CD1;stroke-width:2.5;stroke-opacity:0.4;}
	.st117{fill:none;stroke:#9B9BCC;stroke-width:2.5;stroke-opacity:0.4;}
	.st118{fill:none;stroke:#6969DC;stroke-width:2.5;stroke-opacity:0.4;}
	.st119{fill:none;stroke:#F32626;stroke-width:2.5;stroke-opacity:0.4;}
	.st120{fill:none;stroke:#F81717;stroke-width:2.5;stroke-opacity:0.4;}
	.st121{fill:#646464;stroke:#FFFFFF;stroke-width:1.5;}
</style>
<line class="st0" x1="146.6" y1="0" x2="146.6" y2="735"/>
<line class="st0" x1="146.6" y1="600.3" x2="326.6" y2="600.3"/>
<line class="st0" x1="146.6" y1="318.8" x2="326.6" y2="318.8"/>
<line class="st0" x1="146.6" y1="405.4" x2="326.6" y2="405.4"/>
<line class="st0" x1="146.6" y1="149.6" x2="326.6" y2="149.6"/>
<line class="st0" x1="146.6" y1="243" x2="326.6" y2="243"/>
<line class="st0" x1="146.6" y1="178" x2="326.6" y2="178"/>
<line class="st0" x1="146.6" y1="474.4" x2="326.6" y2="474.4"/>
<line class="st0" x1="146.6" y1="524.5" x2="326.6" y2="524.5"/>
<line class="st0" x1="146.6" y1="501.5" x2="326.6" y2="501.5"/>
<line class="st0" x1="146.6" y1="268.7" x2="326.6" y2="268.7"/>
<line class="st0" x1="146.6" y1="178" x2="326.6" y2="178"/>
<line class="st0" x1="146.6" y1="312" x2="326.6" y2="312"/>
<line class="st0" x1="146.6" y1="558.4" x2="326.6" y2="558.4"/>
<line class="st0" x1="146.6" y1="237.5" x2="326.6" y2="237.5"/>
<line class="st0" x1="146.6" y1="538.1" x2="326.6" y2="538.1"/>
<line class="st0" x1="146.6" y1="176.6" x2="326.6" y2="176.6"/>
<line class="st0" x1="146.6" y1="538.1" x2="326.6" y2="538.1"/>
<line class="st0" x1="146.6" y1="282.2" x2="326.6" y2="282.2"/>
<line class="st0" x1="146.6" y1="57.5" x2="326.6" y2="57.5"/>
<line class="st0" x1="146.6" y1="677.5" x2="326.6" y2="677.5"/>
<line class="st0" x1="146.6" y1="214.5" x2="326.6" y2="214.5"/>
<line class="st0" x1="146.6" y1="400" x2="326.6" y2="400"/>
<line class="st0" x1="146.6" y1="341.8" x2="326.6" y2="341.8"/>
<line class="st0" x1="146.6" y1="287.6" x2="326.6" y2="287.6"/>
<line class="st0" x1="146.6" y1="157.7" x2="326.6" y2="157.7"/>
<line class="st0" x1="146.6" y1="348.5" x2="326.6" y2="348.5"/>
<line class="st0" x1="146.6" y1="501.5" x2="326.6" y2="501.5"/>
<line class="st0" x1="146.6" y1="374.3" x2="326.6" y2="374.3"/>
<line class="st0" x1="146.6" y1="483.9" x2="326.6" y2="483.9"/>
<line class="st0" x1="146.6" y1="194.2" x2="326.6" y2="194.2"/>
<text transform="matrix(1 0 0 1 326.6459 603.3384)" class="st1 st2">anthropology</text>
<text transform="matrix(1 0 0 1 326.6459 321.7664)" class="st1 st2">archaeology</text>
<text transform="matrix(1 0 0 1 326.6459 408.4039)" class="st1 st2">art history</text>
<text transform="matrix(1 0 0 1 326.6459 152.5524)" class="st1 st2">astronomy</text>
<text transform="matrix(1 0 0 1 326.6459 245.9585)" class="st1 st2">biochemistry</text>
<text transform="matrix(1 0 0 1 326.6459 180.9803)" class="st1 st2">chemistry</text>
<text transform="matrix(1 0 0 1 326.6459 477.4432)" class="st1 st2">classics</text>
<text transform="matrix(1 0 0 1 326.6459 527.5306)" class="st1 st2">communications</text>
<text transform="matrix(1 0 0 1 326.6459 504.5175)" class="st1 st2">comparative literature</text>
<text transform="matrix(1 0 0 1 326.6459 271.679)" class="st1 st2">computer science</text>
<text transform="matrix(1 0 0 1 326.6459 180.9803)" class="st1 st2">earth sciences</text>
<text transform="matrix(1 0 0 1 326.6459 314.9978)" class="st1 st2">economics</text>
<text transform="matrix(1 0 0 1 326.6459 561.3734)" class="st1 st2">education</text>
<text transform="matrix(1 0 0 1 326.6459 240.5437)" class="st1 st2">engineering</text>
<text transform="matrix(1 0 0 1 326.6459 541.0677)" class="st1 st2">english literature</text>
<text transform="matrix(1 0 0 1 326.6459 179.6266)" class="st1 st2">evolutionary biology</text>
<text transform="matrix(1 0 0 1 326.6459 541.0677)" class="st1 st2">history</text>
<text transform="matrix(1 0 0 1 326.6459 285.2162)" class="st1 st2">linguistics</text>
<text transform="matrix(1 0 0 1 326.6459 60.5)" class="st1 st2">mathematics</text>
<text transform="matrix(1 0 0 1 326.6459 680.5)" class="st1 st2">middle eastern studies</text>
<text transform="matrix(1 0 0 1 326.6459 217.5306)" class="st1 st2">molecular biology</text>
<text transform="matrix(1 0 0 1 326.6459 402.9891)" class="st1 st2">music</text>
<text transform="matrix(1 0 0 1 326.6459 344.7795)" class="st1 st2">neuroscience</text>
<text transform="matrix(1 0 0 1 326.6459 290.631)" class="st1 st2">philosophy</text>
<text transform="matrix(1 0 0 1 326.6459 160.6747)" class="st1 st2">physics</text>
<text transform="matrix(1 0 0 1 326.6459 351.548)" class="st1 st2">political science</text>
<text transform="matrix(1 0 0 1 326.6459 504.5175)" class="st1 st2">psychology</text>
<text transform="matrix(1 0 0 1 326.6459 377.2686)" class="st1 st2">sociology</text>
<text transform="matrix(1 0 0 1 326.6459 486.9192)" class="st1 st2">spanish literature</text>
<text transform="matrix(1 0 0 1 326.6459 197.2249)" class="st1 st2">statistics</text>
<text transform="matrix(6.123234e-17 -1 1 6.123234e-17 142.6459 47.5)" class="st1 st2">S vs E</text>
<path class="st3" d="M146.6,405.4c-72.2,97.5-72.2,162.4,0,194.9"/>
<path class="st3" d="M146.6,268.7c-122.8,165.8-122.8,276.4,0,331.7"/>
<path class="st3" d="M146.6,558.4c-15.5,21-15.5,35,0,42"/>
<path class="st3" d="M146.6,214.5C3.8,407.4,3.8,536,146.6,600.3"/>
<path class="st3" d="M146.6,400c-74.2,100.2-74.2,167,0,200.3"/>
<path class="st3" d="M146.6,287.6C30.8,444,30.8,548.2,146.6,600.3"/>
<path class="st3" d="M146.6,157.7c-163.9,221.3-163.9,368.9,0,442.7"/>
<path class="st3" d="M146.6,405.4c32.1-43.3,32.1-72.2,0-86.6"/>
<path class="st3" d="M146.6,243c-28.1,37.9-28.1,63.2,0,75.8"/>
<path class="st3" d="M146.6,178c-52.1,70.4-52.1,117.3,0,140.8"/>
<path class="st3" d="M146.6,558.4c88.7-119.8,88.7-199.7,0-239.6"/>
<path class="st3" d="M146.6,538.1c81.2-109.7,81.2-182.8,0-219.3"/>
<path class="st3" d="M146.6,176.6c-52.6,71.1-52.6,118.4,0,142.1"/>
<path class="st3" d="M146.6,282.2c-13.5,18.3-13.5,30.5,0,36.6"/>
<path class="st3" d="M146.6,400c30.1-40.6,30.1-67.7,0-81.2"/>
<path class="st3" d="M146.6,341.8c8.5-11.5,8.5-19.2,0-23"/>
<path class="st3" d="M146.6,501.5c67.7-91.4,67.7-152.3,0-182.8"/>
<path class="st3" d="M146.6,374.3c20.6-27.8,20.6-46.3,0-55.5"/>
<path class="st3" d="M146.6,600.3c72.2-97.5,72.2-162.4,0-194.9"/>
<path class="st3" d="M146.6,501.5c35.6-48.1,35.6-80.1,0-96.1"/>
<path class="st3" d="M146.6,178c-84.2,113.7-84.2,189.5,0,227.4"/>
<path class="st3" d="M146.6,57.5c-128.9,174-128.9,289.9,0,347.9"/>
<path class="st3" d="M146.6,341.8c-23.6,31.8-23.6,53,0,63.6"/>
<path class="st3" d="M146.6,287.6c-43.6,58.9-43.6,98.1,0,117.8"/>
<path class="st3" d="M146.6,348.5c-21.1,28.4-21.1,47.4,0,56.9"/>
<path class="st3" d="M146.6,501.5c35.6-48.1,35.6-80.1,0-96.1"/>
<path class="st3" d="M146.6,483.9c29.1-39.3,29.1-65.4,0-78.5"/>
<path class="st3" d="M146.6,194.2c-78.2,105.6-78.2,176,0,211.2"/>
<path class="st3" d="M146.6,268.7c44.1-59.6,44.1-99.3,0-119.1"/>
<path class="st3" d="M146.6,178c10.5-14.2,10.5-23.7,0-28.4"/>
<path class="st3" d="M146.6,237.5c32.6-44,32.6-73.3,0-88"/>
<path class="st3" d="M146.6,341.8c71.2-96.1,71.2-160.2,0-192.2"/>
<path class="st3" d="M146.6,318.8c28.1-37.9,28.1-63.2,0-75.8"/>
<path class="st3" d="M146.6,405.4c60.2-81.2,60.2-135.4,0-162.4"/>
<path class="st3" d="M146.6,268.7c9.5-12.9,9.5-21.4,0-25.7"/>
<path class="st3" d="M146.6,237.5c-2,2.7-2,4.5,0,5.4"/>
<path class="st3" d="M146.6,538.1c109.3-147.6,109.3-245.9,0-295.1"/>
<path class="st3" d="M146.6,176.6c-24.6,33.2-24.6,55.3,0,66.3"/>
<path class="st3" d="M146.6,538.1c109.3-147.6,109.3-245.9,0-295.1"/>
<path class="st3" d="M146.6,214.5c-10.5,14.2-10.5,23.7,0,28.4"/>
<path class="st3" d="M146.6,287.6c16.5-22.3,16.5-37.2,0-44.7"/>
<path class="st3" d="M146.6,348.5c39.1-52.8,39.1-88,0-105.6"/>
<path class="st3" d="M146.6,405.4c84.2-113.7,84.2-189.5,0-227.4"/>
<path class="st3" d="M146.6,474.4c109.8-148.2,109.8-247.1,0-296.5"/>
<path class="st3" d="M146.6,268.7c33.6-45.3,33.6-75.6,0-90.7"/>
<path class="st3" d="M146.6,178L146.6,178"/>
<path class="st3" d="M146.6,558.4c140.9-190.2,140.9-317,0-380.4"/>
<path class="st3" d="M146.6,237.5c22.1-29.8,22.1-49.6,0-59.6"/>
<path class="st3" d="M146.6,176.6c-0.5,0.7-0.5,1.1,0,1.4"/>
<path class="st3" d="M146.6,677.5c185-249.8,185-416.3,0-499.5"/>
<path class="st3" d="M146.6,157.7c-7.5,10.2-7.5,16.9,0,20.3"/>
<path class="st3" d="M146.6,348.5c63.2-85.3,63.2-142.1,0-170.6"/>
<path class="st3" d="M146.6,312c-60.2,81.2-60.2,135.4,0,162.4"/>
<path class="st3" d="M146.6,558.4c31.1-42,31.1-69.9,0-83.9"/>
<path class="st3" d="M146.6,57.5C-7.8,266-7.8,405,146.6,474.4"/>
<path class="st3" d="M146.6,157.7c-117.3,158.4-117.3,264,0,316.8"/>
<path class="st3" d="M146.6,318.8c-76.2,102.9-76.2,171.5,0,205.8"/>
<path class="st3" d="M146.6,243c-104.3,140.8-104.3,234.6,0,281.6"/>
<path class="st3" d="M146.6,268.7c-94.8,127.9-94.8,213.2,0,255.9"/>
<path class="st3" d="M146.6,558.4c12.5-16.9,12.5-28.2,0-33.8"/>
<path class="st3" d="M146.6,237.5c-106.3,143.5-106.3,239.2,0,287"/>
<path class="st3" d="M146.6,57.5c-173,233.5-173,389.2,0,467"/>
<path class="st3" d="M146.6,157.7c-135.9,183.4-135.9,305.7,0,366.9"/>
<path class="st3" d="M146.6,374.3c-55.7,75.1-55.7,125.2,0,150.3"/>
<path class="st3" d="M146.6,600.3c36.6-49.4,36.6-82.4,0-98.8"/>
<path class="st3" d="M146.6,405.4c-35.6,48.1-35.6,80.1,0,96.1"/>
<path class="st3" d="M146.6,268.7c-86.2,116.4-86.2,194,0,232.8"/>
<path class="st3" d="M146.6,282.2c-81.2,109.7-81.2,182.8,0,219.3"/>
<path class="st3" d="M146.6,157.7c-127.3,171.9-127.3,286.5,0,343.8"/>
<path class="st3" d="M146.6,149.6c-44.1,59.6-44.1,99.3,0,119.1"/>
<path class="st3" d="M146.6,178c-33.6,45.3-33.6,75.6,0,90.7"/>
<path class="st3" d="M146.6,558.4c107.3-144.8,107.3-241.4,0-289.7"/>
<path class="st3" d="M146.6,237.5c-11.5,15.6-11.5,25.9,0,31.1"/>
<path class="st3" d="M146.6,57.5c-78.2,105.6-78.2,176,0,211.2"/>
<path class="st3" d="M146.6,400c48.6-65.7,48.6-109.4,0-131.3"/>
<path class="st3" d="M146.6,483.9c79.7-107.6,79.7-179.4,0-215.2"/>
<path class="st3" d="M146.6,524.5C275,351.3,275,235.7,146.6,178"/>
<path class="st3" d="M146.6,268.7c33.6-45.3,33.6-75.6,0-90.7"/>
<path class="st3" d="M146.6,558.4c140.9-190.2,140.9-317,0-380.4"/>
<path class="st3" d="M146.6,237.5c22.1-29.8,22.1-49.6,0-59.6"/>
<path class="st3" d="M146.6,57.5c-44.6,60.2-44.6,100.4,0,120.5"/>
<path class="st3" d="M146.6,341.8c60.7-81.9,60.7-136.5,0-163.8"/>
<path class="st3" d="M146.6,287.6c40.6-54.8,40.6-91.4,0-109.7"/>
<path class="st3" d="M146.6,348.5c63.2-85.3,63.2-142.1,0-170.6"/>
<path class="st3" d="M146.6,501.5c119.8-161.8,119.8-269.6,0-323.5"/>
<path class="st3" d="M146.6,149.6c-60.2,81.2-60.2,135.4,0,162.4"/>
<path class="st3" d="M146.6,474.4c60.2-81.2,60.2-135.4,0-162.4"/>
<path class="st3" d="M146.6,524.5c78.7-106.3,78.7-177.1,0-212.5"/>
<path class="st3" d="M146.6,501.5c70.2-94.8,70.2-157.9,0-189.5"/>
<path class="st3" d="M146.6,268.7c-16,21.7-16,36.1,0,43.3"/>
<path class="st3" d="M146.6,558.4c91.3-123.2,91.3-205.3,0-246.4"/>
<path class="st3" d="M146.6,237.5c-27.6,37.2-27.6,62,0,74.5"/>
<path class="st3" d="M146.6,282.2c-11,14.9-11,24.8,0,29.8"/>
<path class="st3" d="M146.6,57.5c-94.3,127.2-94.3,212.1,0,254.5"/>
<path class="st3" d="M146.6,214.5c-36.1,48.7-36.1,81.2,0,97.5"/>
<path class="st3" d="M146.6,157.7c-57.2,77.2-57.2,128.6,0,154.3"/>
<path class="st3" d="M146.6,374.3c23.1-31.1,23.1-51.9,0-62.3"/>
<path class="st3" d="M146.6,243c-116.8,157.7-116.8,262.8,0,315.4"/>
<path class="st3" d="M146.6,178C5.8,368.2,5.8,495,146.6,558.4"/>
<path class="st3" d="M146.6,268.7c-107.3,144.8-107.3,241.4,0,289.7"/>
<path class="st3" d="M146.6,312c-91.3,123.2-91.3,205.3,0,246.4"/>
<path class="st3" d="M146.6,237.5C27.8,398,27.8,504.9,146.6,558.4"/>
<path class="st3" d="M146.6,538.1c-7.5,10.2-7.5,16.9,0,20.3"/>
<path class="st3" d="M146.6,57.5c-185.5,250.4-185.5,417.4,0,500.9"/>
<path class="st3" d="M146.6,214.5c-127.3,171.9-127.3,286.5,0,343.8"/>
<path class="st3" d="M146.6,287.6C46.4,423,46.4,513.2,146.6,558.4"/>
<path class="st3" d="M146.6,157.7C-1.8,358-1.8,491.6,146.6,558.4"/>
<path class="st3" d="M146.6,348.5c-77.7,104.9-77.7,174.9,0,209.8"/>
<path class="st3" d="M146.6,501.5c-21.1,28.4-21.1,47.4,0,56.9"/>
<path class="st3" d="M146.6,194.2c-134.9,182.1-134.9,303.5,0,364.1"/>
<path class="st3" d="M146.6,149.6c-32.6,44-32.6,73.3,0,88"/>
<path class="st3" d="M146.6,243c2-2.7,2-4.5,0-5.4"/>
<path class="st3" d="M146.6,178c-22.1,29.8-22.1,49.6,0,59.6"/>
<path class="st3" d="M146.6,268.7c11.5-15.6,11.5-25.9,0-31.1"/>
<path class="st3" d="M146.6,178c-22.1,29.8-22.1,49.6,0,59.6"/>
<path class="st3" d="M146.6,312c27.6-37.2,27.6-62,0-74.5"/>
<path class="st3" d="M146.6,558.4c118.8-160.4,118.8-267.4,0-320.8"/>
<path class="st3" d="M146.6,538.1c111.3-150.3,111.3-250.4,0-300.5"/>
<path class="st3" d="M146.6,677.5c162.9-220,162.9-366.6,0-440"/>
<path class="st3" d="M146.6,214.5c-8.5,11.5-8.5,19.2,0,23"/>
<path class="st3" d="M146.6,157.7c-29.6,39.9-29.6,66.6,0,79.9"/>
<path class="st3" d="M146.6,374.3c50.6-68.4,50.6-113.9,0-136.7"/>
<path class="st3" d="M146.6,318.8c-81.2,109.7-81.2,182.8,0,219.3"/>
<path class="st3" d="M146.6,268.7c-99.8,134.7-99.8,224.5,0,269.4"/>
<path class="st3" d="M146.6,237.5C35.3,387.8,35.3,488,146.6,538.1"/>
<path class="st3" d="M146.6,176.6c-133.9,180.7-133.9,301.2,0,361.4"/>
<path class="st3" d="M146.6,214.5c-119.8,161.8-119.8,269.6,0,323.5"/>
<path class="st3" d="M146.6,501.5c-13.5,18.3-13.5,30.5,0,36.6"/>
<path class="st3" d="M146.6,374.3c-60.7,81.9-60.7,136.5,0,163.8"/>
<path class="st3" d="M146.6,483.9c-20.1,27.1-20.1,45.1,0,54.1"/>
<path class="st3" d="M146.6,600.3c156.9-211.9,156.9-353.1,0-423.7"/>
<path class="st3" d="M146.6,318.8c52.6-71.1,52.6-118.4,0-142.1"/>
<path class="st3" d="M146.6,243c24.6-33.2,24.6-55.3,0-66.3"/>
<path class="st3" d="M146.6,178c0.5-0.7,0.5-1.1,0-1.4"/>
<path class="st3" d="M146.6,524.5c128.9-174,128.9-289.9,0-347.9"/>
<path class="st3" d="M146.6,312c50.1-67.7,50.1-112.8,0-135.4"/>
<path class="st3" d="M146.6,558.4c141.4-190.9,141.4-318.1,0-381.7"/>
<path class="st3" d="M146.6,538.1c133.9-180.7,133.9-301.2,0-361.4"/>
<path class="st3" d="M146.6,282.2c39.1-52.8,39.1-88,0-105.6"/>
<path class="st3" d="M146.6,341.8c61.2-82.6,61.2-137.6,0-165.2"/>
<path class="st3" d="M146.6,483.9c113.8-153.6,113.8-256.1,0-307.3"/>
<path class="st3" d="M146.6,194.2c6.5-8.8,6.5-14.7,0-17.6"/>
<path class="st3" d="M146.6,600.3c23.1-31.1,23.1-51.9,0-62.3"/>
<path class="st3" d="M146.6,524.5c-5,6.8-5,11.3,0,13.5"/>
<path class="st3" d="M146.6,312c-83.7,113-83.7,188.4,0,226.1"/>
<path class="st3" d="M146.6,558.4c7.5-10.2,7.5-16.9,0-20.3"/>
<path class="st3" d="M146.6,237.5C35.3,387.8,35.3,488,146.6,538.1"/>
<path class="st3" d="M146.6,287.6c-92.8,125.2-92.8,208.7,0,250.4"/>
<path class="st3" d="M146.6,157.7c-140.9,190.2-140.9,317,0,380.4"/>
<path class="st3" d="M146.6,348.5c-70.2,94.8-70.2,157.9,0,189.5"/>
<path class="st3" d="M146.6,501.5c-13.5,18.3-13.5,30.5,0,36.6"/>
<path class="st3" d="M146.6,405.4c45.6-61.6,45.6-102.7,0-123.2"/>
<path class="st3" d="M146.6,178c-38.6,52.1-38.6,86.9,0,104.2"/>
<path class="st3" d="M146.6,501.5c81.2-109.7,81.2-182.8,0-219.3"/>
<path class="st3" d="M146.6,178c-38.6,52.1-38.6,86.9,0,104.2"/>
<path class="st3" d="M146.6,538.1c94.8-127.9,94.8-213.2,0-255.9"/>
<path class="st3" d="M146.6,677.5c146.4-197.6,146.4-329.4,0-395.3"/>
<path class="st3" d="M146.6,214.5c-25.1,33.8-25.1,56.4,0,67.7"/>
<path class="st3" d="M146.6,400c43.6-58.9,43.6-98.1,0-117.8"/>
<path class="st3" d="M146.6,483.9c74.7-100.9,74.7-168.1,0-201.7"/>
<path class="st3" d="M146.6,405.4c128.9-174,128.9-289.9,0-347.9"/>
<path class="st3" d="M146.6,474.4C301.1,266,301.1,127,146.6,57.5"/>
<path class="st3" d="M146.6,268.7c78.2-105.6,78.2-176,0-211.2"/>
<path class="st3" d="M146.6,558.4c185.5-250.4,185.5-417.4,0-500.9"/>
<path class="st3" d="M146.6,237.5c66.7-90,66.7-150,0-180"/>
<path class="st3" d="M146.6,677.5c229.6-310,229.6-516.7,0-620"/>
<path class="st3" d="M146.6,341.8c105.3-142.1,105.3-236.9,0-284.3"/>
<path class="st3" d="M146.6,157.7c37.1-50.1,37.1-83.5,0-100.2"/>
<path class="st3" d="M146.6,348.5c107.8-145.5,107.8-242.5,0-291"/>
<path class="st3" d="M146.6,374.3c117.3-158.4,117.3-264,0-316.8"/>
<path class="st3" d="M146.6,483.9c157.9-213.2,157.9-355.3,0-426.4"/>
<path class="st3" d="M146.6,194.2c50.6-68.4,50.6-113.9,0-136.7"/>
<path class="st3" d="M146.6,318.8c-132.9,179.4-132.9,298.9,0,358.7"/>
<path class="st3" d="M146.6,178c-185,249.8-185,416.3,0,499.5"/>
<path class="st3" d="M146.6,524.5C90,601,90,652,146.6,677.5"/>
<path class="st3" d="M146.6,501.5c-65.2,88-65.2,146.7,0,176"/>
<path class="st3" d="M146.6,268.7c-151.4,204.4-151.4,340.7,0,408.8"/>
<path class="st3" d="M146.6,178c-185,249.8-185,416.3,0,499.5"/>
<path class="st3" d="M146.6,237.5c-162.9,220-162.9,366.6,0,440"/>
<path class="st3" d="M146.6,287.6C2.3,482.6,2.3,612.5,146.6,677.5"/>
<path class="st3" d="M146.6,157.7c-192.5,259.9-192.5,433.2,0,519.8"/>
<path class="st3" d="M146.6,243c10.5-14.2,10.5-23.7,0-28.4"/>
<path class="st3" d="M146.6,268.7c20.1-27.1,20.1-45.1,0-54.1"/>
<path class="st3" d="M146.6,538.1c119.8-161.8,119.8-269.6,0-323.5"/>
<path class="st3" d="M146.6,282.2c25.1-33.8,25.1-56.4,0-67.7"/>
<path class="st3" d="M146.6,57.5c-58.2,78.5-58.2,130.9,0,157"/>
<path class="st3" d="M146.6,157.7c-21.1,28.4-21.1,47.4,0,56.9"/>
<path class="st3" d="M146.6,348.5c49.6-67,49.6-111.7,0-134"/>
<path class="st3" d="M146.6,237.5c-60.2,81.2-60.2,135.4,0,162.4"/>
<path class="st3" d="M146.6,538.1c51.1-69,51.1-115.1,0-138.1"/>
<path class="st3" d="M146.6,282.2c-43.6,58.9-43.6,98.1,0,117.8"/>
<path class="st3" d="M146.6,57.5C19.8,228.7,19.8,342.9,146.6,400"/>
<path class="st3" d="M146.6,348.5c-19.1,25.7-19.1,42.9,0,51.4"/>
<path class="st3" d="M146.6,374.3c-9.5,12.9-9.5,21.4,0,25.7"/>
<path class="st3" d="M146.6,483.9c31.1-42,31.1-69.9,0-83.9"/>
<path class="st3" d="M146.6,405.4c23.6-31.8,23.6-53,0-63.6"/>
<path class="st3" d="M146.6,524.5c67.7-91.4,67.7-152.3,0-182.8"/>
<path class="st3" d="M146.6,268.7c-27.1,36.6-27.1,60.9,0,73.1"/>
<path class="st3" d="M146.6,237.5c-38.6,52.1-38.6,86.9,0,104.2"/>
<path class="st3" d="M146.6,538.1c72.7-98.1,72.7-163.6,0-196.3"/>
<path class="st3" d="M146.6,57.5c-105.3,142.1-105.3,236.9,0,284.3"/>
<path class="st3" d="M146.6,501.5c59.2-79.9,59.2-133.1,0-159.7"/>
<path class="st3" d="M146.6,600.3c115.8-156.4,115.8-260.6,0-312.7"/>
<path class="st3" d="M146.6,405.4c43.6-58.9,43.6-98.1,0-117.8"/>
<path class="st3" d="M146.6,524.5c87.7-118.4,87.7-197.4,0-236.9"/>
<path class="st3" d="M146.6,268.7c-7,9.5-7,15.8,0,19"/>
<path class="st3" d="M146.6,558.4c100.3-135.4,100.3-225.6,0-270.7"/>
<path class="st3" d="M146.6,176.6c-41.1,55.5-41.1,92.5,0,111"/>
<path class="st3" d="M146.6,282.2c-2,2.7-2,4.5,0,5.4"/>
<path class="st3" d="M146.6,57.5c-85.2,115.1-85.2,191.8,0,230.1"/>
<path class="st3" d="M146.6,214.5c-27.1,36.6-27.1,60.9,0,73.1"/>
<path class="st3" d="M146.6,157.7c-48.1,65-48.1,108.3,0,130"/>
<path class="st3" d="M146.6,405.4c91.8-123.9,91.8-206.4,0-247.7"/>
<path class="st3" d="M146.6,243c31.6-42.6,31.6-71.1,0-85.3"/>
<path class="st3" d="M146.6,178c7.5-10.2,7.5-16.9,0-20.3"/>
<path class="st3" d="M146.6,474.4c117.3-158.4,117.3-264,0-316.8"/>
<path class="st3" d="M146.6,268.7c41.1-55.5,41.1-92.5,0-111"/>
<path class="st3" d="M146.6,178c7.5-10.2,7.5-16.9,0-20.3"/>
<path class="st3" d="M146.6,558.4c148.4-200.3,148.4-333.9,0-400.7"/>
<path class="st3" d="M146.6,237.5c29.6-39.9,29.6-66.6,0-79.9"/>
<path class="st3" d="M146.6,282.2c46.1-62.3,46.1-103.8,0-124.5"/>
<path class="st3" d="M146.6,57.5c-37.1,50.1-37.1,83.5,0,100.2"/>
<path class="st3" d="M146.6,341.8c68.2-92.1,68.2-153.4,0-184.1"/>
<path class="st3" d="M146.6,600.3c93.3-125.9,93.3-209.8,0-251.8"/>
<path class="st3" d="M146.6,405.4c21.1-28.4,21.1-47.4,0-56.9"/>
<path class="st3" d="M146.6,243c-39.1,52.8-39.1,88,0,105.6"/>
<path class="st3" d="M146.6,474.4c46.6-62.9,46.6-104.9,0-125.9"/>
<path class="st3" d="M146.6,524.5c65.2-88,65.2-146.7,0-176"/>
<path class="st3" d="M146.6,176.6c-63.7,86-63.7,143.3,0,171.9"/>
<path class="st3" d="M146.6,341.8c-2.5,3.4-2.5,5.6,0,6.8"/>
<path class="st3" d="M146.6,287.6c-22.6,30.5-22.6,50.8,0,60.9"/>
<path class="st3" d="M146.6,157.7c-70.7,95.4-70.7,159.1,0,190.9"/>
<path class="st3" d="M146.6,501.5c56.7-76.5,56.7-127.5,0-153"/>
<path class="st3" d="M146.6,374.3c9.5-12.9,9.5-21.4,0-25.7"/>
<path class="st3" d="M146.6,483.9c50.1-67.7,50.1-112.8,0-135.4"/>
<path class="st3" d="M146.6,501.5L146.6,501.5"/>
<path class="st3" d="M146.6,268.7c-86.2,116.4-86.2,194,0,232.8"/>
<path class="st3" d="M146.6,312c-70.2,94.8-70.2,157.9,0,189.5"/>
<path class="st3" d="M146.6,558.4c21.1-28.4,21.1-47.4,0-56.9"/>
<path class="st3" d="M146.6,237.5c-97.8,132-97.8,220,0,264"/>
<path class="st3" d="M146.6,176.6c-120.3,162.4-120.3,270.7,0,324.9"/>
<path class="st3" d="M146.6,538.1c13.5-18.3,13.5-30.5,0-36.6"/>
<path class="st3" d="M146.6,282.2c-81.2,109.7-81.2,182.8,0,219.3"/>
<path class="st3" d="M146.6,677.5c65.2-88,65.2-146.7,0-176"/>
<path class="st3" d="M146.6,341.8c-59.2,79.9-59.2,133.1,0,159.7"/>
<path class="st3" d="M146.6,287.6c-79.2,106.9-79.2,178.2,0,213.9"/>
<path class="st3" d="M146.6,194.2c-113.8,153.6-113.8,256.1,0,307.3"/>
<path class="st3" d="M146.6,318.8c-20.6,27.8-20.6,46.3,0,55.5"/>
<path class="st3" d="M146.6,405.4c11.5-15.6,11.5-25.9,0-31.1"/>
<path class="st3" d="M146.6,474.4c37.1-50.1,37.1-83.5,0-100.2"/>
<path class="st3" d="M146.6,501.5c47.1-63.6,47.1-106,0-127.2"/>
<path class="st3" d="M146.6,558.4c68.2-92.1,68.2-153.4,0-184.1"/>
<path class="st3" d="M146.6,176.6c-73.2,98.8-73.2,164.7,0,197.6"/>
<path class="st3" d="M146.6,214.5c-59.2,79.9-59.2,133.1,0,159.7"/>
<path class="st3" d="M146.6,524.5c15-20.3,15-33.8,0-40.6"/>
<path class="st3" d="M146.6,178c-113.3,153-113.3,254.9,0,305.9"/>
<path class="st3" d="M146.6,312c-63.7,86-63.7,143.3,0,171.9"/>
<path class="st3" d="M146.6,176.6c-113.8,153.6-113.8,256.1,0,307.3"/>
<path class="st3" d="M146.6,57.5c-157.9,213.2-157.9,355.3,0,426.4"/>
<path class="st3" d="M146.6,178c-6,8.1-6,13.5,0,16.2"/>
<path class="st3" d="M146.6,558.4c134.9-182.1,134.9-303.5,0-364.1"/>
<path class="st3" d="M146.6,538.1c127.3-171.9,127.3-286.5,0-343.8"/>
<path class="st3" d="M146.6,282.2c32.6-44,32.6-73.3,0-88"/>
<path class="st3" d="M146.6,57.5c-50.6,68.4-50.6,113.9,0,136.7"/>
<path class="st3" d="M146.6,214.5c7.5-10.2,7.5-16.9,0-20.3"/>
<path class="st3" d="M146.6,157.7c-13.5,18.3-13.5,30.5,0,36.6"/>
<path class="st4" d="M146.6,405.4c-72.2,97.5-72.2,162.4,0,194.9"/>
<path class="st5" d="M146.6,268.7c-122.8,165.8-122.8,276.4,0,331.7"/>
<path class="st6" d="M146.6,558.4c-15.5,21-15.5,35,0,42"/>
<path class="st7" d="M146.6,214.5C3.8,407.4,3.8,536,146.6,600.3"/>
<path class="st8" d="M146.6,400c-74.2,100.2-74.2,167,0,200.3"/>
<path class="st9" d="M146.6,287.6C30.8,444,30.8,548.2,146.6,600.3"/>
<path class="st10" d="M146.6,157.7c-163.9,221.3-163.9,368.9,0,442.7"/>
<path class="st11" d="M146.6,405.4c32.1-43.3,32.1-72.2,0-86.6"/>
<path class="st7" d="M146.6,243c-28.1,37.9-28.1,63.2,0,75.8"/>
<path class="st8" d="M146.6,178c-52.1,70.4-52.1,117.3,0,140.8"/>
<path class="st12" d="M146.6,558.4c88.7-119.8,88.7-199.7,0-239.6"/>
<path class="st7" d="M146.6,538.1c81.2-109.7,81.2-182.8,0-219.3"/>
<path class="st7" d="M146.6,176.6c-52.6,71.1-52.6,118.4,0,142.1"/>
<path class="st8" d="M146.6,282.2c-13.5,18.3-13.5,30.5,0,36.6"/>
<path class="st7" d="M146.6,400c30.1-40.6,30.1-67.7,0-81.2"/>
<path class="st8" d="M146.6,341.8c8.5-11.5,8.5-19.2,0-23"/>
<path class="st8" d="M146.6,501.5c67.7-91.4,67.7-152.3,0-182.8"/>
<path class="st8" d="M146.6,374.3c20.6-27.8,20.6-46.3,0-55.5"/>
<path class="st13" d="M146.6,600.3c72.2-97.5,72.2-162.4,0-194.9"/>
<path class="st14" d="M146.6,501.5c35.6-48.1,35.6-80.1,0-96.1"/>
<path class="st14" d="M146.6,178c-84.2,113.7-84.2,189.5,0,227.4"/>
<path class="st14" d="M146.6,57.5c-128.9,174-128.9,289.9,0,347.9"/>
<path class="st8" d="M146.6,341.8c-23.6,31.8-23.6,53,0,63.6"/>
<path class="st15" d="M146.6,287.6c-43.6,58.9-43.6,98.1,0,117.8"/>
<path class="st14" d="M146.6,348.5c-21.1,28.4-21.1,47.4,0,56.9"/>
<path class="st14" d="M146.6,501.5c35.6-48.1,35.6-80.1,0-96.1"/>
<path class="st14" d="M146.6,483.9c29.1-39.3,29.1-65.4,0-78.5"/>
<path class="st14" d="M146.6,194.2c-78.2,105.6-78.2,176,0,211.2"/>
<path class="st16" d="M146.6,268.7c44.1-59.6,44.1-99.3,0-119.1"/>
<path class="st7" d="M146.6,178c10.5-14.2,10.5-23.7,0-28.4"/>
<path class="st7" d="M146.6,237.5c32.6-44,32.6-73.3,0-88"/>
<path class="st16" d="M146.6,341.8c71.2-96.1,71.2-160.2,0-192.2"/>
<path class="st7" d="M146.6,318.8c28.1-37.9,28.1-63.2,0-75.8"/>
<path class="st7" d="M146.6,405.4c60.2-81.2,60.2-135.4,0-162.4"/>
<path class="st17" d="M146.6,268.7c9.5-12.9,9.5-21.4,0-25.7"/>
<path class="st18" d="M146.6,237.5c-2,2.7-2,4.5,0,5.4"/>
<path class="st19" d="M146.6,538.1c109.3-147.6,109.3-245.9,0-295.1"/>
<path class="st20" d="M146.6,176.6c-24.6,33.2-24.6,55.3,0,66.3"/>
<path class="st19" d="M146.6,538.1c109.3-147.6,109.3-245.9,0-295.1"/>
<path class="st21" d="M146.6,214.5c-10.5,14.2-10.5,23.7,0,28.4"/>
<path class="st19" d="M146.6,287.6c16.5-22.3,16.5-37.2,0-44.7"/>
<path class="st19" d="M146.6,348.5c39.1-52.8,39.1-88,0-105.6"/>
<path class="st7" d="M146.6,405.4c84.2-113.7,84.2-189.5,0-227.4"/>
<path class="st22" d="M146.6,474.4c109.8-148.2,109.8-247.1,0-296.5"/>
<path class="st23" d="M146.6,268.7c33.6-45.3,33.6-75.6,0-90.7"/>
<path class="st24" d="M146.6,178L146.6,178"/>
<path class="st25" d="M146.6,558.4c140.9-190.2,140.9-317,0-380.4"/>
<path class="st26" d="M146.6,237.5c22.1-29.8,22.1-49.6,0-59.6"/>
<path class="st27" d="M146.6,176.6c-0.5,0.7-0.5,1.1,0,1.4"/>
<path class="st22" d="M146.6,677.5c185-249.8,185-416.3,0-499.5"/>
<path class="st28" d="M146.6,157.7c-7.5,10.2-7.5,16.9,0,20.3"/>
<path class="st22" d="M146.6,348.5c63.2-85.3,63.2-142.1,0-170.6"/>
<path class="st8" d="M146.6,312c-60.2,81.2-60.2,135.4,0,162.4"/>
<path class="st29" d="M146.6,558.4c31.1-42,31.1-69.9,0-83.9"/>
<path class="st8" d="M146.6,57.5C-7.8,266-7.8,405,146.6,474.4"/>
<path class="st7" d="M146.6,157.7c-117.3,158.4-117.3,264,0,316.8"/>
<path class="st7" d="M146.6,318.8c-76.2,102.9-76.2,171.5,0,205.8"/>
<path class="st8" d="M146.6,243c-104.3,140.8-104.3,234.6,0,281.6"/>
<path class="st30" d="M146.6,268.7c-94.8,127.9-94.8,213.2,0,255.9"/>
<path class="st25" d="M146.6,558.4c12.5-16.9,12.5-28.2,0-33.8"/>
<path class="st31" d="M146.6,237.5c-106.3,143.5-106.3,239.2,0,287"/>
<path class="st32" d="M146.6,57.5c-173,233.5-173,389.2,0,467"/>
<path class="st33" d="M146.6,157.7c-135.9,183.4-135.9,305.7,0,366.9"/>
<path class="st34" d="M146.6,374.3c-55.7,75.1-55.7,125.2,0,150.3"/>
<path class="st8" d="M146.6,600.3c36.6-49.4,36.6-82.4,0-98.8"/>
<path class="st7" d="M146.6,405.4c-35.6,48.1-35.6,80.1,0,96.1"/>
<path class="st7" d="M146.6,268.7c-86.2,116.4-86.2,194,0,232.8"/>
<path class="st35" d="M146.6,282.2c-81.2,109.7-81.2,182.8,0,219.3"/>
<path class="st8" d="M146.6,157.7c-127.3,171.9-127.3,286.5,0,343.8"/>
<path class="st36" d="M146.6,149.6c-44.1,59.6-44.1,99.3,0,119.1"/>
<path class="st37" d="M146.6,178c-33.6,45.3-33.6,75.6,0,90.7"/>
<path class="st38" d="M146.6,558.4c107.3-144.8,107.3-241.4,0-289.7"/>
<path class="st39" d="M146.6,237.5c-11.5,15.6-11.5,25.9,0,31.1"/>
<path class="st40" d="M146.6,57.5c-78.2,105.6-78.2,176,0,211.2"/>
<path class="st36" d="M146.6,400c48.6-65.7,48.6-109.4,0-131.3"/>
<path class="st36" d="M146.6,483.9c79.7-107.6,79.7-179.4,0-215.2"/>
<path class="st7" d="M146.6,524.5C275,351.3,275,235.7,146.6,178"/>
<path class="st16" d="M146.6,268.7c33.6-45.3,33.6-75.6,0-90.7"/>
<path class="st41" d="M146.6,558.4c140.9-190.2,140.9-317,0-380.4"/>
<path class="st42" d="M146.6,237.5c22.1-29.8,22.1-49.6,0-59.6"/>
<path class="st43" d="M146.6,57.5c-44.6,60.2-44.6,100.4,0,120.5"/>
<path class="st7" d="M146.6,341.8c60.7-81.9,60.7-136.5,0-163.8"/>
<path class="st32" d="M146.6,287.6c40.6-54.8,40.6-91.4,0-109.7"/>
<path class="st7" d="M146.6,348.5c63.2-85.3,63.2-142.1,0-170.6"/>
<path class="st32" d="M146.6,501.5c119.8-161.8,119.8-269.6,0-323.5"/>
<path class="st44" d="M146.6,149.6c-60.2,81.2-60.2,135.4,0,162.4"/>
<path class="st44" d="M146.6,474.4c60.2-81.2,60.2-135.4,0-162.4"/>
<path class="st45" d="M146.6,524.5c78.7-106.3,78.7-177.1,0-212.5"/>
<path class="st7" d="M146.6,501.5c70.2-94.8,70.2-157.9,0-189.5"/>
<path class="st46" d="M146.6,268.7c-16,21.7-16,36.1,0,43.3"/>
<path class="st47" d="M146.6,558.4c91.3-123.2,91.3-205.3,0-246.4"/>
<path class="st48" d="M146.6,237.5c-27.6,37.2-27.6,62,0,74.5"/>
<path class="st49" d="M146.6,282.2c-11,14.9-11,24.8,0,29.8"/>
<path class="st17" d="M146.6,57.5c-94.3,127.2-94.3,212.1,0,254.5"/>
<path class="st44" d="M146.6,214.5c-36.1,48.7-36.1,81.2,0,97.5"/>
<path class="st50" d="M146.6,157.7c-57.2,77.2-57.2,128.6,0,154.3"/>
<path class="st51" d="M146.6,374.3c23.1-31.1,23.1-51.9,0-62.3"/>
<path class="st52" d="M146.6,243c-116.8,157.7-116.8,262.8,0,315.4"/>
<path class="st53" d="M146.6,178C5.8,368.2,5.8,495,146.6,558.4"/>
<path class="st15" d="M146.6,268.7c-107.3,144.8-107.3,241.4,0,289.7"/>
<path class="st54" d="M146.6,312c-91.3,123.2-91.3,205.3,0,246.4"/>
<path class="st31" d="M146.6,237.5C27.8,398,27.8,504.9,146.6,558.4"/>
<path class="st17" d="M146.6,538.1c-7.5,10.2-7.5,16.9,0,20.3"/>
<path class="st55" d="M146.6,57.5c-185.5,250.4-185.5,417.4,0,500.9"/>
<path class="st56" d="M146.6,214.5c-127.3,171.9-127.3,286.5,0,343.8"/>
<path class="st57" d="M146.6,287.6C46.4,423,46.4,513.2,146.6,558.4"/>
<path class="st58" d="M146.6,157.7C-1.8,358-1.8,491.6,146.6,558.4"/>
<path class="st59" d="M146.6,348.5c-77.7,104.9-77.7,174.9,0,209.8"/>
<path class="st60" d="M146.6,501.5c-21.1,28.4-21.1,47.4,0,56.9"/>
<path class="st61" d="M146.6,194.2c-134.9,182.1-134.9,303.5,0,364.1"/>
<path class="st62" d="M146.6,149.6c-32.6,44-32.6,73.3,0,88"/>
<path class="st63" d="M146.6,243c2-2.7,2-4.5,0-5.4"/>
<path class="st64" d="M146.6,178c-22.1,29.8-22.1,49.6,0,59.6"/>
<path class="st65" d="M146.6,268.7c11.5-15.6,11.5-25.9,0-31.1"/>
<path class="st24" d="M146.6,178c-22.1,29.8-22.1,49.6,0,59.6"/>
<path class="st66" d="M146.6,312c27.6-37.2,27.6-62,0-74.5"/>
<path class="st47" d="M146.6,558.4c118.8-160.4,118.8-267.4,0-320.8"/>
<path class="st67" d="M146.6,538.1c111.3-150.3,111.3-250.4,0-300.5"/>
<path class="st62" d="M146.6,677.5c162.9-220,162.9-366.6,0-440"/>
<path class="st68" d="M146.6,214.5c-8.5,11.5-8.5,19.2,0,23"/>
<path class="st65" d="M146.6,157.7c-29.6,39.9-29.6,66.6,0,79.9"/>
<path class="st69" d="M146.6,374.3c50.6-68.4,50.6-113.9,0-136.7"/>
<path class="st7" d="M146.6,318.8c-81.2,109.7-81.2,182.8,0,219.3"/>
<path class="st50" d="M146.6,268.7c-99.8,134.7-99.8,224.5,0,269.4"/>
<path class="st70" d="M146.6,237.5C35.3,387.8,35.3,488,146.6,538.1"/>
<path class="st7" d="M146.6,176.6c-133.9,180.7-133.9,301.2,0,361.4"/>
<path class="st8" d="M146.6,214.5c-119.8,161.8-119.8,269.6,0,323.5"/>
<path class="st71" d="M146.6,501.5c-13.5,18.3-13.5,30.5,0,36.6"/>
<path class="st72" d="M146.6,374.3c-60.7,81.9-60.7,136.5,0,163.8"/>
<path class="st73" d="M146.6,483.9c-20.1,27.1-20.1,45.1,0,54.1"/>
<path class="st74" d="M146.6,600.3c156.9-211.9,156.9-353.1,0-423.7"/>
<path class="st7" d="M146.6,318.8c52.6-71.1,52.6-118.4,0-142.1"/>
<path class="st7" d="M146.6,243c24.6-33.2,24.6-55.3,0-66.3"/>
<path class="st8" d="M146.6,178c0.5-0.7,0.5-1.1,0-1.4"/>
<path class="st7" d="M146.6,524.5c128.9-174,128.9-289.9,0-347.9"/>
<path class="st8" d="M146.6,312c50.1-67.7,50.1-112.8,0-135.4"/>
<path class="st75" d="M146.6,558.4c141.4-190.9,141.4-318.1,0-381.7"/>
<path class="st7" d="M146.6,538.1c133.9-180.7,133.9-301.2,0-361.4"/>
<path class="st8" d="M146.6,282.2c39.1-52.8,39.1-88,0-105.6"/>
<path class="st76" d="M146.6,341.8c61.2-82.6,61.2-137.6,0-165.2"/>
<path class="st8" d="M146.6,483.9c113.8-153.6,113.8-256.1,0-307.3"/>
<path class="st8" d="M146.6,194.2c6.5-8.8,6.5-14.7,0-17.6"/>
<path class="st34" d="M146.6,600.3c23.1-31.1,23.1-51.9,0-62.3"/>
<path class="st77" d="M146.6,524.5c-5,6.8-5,11.3,0,13.5"/>
<path class="st78" d="M146.6,312c-83.7,113-83.7,188.4,0,226.1"/>
<path class="st64" d="M146.6,558.4c7.5-10.2,7.5-16.9,0-20.3"/>
<path class="st79" d="M146.6,237.5C35.3,387.8,35.3,488,146.6,538.1"/>
<path class="st48" d="M146.6,287.6c-92.8,125.2-92.8,208.7,0,250.4"/>
<path class="st80" d="M146.6,157.7c-140.9,190.2-140.9,317,0,380.4"/>
<path class="st48" d="M146.6,348.5c-70.2,94.8-70.2,157.9,0,189.5"/>
<path class="st81" d="M146.6,501.5c-13.5,18.3-13.5,30.5,0,36.6"/>
<path class="st7" d="M146.6,405.4c45.6-61.6,45.6-102.7,0-123.2"/>
<path class="st7" d="M146.6,178c-38.6,52.1-38.6,86.9,0,104.2"/>
<path class="st12" d="M146.6,501.5c81.2-109.7,81.2-182.8,0-219.3"/>
<path class="st7" d="M146.6,178c-38.6,52.1-38.6,86.9,0,104.2"/>
<path class="st46" d="M146.6,538.1c94.8-127.9,94.8-213.2,0-255.9"/>
<path class="st82" d="M146.6,677.5c146.4-197.6,146.4-329.4,0-395.3"/>
<path class="st7" d="M146.6,214.5c-25.1,33.8-25.1,56.4,0,67.7"/>
<path class="st8" d="M146.6,400c43.6-58.9,43.6-98.1,0-117.8"/>
<path class="st83" d="M146.6,483.9c74.7-100.9,74.7-168.1,0-201.7"/>
<path class="st7" d="M146.6,405.4c128.9-174,128.9-289.9,0-347.9"/>
<path class="st84" d="M146.6,474.4C301.1,266,301.1,127,146.6,57.5"/>
<path class="st40" d="M146.6,268.7c78.2-105.6,78.2-176,0-211.2"/>
<path class="st85" d="M146.6,558.4c185.5-250.4,185.5-417.4,0-500.9"/>
<path class="st86" d="M146.6,237.5c66.7-90,66.7-150,0-180"/>
<path class="st84" d="M146.6,677.5c229.6-310,229.6-516.7,0-620"/>
<path class="st87" d="M146.6,341.8c105.3-142.1,105.3-236.9,0-284.3"/>
<path class="st78" d="M146.6,157.7c37.1-50.1,37.1-83.5,0-100.2"/>
<path class="st88" d="M146.6,348.5c107.8-145.5,107.8-242.5,0-291"/>
<path class="st45" d="M146.6,374.3c117.3-158.4,117.3-264,0-316.8"/>
<path class="st84" d="M146.6,483.9c157.9-213.2,157.9-355.3,0-426.4"/>
<path class="st89" d="M146.6,194.2c50.6-68.4,50.6-113.9,0-136.7"/>
<path class="st7" d="M146.6,318.8c-132.9,179.4-132.9,298.9,0,358.7"/>
<path class="st90" d="M146.6,178c-185,249.8-185,416.3,0,499.5"/>
<path class="st7" d="M146.6,524.5C90,601,90,652,146.6,677.5"/>
<path class="st7" d="M146.6,501.5c-65.2,88-65.2,146.7,0,176"/>
<path class="st7" d="M146.6,268.7c-151.4,204.4-151.4,340.7,0,408.8"/>
<path class="st90" d="M146.6,178c-185,249.8-185,416.3,0,499.5"/>
<path class="st90" d="M146.6,237.5c-162.9,220-162.9,366.6,0,440"/>
<path class="st90" d="M146.6,287.6C2.3,482.6,2.3,612.5,146.6,677.5"/>
<path class="st7" d="M146.6,157.7c-192.5,259.9-192.5,433.2,0,519.8"/>
<path class="st91" d="M146.6,243c10.5-14.2,10.5-23.7,0-28.4"/>
<path class="st37" d="M146.6,268.7c20.1-27.1,20.1-45.1,0-54.1"/>
<path class="st7" d="M146.6,538.1c119.8-161.8,119.8-269.6,0-323.5"/>
<path class="st92" d="M146.6,282.2c25.1-33.8,25.1-56.4,0-67.7"/>
<path class="st92" d="M146.6,57.5c-58.2,78.5-58.2,130.9,0,157"/>
<path class="st93" d="M146.6,157.7c-21.1,28.4-21.1,47.4,0,56.9"/>
<path class="st92" d="M146.6,348.5c49.6-67,49.6-111.7,0-134"/>
<path class="st8" d="M146.6,237.5c-60.2,81.2-60.2,135.4,0,162.4"/>
<path class="st94" d="M146.6,538.1c51.1-69,51.1-115.1,0-138.1"/>
<path class="st7" d="M146.6,282.2c-43.6,58.9-43.6,98.1,0,117.8"/>
<path class="st8" d="M146.6,57.5C19.8,228.7,19.8,342.9,146.6,400"/>
<path class="st8" d="M146.6,348.5c-19.1,25.7-19.1,42.9,0,51.4"/>
<path class="st7" d="M146.6,374.3c-9.5,12.9-9.5,21.4,0,25.7"/>
<path class="st7" d="M146.6,483.9c31.1-42,31.1-69.9,0-83.9"/>
<path class="st7" d="M146.6,405.4c23.6-31.8,23.6-53,0-63.6"/>
<path class="st95" d="M146.6,524.5c67.7-91.4,67.7-152.3,0-182.8"/>
<path class="st96" d="M146.6,268.7c-27.1,36.6-27.1,60.9,0,73.1"/>
<path class="st97" d="M146.6,237.5c-38.6,52.1-38.6,86.9,0,104.2"/>
<path class="st8" d="M146.6,538.1c72.7-98.1,72.7-163.6,0-196.3"/>
<path class="st98" d="M146.6,57.5c-105.3,142.1-105.3,236.9,0,284.3"/>
<path class="st99" d="M146.6,501.5c59.2-79.9,59.2-133.1,0-159.7"/>
<path class="st100" d="M146.6,600.3c115.8-156.4,115.8-260.6,0-312.7"/>
<path class="st101" d="M146.6,405.4c43.6-58.9,43.6-98.1,0-117.8"/>
<path class="st102" d="M146.6,524.5c87.7-118.4,87.7-197.4,0-236.9"/>
<path class="st57" d="M146.6,268.7c-7,9.5-7,15.8,0,19"/>
<path class="st103" d="M146.6,558.4c100.3-135.4,100.3-225.6,0-270.7"/>
<path class="st32" d="M146.6,176.6c-41.1,55.5-41.1,92.5,0,111"/>
<path class="st41" d="M146.6,282.2c-2,2.7-2,4.5,0,5.4"/>
<path class="st54" d="M146.6,57.5c-85.2,115.1-85.2,191.8,0,230.1"/>
<path class="st32" d="M146.6,214.5c-27.1,36.6-27.1,60.9,0,73.1"/>
<path class="st97" d="M146.6,157.7c-48.1,65-48.1,108.3,0,130"/>
<path class="st59" d="M146.6,405.4c91.8-123.9,91.8-206.4,0-247.7"/>
<path class="st104" d="M146.6,243c31.6-42.6,31.6-71.1,0-85.3"/>
<path class="st105" d="M146.6,178c7.5-10.2,7.5-16.9,0-20.3"/>
<path class="st59" d="M146.6,474.4c117.3-158.4,117.3-264,0-316.8"/>
<path class="st106" d="M146.6,268.7c41.1-55.5,41.1-92.5,0-111"/>
<path class="st107" d="M146.6,178c7.5-10.2,7.5-16.9,0-20.3"/>
<path class="st108" d="M146.6,558.4c148.4-200.3,148.4-333.9,0-400.7"/>
<path class="st65" d="M146.6,237.5c29.6-39.9,29.6-66.6,0-79.9"/>
<path class="st7" d="M146.6,282.2c46.1-62.3,46.1-103.8,0-124.5"/>
<path class="st39" d="M146.6,57.5c-37.1,50.1-37.1,83.5,0,100.2"/>
<path class="st103" d="M146.6,341.8c68.2-92.1,68.2-153.4,0-184.1"/>
<path class="st109" d="M146.6,600.3c93.3-125.9,93.3-209.8,0-251.8"/>
<path class="st7" d="M146.6,405.4c21.1-28.4,21.1-47.4,0-56.9"/>
<path class="st110" d="M146.6,243c-39.1,52.8-39.1,88,0,105.6"/>
<path class="st110" d="M146.6,474.4c46.6-62.9,46.6-104.9,0-125.9"/>
<path class="st87" d="M146.6,524.5c65.2-88,65.2-146.7,0-176"/>
<path class="st110" d="M146.6,176.6c-63.7,86-63.7,143.3,0,171.9"/>
<path class="st7" d="M146.6,341.8c-2.5,3.4-2.5,5.6,0,6.8"/>
<path class="st23" d="M146.6,287.6c-22.6,30.5-22.6,50.8,0,60.9"/>
<path class="st110" d="M146.6,157.7c-70.7,95.4-70.7,159.1,0,190.9"/>
<path class="st111" d="M146.6,501.5c56.7-76.5,56.7-127.5,0-153"/>
<path class="st99" d="M146.6,374.3c9.5-12.9,9.5-21.4,0-25.7"/>
<path class="st7" d="M146.6,483.9c50.1-67.7,50.1-112.8,0-135.4"/>
<path class="st7" d="M146.6,501.5L146.6,501.5"/>
<path class="st112" d="M146.6,268.7c-86.2,116.4-86.2,194,0,232.8"/>
<path class="st93" d="M146.6,312c-70.2,94.8-70.2,157.9,0,189.5"/>
<path class="st113" d="M146.6,558.4c21.1-28.4,21.1-47.4,0-56.9"/>
<path class="st114" d="M146.6,237.5c-97.8,132-97.8,220,0,264"/>
<path class="st115" d="M146.6,176.6c-120.3,162.4-120.3,270.7,0,324.9"/>
<path class="st83" d="M146.6,538.1c13.5-18.3,13.5-30.5,0-36.6"/>
<path class="st116" d="M146.6,282.2c-81.2,109.7-81.2,182.8,0,219.3"/>
<path class="st8" d="M146.6,677.5c65.2-88,65.2-146.7,0-176"/>
<path class="st117" d="M146.6,341.8c-59.2,79.9-59.2,133.1,0,159.7"/>
<path class="st53" d="M146.6,287.6c-79.2,106.9-79.2,178.2,0,213.9"/>
<path class="st118" d="M146.6,194.2c-113.8,153.6-113.8,256.1,0,307.3"/>
<path class="st7" d="M146.6,318.8c-20.6,27.8-20.6,46.3,0,55.5"/>
<path class="st7" d="M146.6,405.4c11.5-15.6,11.5-25.9,0-31.1"/>
<path class="st7" d="M146.6,474.4c37.1-50.1,37.1-83.5,0-100.2"/>
<path class="st8" d="M146.6,501.5c47.1-63.6,47.1-106,0-127.2"/>
<path class="st113" d="M146.6,558.4c68.2-92.1,68.2-153.4,0-184.1"/>
<path class="st7" d="M146.6,176.6c-73.2,98.8-73.2,164.7,0,197.6"/>
<path class="st7" d="M146.6,214.5c-59.2,79.9-59.2,133.1,0,159.7"/>
<path class="st73" d="M146.6,524.5c15-20.3,15-33.8,0-40.6"/>
<path class="st7" d="M146.6,178c-113.3,153-113.3,254.9,0,305.9"/>
<path class="st119" d="M146.6,312c-63.7,86-63.7,143.3,0,171.9"/>
<path class="st8" d="M146.6,176.6c-113.8,153.6-113.8,256.1,0,307.3"/>
<path class="st7" d="M146.6,57.5c-157.9,213.2-157.9,355.3,0,426.4"/>
<path class="st120" d="M146.6,178c-6,8.1-6,13.5,0,16.2"/>
<path class="st29" d="M146.6,558.4c134.9-182.1,134.9-303.5,0-364.1"/>
<path class="st7" d="M146.6,538.1c127.3-171.9,127.3-286.5,0-343.8"/>
<path class="st56" d="M146.6,282.2c32.6-44,32.6-73.3,0-88"/>
<path class="st42" d="M146.6,57.5c-50.6,68.4-50.6,113.9,0,136.7"/>
<path class="st56" d="M146.6,214.5c7.5-10.2,7.5-16.9,0-20.3"/>
<path class="st97" d="M146.6,157.7c-13.5,18.3-13.5,30.5,0,36.6"/>
<circle class="st121" cx="146.6" cy="600.3" r="3.5"/>
<circle class="st121" cx="146.6" cy="318.8" r="3.5"/>
<circle class="st121" cx="146.6" cy="405.4" r="3.5"/>
<circle class="st121" cx="146.6" cy="149.6" r="3.5"/>
<circle class="st121" cx="146.6" cy="243" r="3.5"/>
<circle class="st121" cx="146.6" cy="178" r="3.5"/>
<circle class="st121" cx="146.6" cy="474.4" r="3.5"/>
<circle class="st121" cx="146.6" cy="524.5" r="3.5"/>
<circle class="st121" cx="146.6" cy="501.5" r="3.5"/>
<circle class="st121" cx="146.6" cy="268.7" r="3.5"/>
<circle class="st121" cx="146.6" cy="178" r="3.5"/>
<circle class="st121" cx="146.6" cy="312" r="3.5"/>
<circle class="st121" cx="146.6" cy="558.4" r="3.5"/>
<circle class="st121" cx="146.6" cy="237.5" r="3.5"/>
<circle class="st121" cx="146.6" cy="538.1" r="3.5"/>
<circle class="st121" cx="146.6" cy="176.6" r="3.5"/>
<circle class="st121" cx="146.6" cy="538.1" r="3.5"/>
<circle class="st121" cx="146.6" cy="282.2" r="3.5"/>
<circle class="st121" cx="146.6" cy="57.5" r="3.5"/>
<circle class="st121" cx="146.6" cy="677.5" r="3.5"/>
<circle class="st121" cx="146.6" cy="214.5" r="3.5"/>
<circle class="st121" cx="146.6" cy="400" r="3.5"/>
<circle class="st121" cx="146.6" cy="341.8" r="3.5"/>
<circle class="st121" cx="146.6" cy="287.6" r="3.5"/>
<circle class="st121" cx="146.6" cy="157.7" r="3.5"/>
<circle class="st121" cx="146.6" cy="348.5" r="3.5"/>
<circle class="st121" cx="146.6" cy="501.5" r="3.5"/>
<circle class="st121" cx="146.6" cy="374.3" r="3.5"/>
<circle class="st121" cx="146.6" cy="483.9" r="3.5"/>
<circle class="st121" cx="146.6" cy="194.2" r="3.5"/>
</svg>
