<?xml version="1.0" encoding="utf-8"?>
<!-- Generator: Adobe Illustrator 24.0.1, SVG Export Plug-In . SVG Version: 6.00 Build 0)  -->
<svg version="1.1" id="v1" xmlns="http://www.w3.org/2000/svg" xmlns:xlink="http://www.w3.org/1999/xlink" x="0px" y="0px"
	 viewBox="0 0 474.5 735" style="enable-background:new 0 0 474.5 735;" xml:space="preserve">
<style type="text/css">
	.st0{fill:none;stroke:#969696;stroke-width:0.5;}
	.st1{font-family:'Helvetica';}
	.st2{font-size:12px;}
	.st3{fill:none;stroke:#FFFFFF;stroke-width:4.5;}
	.st4{fill:none;stroke:#E74848;stroke-width:2.5;stroke-opacity:0.4;}
	.st5{fill:none;stroke:#2626F3;stroke-width:2.5;stroke-opacity:0.4;}
	.st6{fill:none;stroke:#D18A8A;stroke-width:2.5;stroke-opacity:0.4;}
	.st7{fill:none;stroke:#FF0000;stroke-width:2.5;stroke-opacity:0.4;}
	.st8{fill:none;stroke:#0000FF;stroke-width:2.5;stroke-opacity:0.4;}
	.st9{fill:none;stroke:#7777D8;stroke-width:2.5;stroke-opacity:0.4;}
	.st10{fill:none;stroke:#0303FE;stroke-width:2.5;stroke-opacity:0.4;}
	.st11{fill:none;stroke:#E55050;stroke-width:2.5;stroke-opacity:0.4;}
	.st12{fill:none;stroke:#EC3939;stroke-width:2.5;stroke-opacity:0.4;}
	.st13{fill:none;stroke:#EC3B3B;stroke-width:2.5;stroke-opacity:0.4;}
	.st14{fill:none;stroke:#FD0606;stroke-width:2.5;stroke-opacity:0.4;}
	.st15{fill:none;stroke:#5959E2;stroke-width:2.5;stroke-opacity:0.4;}
	.st16{fill:none;stroke:#6666DD;stroke-width:2.5;stroke-opacity:0.4;}
	.st17{fill:none;stroke:#8D8DD0;stroke-width:2.5;stroke-opacity:0.4;}
	.st18{fill:none;stroke:#8989D2;stroke-width:2.5;stroke-opacity:0.4;}
	.st19{fill:none;stroke:#1414F9;stroke-width:2.5;stroke-opacity:0.4;}
	.st20{fill:none;stroke:#3838ED;stroke-width:2.5;stroke-opacity:0.4;}
	.st21{fill:none;stroke:#9F9FCA;stroke-width:2.5;stroke-opacity:0.4;}
	.st22{fill:none;stroke:#3636ED;stroke-width:2.5;stroke-opacity:0.4;}
	.st23{fill:none;stroke:#8A8AD1;stroke-width:2.5;stroke-opacity:0.4;}
	.st24{fill:none;stroke:#C9A2A2;stroke-width:2.5;stroke-opacity:0.4;}
	.st25{fill:none;stroke:#CC9999;stroke-width:2.5;stroke-opacity:0.4;}
	.st26{fill:none;stroke:#AEAEC5;stroke-width:2.5;stroke-opacity:0.4;}
	.st27{fill:none;stroke:#F22929;stroke-width:2.5;stroke-opacity:0.4;}
	.st28{fill:none;stroke:#A8A8C7;stroke-width:2.5;stroke-opacity:0.4;}
	.st29{fill:none;stroke:#D67B7B;stroke-width:2.5;stroke-opacity:0.4;}
	.st30{fill:none;stroke:#4747E8;stroke-width:2.5;stroke-opacity:0.4;}
	.st31{fill:none;stroke:#2D2DF0;stroke-width:2.5;stroke-opacity:0.4;}
	.st32{fill:none;stroke:#2A2AF1;stroke-width:2.5;stroke-opacity:0.4;}
	.st33{fill:none;stroke:#2020F5;stroke-width:2.5;stroke-opacity:0.4;}
	.st34{fill:none;stroke:#CF9090;stroke-width:2.5;stroke-opacity:0.4;}
	.st35{fill:none;stroke:#F02F2F;stroke-width:2.5;stroke-opacity:0.4;}
	.st36{fill:none;stroke:#6565DE;stroke-width:2.5;stroke-opacity:0.4;}
	.st37{fill:none;stroke:#8686D3;stroke-width:2.5;stroke-opacity:0.4;}
	.st38{fill:none;stroke:#DB6C6C;stroke-width:2.5;stroke-opacity:0.4;}
	.st39{fill:none;stroke:#AAAAC7;stroke-width:2.5;stroke-opacity:0.4;}
	.st40{fill:none;stroke:#ADADC6;stroke-width:2.5;stroke-opacity:0.4;}
	.st41{fill:none;stroke:#D48181;stroke-width:2.5;stroke-opacity:0.4;}
	.st42{fill:none;stroke:#A2A2C9;stroke-width:2.5;stroke-opacity:0.4;}
	.st43{fill:none;stroke:#E05F5F;stroke-width:2.5;stroke-opacity:0.4;}
	.st44{fill:none;stroke:#2121F4;stroke-width:2.5;stroke-opacity:0.4;}
	.st45{fill:none;stroke:#E25757;stroke-width:2.5;stroke-opacity:0.4;}
	.st46{fill:none;stroke:#9E9ECB;stroke-width:2.5;stroke-opacity:0.4;}
	.st47{fill:none;stroke:#CF9292;stroke-width:2.5;stroke-opacity:0.4;}
	.st48{fill:none;stroke:#9696CD;stroke-width:2.5;stroke-opacity:0.4;}
	.st49{fill:none;stroke:#F51E1E;stroke-width:2.5;stroke-opacity:0.4;}
	.st50{fill:none;stroke:#4D4DE6;stroke-width:2.5;stroke-opacity:0.4;}
	.st51{fill:none;stroke:#CC9B9B;stroke-width:2.5;stroke-opacity:0.4;}
	.st52{fill:none;stroke:#4545E8;stroke-width:2.5;stroke-opacity:0.4;}
	.st53{fill:none;stroke:#5454E3;stroke-width:2.5;stroke-opacity:0.4;}
	.st54{fill:none;stroke:#8383D4;stroke-width:2.5;stroke-opacity:0.4;}
	.st55{fill:none;stroke:#7272D9;stroke-width:2.5;stroke-opacity:0.4;}
	.st56{fill:none;stroke:#2929F2;stroke-width:2.5;stroke-opacity:0.4;}
	.st57{fill:none;stroke:#7171DA;stroke-width:2.5;stroke-opacity:0.4;}
	.st58{fill:none;stroke:#1E1EF5;stroke-width:2.5;stroke-opacity:0.4;}
	.st59{fill:none;stroke:#6E6EDB;stroke-width:2.5;stroke-opacity:0.4;}
	.st60{fill:none;stroke:#C8A7A7;stroke-width:2.5;stroke-opacity:0.4;}
	.st61{fill:none;stroke:#5D5DE0;stroke-width:2.5;stroke-opacity:0.4;}
	.st62{fill:none;stroke:#6F6FDA;stroke-width:2.5;stroke-opacity:0.4;}
	.st63{fill:none;stroke:#D28989;stroke-width:2.5;stroke-opacity:0.4;}
	.st64{fill:none;stroke:#C8A5A5;stroke-width:2.5;stroke-opacity:0.4;}
	.st65{fill:none;stroke:#B3B3C4;stroke-width:2.5;stroke-opacity:0.4;}
	.st66{fill:none;stroke:#C4B1B1;stroke-width:2.5;stroke-opacity:0.4;}
	.st67{fill:none;stroke:#E35656;stroke-width:2.5;stroke-opacity:0.4;}
	.st68{fill:none;stroke:#DE6363;stroke-width:2.5;stroke-opacity:0.4;}
	.st69{fill:none;stroke:#EA3F3F;stroke-width:2.5;stroke-opacity:0.4;}
	.st70{fill:none;stroke:#7878D7;stroke-width:2.5;stroke-opacity:0.4;}
	.st71{fill:none;stroke:#D97474;stroke-width:2.5;stroke-opacity:0.4;}
	.st72{fill:none;stroke:#D97272;stroke-width:2.5;stroke-opacity:0.4;}
	.st73{fill:none;stroke:#E54E4E;stroke-width:2.5;stroke-opacity:0.4;}
	.st74{fill:none;stroke:#FF0202;stroke-width:2.5;stroke-opacity:0.4;}
	.st75{fill:none;stroke:#F02D2D;stroke-width:2.5;stroke-opacity:0.4;}
	.st76{fill:none;stroke:#FC0B0B;stroke-width:2.5;stroke-opacity:0.4;}
	.st77{fill:none;stroke:#D18C8C;stroke-width:2.5;stroke-opacity:0.4;}
	.st78{fill:none;stroke:#9999CC;stroke-width:2.5;stroke-opacity:0.4;}
	.st79{fill:none;stroke:#6868DD;stroke-width:2.5;stroke-opacity:0.4;}
	.st80{fill:none;stroke:#4B4BE6;stroke-width:2.5;stroke-opacity:0.4;}
	.st81{fill:none;stroke:#DA6F6F;stroke-width:2.5;stroke-opacity:0.4;}
	.st82{fill:none;stroke:#1515F8;stroke-width:2.5;stroke-opacity:0.4;}
	.st83{fill:none;stroke:#7D7DD6;stroke-width:2.5;stroke-opacity:0.4;}
	.st84{fill:none;stroke:#5050E5;stroke-width:2.5;stroke-opacity:0.4;}
	.st85{fill:none;stroke:#DC6B6B;stroke-width:2.5;stroke-opacity:0.4;}
	.st86{fill:none;stroke:#B0B0C5;stroke-width:2.5;stroke-opacity:0.4;}
	.st87{fill:none;stroke:#D87777;stroke-width:2.5;stroke-opacity:0.4;}
	.st88{fill:none;stroke:#6363DE;stroke-width:2.5;stroke-opacity:0.4;}
	.st89{fill:none;stroke:#CA9F9F;stroke-width:2.5;stroke-opacity:0.4;}
	.st90{fill:none;stroke:#1212F9;stroke-width:2.5;stroke-opacity:0.4;}
	.st91{fill:none;stroke:#9595CE;stroke-width:2.5;stroke-opacity:0.4;}
	.st92{fill:none;stroke:#0202FF;stroke-width:2.5;stroke-opacity:0.4;}
	.st93{fill:none;stroke:#7474D9;stroke-width:2.5;stroke-opacity:0.4;}
	.st94{fill:none;stroke:#E45151;stroke-width:2.5;stroke-opacity:0.4;}
	.st95{fill:none;stroke:#FA0F0F;stroke-width:2.5;stroke-opacity:0.4;}
	.st96{fill:none;stroke:#5F5FE0;stroke-width:2.5;stroke-opacity:0.4;}
	.st97{fill:none;stroke:#6060DF;stroke-width:2.5;stroke-opacity:0.4;}
	.st98{fill:none;stroke:#3030EF;stroke-width:2.5;stroke-opacity:0.4;}
	.st99{fill:none;stroke:#CAA1A1;stroke-width:2.5;stroke-opacity:0.4;}
	.st100{fill:none;stroke:#D48383;stroke-width:2.5;stroke-opacity:0.4;}
	.st101{fill:none;stroke:#F42121;stroke-width:2.5;stroke-opacity:0.4;}
	.st102{fill:none;stroke:#D67D7D;stroke-width:2.5;stroke-opacity:0.4;}
	.st103{fill:none;stroke:#CB9C9C;stroke-width:2.5;stroke-opacity:0.4;}
	.st104{fill:none;stroke:#CD9898;stroke-width:2.5;stroke-opacity:0.4;}
	.st105{fill:none;stroke:#C5B0B0;stroke-width:2.5;stroke-opacity:0.4;}
	.st106{fill:none;stroke:#ABABC6;stroke-width:2.5;stroke-opacity:0.4;}
	.st107{fill:none;stroke:#C5AEAE;stroke-width:2.5;stroke-opacity:0.4;}
	.st108{fill:none;stroke:#CB9E9E;stroke-width:2.5;stroke-opacity:0.4;}
	.st109{fill:none;stroke:#D38686;stroke-width:2.5;stroke-opacity:0.4;}
	.st110{fill:none;stroke:#1717F8;stroke-width:2.5;stroke-opacity:0.4;}
	.st111{fill:none;stroke:#DE6565;stroke-width:2.5;stroke-opacity:0.4;}
	.st112{fill:none;stroke:#3B3BEC;stroke-width:2.5;stroke-opacity:0.4;}
	.st113{fill:none;stroke:#C7AAAA;stroke-width:2.5;stroke-opacity:0.4;}
	.st114{fill:none;stroke:#5C5CE1;stroke-width:2.5;stroke-opacity:0.4;}
	.st115{fill:none;stroke:#F12A2A;stroke-width:2.5;stroke-opacity:0.4;}
	.st116{fill:none;stroke:#8C8CD1;stroke-width:2.5;stroke-opacity:0.4;}
	.st117{fill:none;stroke:#9B9BCC;stroke-width:2.5;stroke-opacity:0.4;}
	.st118{fill:none;stroke:#6969DC;stroke-width:2.5;stroke-opacity:0.4;}
	.st119{fill:none;stroke:#F32626;stroke-width:2.5;stroke-opacity:0.4;}
	.st120{fill:none;stroke:#F81717;stroke-width:2.5;stroke-opacity:0.4;}
	.st121{fill:#646464;stroke:#FFFFFF;stroke-width:1.5;}
</style>
<line class="st0" x1="174.5" y1="0" x2="174.5" y2="735"/>
<line class="st0" x1="174.5" y1="162.7" x2="354.5" y2="162.7"/>
<line class="st0" x1="174.5" y1="144.4" x2="354.5" y2="144.4"/>
<line class="st0" x1="174.5" y1="270.3" x2="354.5" y2="270.3"/>
<line class="st0" x1="174.5" y1="334.3" x2="354.5" y2="334.3"/>
<line class="st0" x1="174.5" y1="476.2" x2="354.5" y2="476.2"/>
<line class="st0" x1="174.5" y1="677.5" x2="354.5" y2="677.5"/>
<line class="st0" x1="174.5" y1="153.6" x2="354.5" y2="153.6"/>
<line class="st0" x1="174.5" y1="183.3" x2="354.5" y2="183.3"/>
<line class="st0" x1="174.5" y1="270.3" x2="354.5" y2="270.3"/>
<line class="st0" x1="174.5" y1="137.6" x2="354.5" y2="137.6"/>
<line class="st0" x1="174.5" y1="677.5" x2="354.5" y2="677.5"/>
<line class="st0" x1="174.5" y1="261.1" x2="354.5" y2="261.1"/>
<line class="st0" x1="174.5" y1="494.5" x2="354.5" y2="494.5"/>
<line class="st0" x1="174.5" y1="535.7" x2="354.5" y2="535.7"/>
<line class="st0" x1="174.5" y1="192.5" x2="354.5" y2="192.5"/>
<line class="st0" x1="174.5" y1="82.7" x2="354.5" y2="82.7"/>
<line class="st0" x1="174.5" y1="274.8" x2="354.5" y2="274.8"/>
<line class="st0" x1="174.5" y1="62.1" x2="354.5" y2="62.1"/>
<line class="st0" x1="174.5" y1="384.7" x2="354.5" y2="384.7"/>
<line class="st0" x1="174.5" y1="311.4" x2="354.5" y2="311.4"/>
<line class="st0" x1="174.5" y1="467" x2="354.5" y2="467"/>
<line class="st0" x1="174.5" y1="540.2" x2="354.5" y2="540.2"/>
<line class="st0" x1="174.5" y1="361.8" x2="354.5" y2="361.8"/>
<line class="st0" x1="174.5" y1="57.5" x2="354.5" y2="57.5"/>
<line class="st0" x1="174.5" y1="572.3" x2="354.5" y2="572.3"/>
<line class="st0" x1="174.5" y1="261.1" x2="354.5" y2="261.1"/>
<line class="st0" x1="174.5" y1="126.1" x2="354.5" y2="126.1"/>
<line class="st0" x1="174.5" y1="306.9" x2="354.5" y2="306.9"/>
<line class="st0" x1="174.5" y1="373.2" x2="354.5" y2="373.2"/>
<line class="st0" x1="174.5" y1="219.9" x2="354.5" y2="219.9"/>
<text transform="matrix(1 0 0 1 354.4722 165.7398)" class="st1 st2">anthropology</text>
<text transform="matrix(1 0 0 1 354.4722 147.4373)" class="st1 st2">archaeology</text>
<text transform="matrix(1 0 0 1 354.4722 273.2675)" class="st1 st2">art history</text>
<text transform="matrix(1 0 0 1 354.4722 337.3266)" class="st1 st2">astronomy</text>
<text transform="matrix(1 0 0 1 354.4722 479.1716)" class="st1 st2">biochemistry</text>
<text transform="matrix(1 0 0 1 354.4722 680.5)" class="st1 st2">chemistry</text>
<text transform="matrix(1 0 0 1 354.4722 156.5886)" class="st1 st2">classics</text>
<text transform="matrix(1 0 0 1 354.4722 186.3303)" class="st1 st2">communications</text>
<text transform="matrix(1 0 0 1 354.4722 273.2675)" class="st1 st2">comparative literature</text>
<text transform="matrix(1 0 0 1 354.4722 140.5738)" class="st1 st2">computer science</text>
<text transform="matrix(1 0 0 1 354.4722 680.5)" class="st1 st2">earth sciences</text>
<text transform="matrix(1 0 0 1 354.4722 264.1162)" class="st1 st2">economics</text>
<text transform="matrix(1 0 0 1 354.4722 497.4742)" class="st1 st2">education</text>
<text transform="matrix(1 0 0 1 354.4722 538.655)" class="st1 st2">engineering</text>
<text transform="matrix(1 0 0 1 354.4722 195.4815)" class="st1 st2">english literature</text>
<text transform="matrix(1 0 0 1 354.4722 85.666)" class="st1 st2">evolutionary biology</text>
<text transform="matrix(1 0 0 1 354.4722 277.8432)" class="st1 st2">history</text>
<text transform="matrix(1 0 0 1 354.4722 65.0757)" class="st1 st2">linguistics</text>
<text transform="matrix(1 0 0 1 354.4722 387.6587)" class="st1 st2">mathematics</text>
<text transform="matrix(1 0 0 1 354.4722 314.4483)" class="st1 st2">middle eastern studies</text>
<text transform="matrix(1 0 0 1 354.4722 470.0203)" class="st1 st2">molecular biology</text>
<text transform="matrix(1 0 0 1 354.4722 543.2307)" class="st1 st2">music</text>
<text transform="matrix(1 0 0 1 354.4722 364.7805)" class="st1 st2">neuroscience</text>
<text transform="matrix(1 0 0 1 354.4722 60.5)" class="st1 st2">philosophy</text>
<text transform="matrix(1 0 0 1 354.4722 575.2601)" class="st1 st2">physics</text>
<text transform="matrix(1 0 0 1 354.4722 264.1162)" class="st1 st2">political science</text>
<text transform="matrix(1 0 0 1 354.4722 129.1346)" class="st1 st2">psychology</text>
<text transform="matrix(1 0 0 1 354.4722 309.8727)" class="st1 st2">sociology</text>
<text transform="matrix(1 0 0 1 354.4722 376.2195)" class="st1 st2">spanish literature</text>
<text transform="matrix(1 0 0 1 354.4722 222.9354)" class="st1 st2">statistics</text>
<text transform="matrix(6.123234e-17 -1 1 6.123234e-17 170.4722 47.5)" class="st1 st2">SEL-A</text>
<path class="st3" d="M174.5,270.3c39.8-53.8,39.8-89.6,0-107.5"/>
<path class="st3" d="M174.5,137.6c-9.3,12.6-9.3,21,0,25.2"/>
<path class="st3" d="M174.5,494.5c122.9-165.9,122.9-276.4,0-331.7"/>
<path class="st3" d="M174.5,467c112.7-152.1,112.7-253.6,0-304.3"/>
<path class="st3" d="M174.5,540.2c139.8-188.7,139.8-314.6,0-377.5"/>
<path class="st3" d="M174.5,57.5c-39,52.6-39,87.7,0,105.2"/>
<path class="st3" d="M174.5,572.3c151.7-204.8,151.7-341.3,0-409.5"/>
<path class="st3" d="M174.5,270.3c46.6-62.9,46.6-104.9,0-125.8"/>
<path class="st3" d="M174.5,476.2c122.9-165.9,122.9-276.4,0-331.7"/>
<path class="st3" d="M174.5,677.5c197.4-266.5,197.4-444.2,0-533.1"/>
<path class="st3" d="M174.5,494.5c129.6-175,129.6-291.7,0-350"/>
<path class="st3" d="M174.5,192.5c17.8-24,17.8-40,0-48"/>
<path class="st3" d="M174.5,82.7c-22.9,30.9-22.9,51.5,0,61.8"/>
<path class="st3" d="M174.5,62.1c-30.5,41.2-30.5,68.6,0,82.4"/>
<path class="st3" d="M174.5,540.2c146.6-197.9,146.6-329.8,0-395.8"/>
<path class="st3" d="M174.5,361.8c80.5-108.7,80.5-181.1,0-217.3"/>
<path class="st3" d="M174.5,126.1c-6.8,9.2-6.8,15.3,0,18.3"/>
<path class="st3" d="M174.5,306.9c60.2-81.2,60.2-135.4,0-162.4"/>
<path class="st3" d="M174.5,162.7c-39.8,53.8-39.8,89.6,0,107.5"/>
<path class="st3" d="M174.5,270.3C174.5,270.3,174.5,270.3,174.5,270.3"/>
<path class="st3" d="M174.5,677.5c150.8-203.6,150.8-339.4,0-407.2"/>
<path class="st3" d="M174.5,384.7c42.4-57.2,42.4-95.3,0-114.4"/>
<path class="st3" d="M174.5,361.8c33.9-45.8,33.9-76.3,0-91.5"/>
<path class="st3" d="M174.5,57.5c-78.8,106.4-78.8,177.3,0,212.8"/>
<path class="st3" d="M174.5,261.1c-3.4,4.6-3.4,7.6,0,9.2"/>
<path class="st3" d="M174.5,126.1c-53.4,72.1-53.4,120.1,0,144.1"/>
<path class="st3" d="M174.5,373.2c38.1-51.5,38.1-85.8,0-103"/>
<path class="st3" d="M174.5,219.9c-18.6,25.2-18.6,41.9,0,50.3"/>
<path class="st3" d="M174.5,137.6c-72.9,98.4-72.9,164,0,196.8"/>
<path class="st3" d="M174.5,677.5c127.1-171.6,127.1-286,0-343.2"/>
<path class="st3" d="M174.5,535.7c74.6-100.7,74.6-167.8,0-201.3"/>
<path class="st3" d="M174.5,361.8c10.2-13.7,10.2-22.9,0-27.5"/>
<path class="st3" d="M174.5,144.4c-122.9,165.9-122.9,276.4,0,331.7"/>
<path class="st3" d="M174.5,270.3c-76.3,103-76.3,171.6,0,205.9"/>
<path class="st3" d="M174.5,137.6c-125.4,169.3-125.4,282.2,0,338.6"/>
<path class="st3" d="M174.5,535.7c22-29.7,22-49.6,0-59.5"/>
<path class="st3" d="M174.5,192.5c-105.1,141.8-105.1,236.4,0,283.7"/>
<path class="st3" d="M174.5,82.7c-145.7,196.8-145.7,327.9,0,393.5"/>
<path class="st3" d="M174.5,274.8c-74.6,100.7-74.6,167.8,0,201.3"/>
<path class="st3" d="M174.5,467c-3.4,4.6-3.4,7.6,0,9.2"/>
<path class="st3" d="M174.5,57.5c-155.1,209.3-155.1,348.9,0,418.7"/>
<path class="st3" d="M174.5,261.1c-79.7,107.5-79.7,179.2,0,215.1"/>
<path class="st3" d="M174.5,270.3c-150.8,203.6-150.8,339.4,0,407.2"/>
<path class="st3" d="M174.5,153.6c-194,262-194,436.6,0,523.9"/>
<path class="st3" d="M174.5,137.6c-200,270-200,449.9,0,539.9"/>
<path class="st3" d="M174.5,677.5L174.5,677.5"/>
<path class="st3" d="M174.5,494.5c-67.8,91.5-67.8,152.5,0,183"/>
<path class="st3" d="M174.5,535.7c-52.5,70.9-52.5,118.2,0,141.8"/>
<path class="st3" d="M174.5,82.7c-220.3,297.4-220.3,495.7,0,594.8"/>
<path class="st3" d="M174.5,311.4c-135.6,183-135.6,305,0,366.1"/>
<path class="st3" d="M174.5,572.3c-39,52.6-39,87.7,0,105.2"/>
<path class="st3" d="M174.5,261.1c-154.2,208.2-154.2,347,0,416.4"/>
<path class="st3" d="M174.5,261.1c39.8-53.8,39.8-89.6,0-107.5"/>
<path class="st3" d="M174.5,494.5c126.3-170.4,126.3-284.1,0-340.9"/>
<path class="st3" d="M174.5,384.7c85.6-115.5,85.6-192.6,0-231.1"/>
<path class="st3" d="M174.5,572.3c155.1-209.3,155.1-348.9,0-418.7"/>
<path class="st3" d="M174.5,144.4c-14.4,19.4-14.4,32.4,0,38.9"/>
<path class="st3" d="M174.5,476.2c108.5-146.4,108.5-244,0-292.8"/>
<path class="st3" d="M174.5,137.6c-16.9,22.9-16.9,38.1,0,45.8"/>
<path class="st3" d="M174.5,494.5c115.2-155.6,115.2-259.3,0-311.1"/>
<path class="st3" d="M174.5,535.7c130.5-176.2,130.5-293.6,0-352.3"/>
<path class="st3" d="M174.5,384.7c74.6-100.7,74.6-167.8,0-201.3"/>
<path class="st3" d="M174.5,572.3c144-194.5,144-324.1,0-388.9"/>
<path class="st3" d="M174.5,306.9c45.8-61.8,45.8-103,0-123.5"/>
<path class="st3" d="M174.5,162.7c-39.8,53.8-39.8,89.6,0,107.5"/>
<path class="st3" d="M174.5,270.3C174.5,270.3,174.5,270.3,174.5,270.3"/>
<path class="st3" d="M174.5,137.6c-49.1,66.3-49.1,110.6,0,132.7"/>
<path class="st3" d="M174.5,62.1c-77.1,104.1-77.1,173.5,0,208.2"/>
<path class="st3" d="M174.5,572.3c111.8-151,111.8-251.7,0-302"/>
<path class="st3" d="M174.5,334.3c72.9-98.4,72.9-164,0-196.8"/>
<path class="st3" d="M174.5,677.5c200-270,200-449.9,0-539.9"/>
<path class="st3" d="M174.5,494.5c132.2-178.5,132.2-297.4,0-356.9"/>
<path class="st3" d="M174.5,535.7c147.4-199,147.4-331.7,0-398.1"/>
<path class="st3" d="M174.5,384.7c91.5-123.5,91.5-205.9,0-247.1"/>
<path class="st3" d="M174.5,540.2c149.1-201.3,149.1-335.5,0-402.7"/>
<path class="st3" d="M174.5,373.2c87.3-117.8,87.3-196.4,0-235.6"/>
<path class="st3" d="M174.5,183.3c-183,247.1-183,411.8,0,494.2"/>
<path class="st3" d="M174.5,137.6c-200,270-200,449.9,0,539.9"/>
<path class="st3" d="M174.5,494.5c-67.8,91.5-67.8,152.5,0,183"/>
<path class="st3" d="M174.5,535.7c-52.5,70.9-52.5,118.2,0,141.8"/>
<path class="st3" d="M174.5,384.7C66,531.1,66,628.7,174.5,677.5"/>
<path class="st3" d="M174.5,361.8c-116.9,157.9-116.9,263.1,0,315.7"/>
<path class="st3" d="M174.5,57.5c-229.6,310-229.6,516.7,0,620"/>
<path class="st3" d="M174.5,261.1c-154.2,208.2-154.2,347,0,416.4"/>
<path class="st3" d="M174.5,126.1c-204.2,275.7-204.2,459.5,0,551.4"/>
<path class="st3" d="M174.5,334.3c27.1-36.6,27.1-61,0-73.2"/>
<path class="st3" d="M174.5,153.6c-39.8,53.8-39.8,89.6,0,107.5"/>
<path class="st3" d="M174.5,183.3c-28.8,38.9-28.8,64.8,0,77.8"/>
<path class="st3" d="M174.5,270.3c3.4-4.6,3.4-7.6,0-9.2"/>
<path class="st3" d="M174.5,137.6c-45.8,61.8-45.8,103,0,123.5"/>
<path class="st3" d="M174.5,494.5c86.4-116.7,86.4-194.5,0-233.4"/>
<path class="st3" d="M174.5,535.7c101.7-137.3,101.7-228.8,0-274.5"/>
<path class="st3" d="M174.5,62.1c-73.7,99.5-73.7,165.9,0,199"/>
<path class="st3" d="M174.5,384.7c45.8-61.8,45.8-103,0-123.5"/>
<path class="st3" d="M174.5,467c76.3-103,76.3-171.6,0-205.9"/>
<path class="st3" d="M174.5,572.3c115.2-155.6,115.2-259.3,0-311.1"/>
<path class="st3" d="M174.5,306.9c16.9-22.9,16.9-38.1,0-45.8"/>
<path class="st3" d="M174.5,476.2c-6.8,9.2-6.8,15.3,0,18.3"/>
<path class="st3" d="M174.5,677.5c67.8-91.5,67.8-152.5,0-183"/>
<path class="st3" d="M174.5,137.6C42.3,316,42.3,435,174.5,494.5"/>
<path class="st3" d="M174.5,261.1C88,377.8,88,455.6,174.5,494.5"/>
<path class="st3" d="M174.5,535.7c15.3-20.6,15.3-34.3,0-41.2"/>
<path class="st3" d="M174.5,274.8c-81.3,109.8-81.3,183,0,219.6"/>
<path class="st3" d="M174.5,384.7c-40.7,54.9-40.7,91.5,0,109.8"/>
<path class="st3" d="M174.5,467c-10.2,13.7-10.2,22.9,0,27.5"/>
<path class="st3" d="M174.5,57.5c-161.8,218.5-161.8,364.1,0,437"/>
<path class="st3" d="M174.5,572.3c28.8-38.9,28.8-64.8,0-77.8"/>
<path class="st3" d="M174.5,261.1C88,377.8,88,455.6,174.5,494.5"/>
<path class="st3" d="M174.5,126.1c-136.4,184.2-136.4,306.9,0,368.3"/>
<path class="st3" d="M174.5,219.9c-101.7,137.3-101.7,228.8,0,274.5"/>
<path class="st3" d="M174.5,334.3c-74.6,100.7-74.6,167.8,0,201.3"/>
<path class="st3" d="M174.5,476.2c-22,29.7-22,49.6,0,59.5"/>
<path class="st3" d="M174.5,677.5c52.5-70.9,52.5-118.2,0-141.8"/>
<path class="st3" d="M174.5,137.6C27,336.6,27,469.3,174.5,535.7"/>
<path class="st3" d="M174.5,677.5c52.5-70.9,52.5-118.2,0-141.8"/>
<path class="st3" d="M174.5,261.1c-101.7,137.3-101.7,228.8,0,274.5"/>
<path class="st3" d="M174.5,494.5c-15.3,20.6-15.3,34.3,0,41.2"/>
<path class="st3" d="M174.5,192.5c-127.1,171.6-127.1,286,0,343.2"/>
<path class="st3" d="M174.5,311.4c-83,112.1-83,186.8,0,224.2"/>
<path class="st3" d="M174.5,467c-25.4,34.3-25.4,57.2,0,68.6"/>
<path class="st3" d="M174.5,572.3c13.6-18.3,13.6-30.5,0-36.6"/>
<path class="st3" d="M174.5,306.9c-84.7,114.4-84.7,190.7,0,228.8"/>
<path class="st3" d="M174.5,144.4c-17.8,24-17.8,40,0,48"/>
<path class="st3" d="M174.5,137.6c-20.3,27.5-20.3,45.8,0,54.9"/>
<path class="st3" d="M174.5,535.7c127.1-171.6,127.1-286,0-343.2"/>
<path class="st3" d="M174.5,82.7c-40.7,54.9-40.7,91.5,0,109.8"/>
<path class="st3" d="M174.5,467c101.7-137.3,101.7-228.8,0-274.5"/>
<path class="st3" d="M174.5,126.1c-24.6,33.2-24.6,55.3,0,66.3"/>
<path class="st3" d="M174.5,306.9c42.4-57.2,42.4-95.3,0-114.4"/>
<path class="st3" d="M174.5,373.2c66.9-90.4,66.9-150.6,0-180.7"/>
<path class="st3" d="M174.5,162.7c29.7-40,29.7-66.7,0-80.1"/>
<path class="st3" d="M174.5,144.4c22.9-30.9,22.9-51.5,0-61.8"/>
<path class="st3" d="M174.5,476.2c145.7-196.8,145.7-327.9,0-393.5"/>
<path class="st3" d="M174.5,677.5c220.3-297.4,220.3-495.7,0-594.8"/>
<path class="st3" d="M174.5,183.3c37.3-50.3,37.3-83.9,0-100.7"/>
<path class="st3" d="M174.5,261.1c66.1-89.2,66.1-148.7,0-178.5"/>
<path class="st3" d="M174.5,494.5C327,288.6,327,151.3,174.5,82.7"/>
<path class="st3" d="M174.5,274.8c71.2-96.1,71.2-160.1,0-192.2"/>
<path class="st3" d="M174.5,62.1c-7.6,10.3-7.6,17.2,0,20.6"/>
<path class="st3" d="M174.5,361.8c103.4-139.6,103.4-232.6,0-279.1"/>
<path class="st3" d="M174.5,373.2c107.6-145.3,107.6-242.1,0-290.6"/>
<path class="st3" d="M174.5,219.9c50.8-68.6,50.8-114.4,0-137.3"/>
<path class="st3" d="M174.5,162.7c-41.5,56.1-41.5,93.4,0,112.1"/>
<path class="st3" d="M174.5,183.3c-33.9,45.8-33.9,76.3,0,91.5"/>
<path class="st3" d="M174.5,261.1c-5.1,6.9-5.1,11.4,0,13.7"/>
<path class="st3" d="M174.5,494.5c81.3-109.8,81.3-183,0-219.6"/>
<path class="st3" d="M174.5,535.7c96.6-130.4,96.6-217.3,0-260.8"/>
<path class="st3" d="M174.5,57.5C94,166.2,94,238.6,174.5,274.8"/>
<path class="st3" d="M174.5,572.3c110.2-148.7,110.2-247.8,0-297.4"/>
<path class="st3" d="M174.5,261.1c-5.1,6.9-5.1,11.4,0,13.7"/>
<path class="st3" d="M174.5,126.1c-55.1,74.4-55.1,123.9,0,148.7"/>
<path class="st3" d="M174.5,270.3c77.1-104.1,77.1-173.5,0-208.2"/>
<path class="st3" d="M174.5,677.5c227.9-307.7,227.9-512.9,0-615.4"/>
<path class="st3" d="M174.5,270.3c77.1-104.1,77.1-173.5,0-208.2"/>
<path class="st3" d="M174.5,677.5c227.9-307.7,227.9-512.9,0-615.4"/>
<path class="st3" d="M174.5,192.5c48.3-65.2,48.3-108.7,0-130.4"/>
<path class="st3" d="M174.5,311.4c92.4-124.7,92.4-207.8,0-249.4"/>
<path class="st3" d="M174.5,467c150-202.5,150-337.5,0-404.9"/>
<path class="st3" d="M174.5,540.2c177.1-239.1,177.1-398.5,0-478.2"/>
<path class="st3" d="M174.5,373.2c115.2-155.6,115.2-259.3,0-311.1"/>
<path class="st3" d="M174.5,270.3c-42.4,57.2-42.4,95.3,0,114.4"/>
<path class="st3" d="M174.5,153.6c-85.6,115.5-85.6,192.6,0,231.1"/>
<path class="st3" d="M174.5,137.6C83,261.1,83,343.5,174.5,384.7"/>
<path class="st3" d="M174.5,494.5c40.7-54.9,40.7-91.5,0-109.8"/>
<path class="st3" d="M174.5,535.7c55.9-75.5,55.9-125.8,0-151"/>
<path class="st3" d="M174.5,311.4c-27.1,36.6-27.1,61,0,73.2"/>
<path class="st3" d="M174.5,361.8c-8.5,11.4-8.5,19.1,0,22.9"/>
<path class="st3" d="M174.5,572.3c69.5-93.8,69.5-156.3,0-187.6"/>
<path class="st3" d="M174.5,261.1c-45.8,61.8-45.8,103,0,123.5"/>
<path class="st3" d="M174.5,306.9c-28.8,38.9-28.8,64.8,0,77.8"/>
<path class="st3" d="M174.5,373.2c-4.2,5.7-4.2,9.5,0,11.4"/>
<path class="st3" d="M174.5,219.9c-61,82.4-61,137.3,0,164.7"/>
<path class="st3" d="M174.5,144.4c-61.9,83.5-61.9,139.2,0,167"/>
<path class="st3" d="M174.5,677.5c135.6-183,135.6-305,0-366.1"/>
<path class="st3" d="M174.5,183.3c-47.5,64.1-47.5,106.8,0,128.1"/>
<path class="st3" d="M174.5,270.3c-15.3,20.6-15.3,34.3,0,41.2"/>
<path class="st3" d="M174.5,137.6c-64.4,86.9-64.4,144.9,0,173.9"/>
<path class="st3" d="M174.5,677.5c135.6-183,135.6-305,0-366.1"/>
<path class="st3" d="M174.5,535.7c83-112.1,83-186.8,0-224.2"/>
<path class="st3" d="M174.5,57.5c-94.1,127-94.1,211.6,0,253.9"/>
<path class="st3" d="M174.5,572.3c96.6-130.4,96.6-217.3,0-260.8"/>
<path class="st3" d="M174.5,476.2c3.4-4.6,3.4-7.6,0-9.2"/>
<path class="st3" d="M174.5,137.6c-122,164.7-122,274.5,0,329.4"/>
<path class="st3" d="M174.5,274.8c-71.2,96.1-71.2,160.1,0,192.2"/>
<path class="st3" d="M174.5,62.1c-150,202.5-150,337.5,0,404.9"/>
<path class="st3" d="M174.5,384.7c-30.5,41.2-30.5,68.6,0,82.4"/>
<path class="st3" d="M174.5,572.3c39-52.6,39-87.7,0-105.2"/>
<path class="st3" d="M174.5,261.1c-76.3,103-76.3,171.6,0,205.9"/>
<path class="st3" d="M174.5,535.7c-1.7,2.3-1.7,3.8,0,4.6"/>
<path class="st3" d="M174.5,274.8c-98.3,132.7-98.3,221.2,0,265.4"/>
<path class="st3" d="M174.5,62.1c-177.1,239.1-177.1,398.5,0,478.2"/>
<path class="st3" d="M174.5,384.7c-57.6,77.8-57.6,129.6,0,155.6"/>
<path class="st3" d="M174.5,261.1c-103.4,139.6-103.4,232.6,0,279.1"/>
<path class="st3" d="M174.5,306.9C88,423.6,88,501.3,174.5,540.2"/>
<path class="st3" d="M174.5,373.2c-61.9,83.5-61.9,139.2,0,167"/>
<path class="st3" d="M174.5,270.3c-33.9,45.8-33.9,76.3,0,91.5"/>
<path class="st3" d="M174.5,183.3c-66.1,89.2-66.1,148.7,0,178.5"/>
<path class="st3" d="M174.5,137.6c-83,112.1-83,186.8,0,224.2"/>
<path class="st3" d="M174.5,535.7c64.4-86.9,64.4-144.9,0-173.9"/>
<path class="st3" d="M174.5,274.8c-32.2,43.5-32.2,72.4,0,86.9"/>
<path class="st3" d="M174.5,384.7c8.5-11.4,8.5-19.1,0-22.9"/>
<path class="st3" d="M174.5,126.1c-87.3,117.8-87.3,196.4,0,235.6"/>
<path class="st3" d="M174.5,162.7c39-52.6,39-87.7,0-105.2"/>
<path class="st3" d="M174.5,270.3c78.8-106.4,78.8-177.3,0-212.8"/>
<path class="st3" d="M174.5,183.3c46.6-62.9,46.6-104.9,0-125.8"/>
<path class="st3" d="M174.5,137.6c29.7-40,29.7-66.7,0-80.1"/>
<path class="st3" d="M174.5,494.5c161.8-218.5,161.8-364.1,0-437"/>
<path class="st3" d="M174.5,82.7c9.3-12.6,9.3-21,0-25.2"/>
<path class="st3" d="M174.5,62.1c1.7-2.3,1.7-3.8,0-4.6"/>
<path class="st3" d="M174.5,384.7c121.2-163.6,121.2-272.6,0-327.2"/>
<path class="st3" d="M174.5,467c151.7-204.8,151.7-341.3,0-409.5"/>
<path class="st3" d="M174.5,572.3c190.7-257.4,190.7-429,0-514.8"/>
<path class="st3" d="M174.5,270.3c-111.8,151-111.8,251.7,0,302"/>
<path class="st3" d="M174.5,476.2c-35.6,48-35.6,80.1,0,96.1"/>
<path class="st3" d="M174.5,677.5c39-52.6,39-87.7,0-105.2"/>
<path class="st3" d="M174.5,153.6c-155.1,209.3-155.1,348.9,0,418.7"/>
<path class="st3" d="M174.5,137.6c-161,217.3-161,362.2,0,434.7"/>
<path class="st3" d="M174.5,677.5c39-52.6,39-87.7,0-105.2"/>
<path class="st3" d="M174.5,494.5c-28.8,38.9-28.8,64.8,0,77.8"/>
<path class="st3" d="M174.5,535.7c-13.6,18.3-13.6,30.5,0,36.6"/>
<path class="st3" d="M174.5,62.1c-189,255.1-189,425.2,0,510.2"/>
<path class="st3" d="M174.5,384.7c-69.5,93.8-69.5,156.3,0,187.6"/>
<path class="st3" d="M174.5,361.8c-78,105.2-78,175.4,0,210.5"/>
<path class="st3" d="M174.5,162.7c-36.4,49.2-36.4,82,0,98.4"/>
<path class="st3" d="M174.5,270.3c3.4-4.6,3.4-7.6,0-9.2"/>
<path class="st3" d="M174.5,476.2c79.7-107.5,79.7-179.2,0-215.1"/>
<path class="st3" d="M174.5,153.6c-39.8,53.8-39.8,89.6,0,107.5"/>
<path class="st3" d="M174.5,183.3c-28.8,38.9-28.8,64.8,0,77.8"/>
<path class="st3" d="M174.5,82.7c-66.1,89.2-66.1,148.7,0,178.5"/>
<path class="st3" d="M174.5,361.8c37.3-50.3,37.3-83.9,0-100.7"/>
<path class="st3" d="M174.5,57.5c-75.4,101.8-75.4,169.7,0,203.6"/>
<path class="st3" d="M174.5,572.3c115.2-155.6,115.2-259.3,0-311.1"/>
<path class="st3" d="M174.5,126.1c-50,67.5-50,112.5,0,135"/>
<path class="st3" d="M174.5,306.9c16.9-22.9,16.9-38.1,0-45.8"/>
<path class="st3" d="M174.5,373.2c41.5-56.1,41.5-93.4,0-112.1"/>
<path class="st3" d="M174.5,270.3c53.4-72.1,53.4-120.1,0-144.1"/>
<path class="st3" d="M174.5,137.6c4.2-5.7,4.2-9.5,0-11.4"/>
<path class="st3" d="M174.5,261.1c50-67.5,50-112.5,0-135"/>
<path class="st3" d="M174.5,494.5c136.4-184.2,136.4-306.9,0-368.3"/>
<path class="st3" d="M174.5,535.7c151.7-204.8,151.7-341.3,0-409.5"/>
<path class="st3" d="M174.5,82.7c-16.1,21.7-16.1,36.2,0,43.5"/>
<path class="st3" d="M174.5,274.8c55.1-74.4,55.1-123.9,0-148.7"/>
<path class="st3" d="M174.5,62.1c-23.7,32-23.7,53.4,0,64.1"/>
<path class="st3" d="M174.5,311.4c68.6-92.7,68.6-154.4,0-185.3"/>
<path class="st3" d="M174.5,361.8c87.3-117.8,87.3-196.4,0-235.6"/>
<path class="st3" d="M174.5,57.5c-25.4,34.3-25.4,57.2,0,68.6"/>
<path class="st3" d="M174.5,219.9c34.7-46.9,34.7-78.2,0-93.8"/>
<path class="st3" d="M174.5,144.4c-60.2,81.2-60.2,135.4,0,162.4"/>
<path class="st3" d="M174.5,270.3c-13.6,18.3-13.6,30.5,0,36.6"/>
<path class="st3" d="M174.5,153.6c-56.8,76.6-56.8,127.7,0,153.3"/>
<path class="st3" d="M174.5,270.3c-13.6,18.3-13.6,30.5,0,36.6"/>
<path class="st3" d="M174.5,494.5c69.5-93.8,69.5-156.3,0-187.6"/>
<path class="st3" d="M174.5,82.7c-83,112.1-83,186.8,0,224.2"/>
<path class="st3" d="M174.5,467c59.3-80.1,59.3-133.5,0-160.1"/>
<path class="st3" d="M174.5,183.3c-70.3,94.9-70.3,158.2,0,189.9"/>
<path class="st3" d="M174.5,677.5c112.7-152.1,112.7-253.6,0-304.3"/>
<path class="st3" d="M174.5,261.1c-41.5,56.1-41.5,93.4,0,112.1"/>
<path class="st3" d="M174.5,82.7c-107.6,145.3-107.6,242.1,0,290.6"/>
<path class="st3" d="M174.5,384.7c4.2-5.7,4.2-9.5,0-11.4"/>
<path class="st3" d="M174.5,677.5c169.5-228.8,169.5-381.3,0-457.6"/>
<path class="st3" d="M174.5,494.5c101.7-137.3,101.7-228.8,0-274.5"/>
<path class="st3" d="M174.5,192.5c-10.2,13.7-10.2,22.9,0,27.5"/>
<path class="st3" d="M174.5,62.1c-58.5,78.9-58.5,131.5,0,157.9"/>
<path class="st3" d="M174.5,384.7c61-82.4,61-137.3,0-164.7"/>
<path class="st3" d="M174.5,467c91.5-123.5,91.5-205.9,0-247.1"/>
<path class="st3" d="M174.5,572.3c130.5-176.2,130.5-293.6,0-352.3"/>
<path class="st4" d="M174.5,270.3c39.8-53.8,39.8-89.6,0-107.5"/>
<path class="st5" d="M174.5,137.6c-9.3,12.6-9.3,21,0,25.2"/>
<path class="st6" d="M174.5,494.5c122.9-165.9,122.9-276.4,0-331.7"/>
<path class="st7" d="M174.5,467c112.7-152.1,112.7-253.6,0-304.3"/>
<path class="st8" d="M174.5,540.2c139.8-188.7,139.8-314.6,0-377.5"/>
<path class="st9" d="M174.5,57.5c-39,52.6-39,87.7,0,105.2"/>
<path class="st10" d="M174.5,572.3c151.7-204.8,151.7-341.3,0-409.5"/>
<path class="st11" d="M174.5,270.3c46.6-62.9,46.6-104.9,0-125.8"/>
<path class="st7" d="M174.5,476.2c122.9-165.9,122.9-276.4,0-331.7"/>
<path class="st8" d="M174.5,677.5c197.4-266.5,197.4-444.2,0-533.1"/>
<path class="st12" d="M174.5,494.5c129.6-175,129.6-291.7,0-350"/>
<path class="st7" d="M174.5,192.5c17.8-24,17.8-40,0-48"/>
<path class="st7" d="M174.5,82.7c-22.9,30.9-22.9,51.5,0,61.8"/>
<path class="st8" d="M174.5,62.1c-30.5,41.2-30.5,68.6,0,82.4"/>
<path class="st7" d="M174.5,540.2c146.6-197.9,146.6-329.8,0-395.8"/>
<path class="st8" d="M174.5,361.8c80.5-108.7,80.5-181.1,0-217.3"/>
<path class="st8" d="M174.5,126.1c-6.8,9.2-6.8,15.3,0,18.3"/>
<path class="st8" d="M174.5,306.9c60.2-81.2,60.2-135.4,0-162.4"/>
<path class="st13" d="M174.5,162.7c-39.8,53.8-39.8,89.6,0,107.5"/>
<path class="st14" d="M174.5,270.3C174.5,270.3,174.5,270.3,174.5,270.3"/>
<path class="st14" d="M174.5,677.5c150.8-203.6,150.8-339.4,0-407.2"/>
<path class="st14" d="M174.5,384.7c42.4-57.2,42.4-95.3,0-114.4"/>
<path class="st8" d="M174.5,361.8c33.9-45.8,33.9-76.3,0-91.5"/>
<path class="st15" d="M174.5,57.5c-78.8,106.4-78.8,177.3,0,212.8"/>
<path class="st14" d="M174.5,261.1c-3.4,4.6-3.4,7.6,0,9.2"/>
<path class="st14" d="M174.5,126.1c-53.4,72.1-53.4,120.1,0,144.1"/>
<path class="st14" d="M174.5,373.2c38.1-51.5,38.1-85.8,0-103"/>
<path class="st14" d="M174.5,219.9c-18.6,25.2-18.6,41.9,0,50.3"/>
<path class="st16" d="M174.5,137.6c-72.9,98.4-72.9,164,0,196.8"/>
<path class="st7" d="M174.5,677.5c127.1-171.6,127.1-286,0-343.2"/>
<path class="st7" d="M174.5,535.7c74.6-100.7,74.6-167.8,0-201.3"/>
<path class="st16" d="M174.5,361.8c10.2-13.7,10.2-22.9,0-27.5"/>
<path class="st7" d="M174.5,144.4c-122.9,165.9-122.9,276.4,0,331.7"/>
<path class="st7" d="M174.5,270.3c-76.3,103-76.3,171.6,0,205.9"/>
<path class="st17" d="M174.5,137.6c-125.4,169.3-125.4,282.2,0,338.6"/>
<path class="st18" d="M174.5,535.7c22-29.7,22-49.6,0-59.5"/>
<path class="st19" d="M174.5,192.5c-105.1,141.8-105.1,236.4,0,283.7"/>
<path class="st20" d="M174.5,82.7c-145.7,196.8-145.7,327.9,0,393.5"/>
<path class="st19" d="M174.5,274.8c-74.6,100.7-74.6,167.8,0,201.3"/>
<path class="st21" d="M174.5,467c-3.4,4.6-3.4,7.6,0,9.2"/>
<path class="st19" d="M174.5,57.5c-155.1,209.3-155.1,348.9,0,418.7"/>
<path class="st19" d="M174.5,261.1c-79.7,107.5-79.7,179.2,0,215.1"/>
<path class="st7" d="M174.5,270.3c-150.8,203.6-150.8,339.4,0,407.2"/>
<path class="st22" d="M174.5,153.6c-194,262-194,436.6,0,523.9"/>
<path class="st23" d="M174.5,137.6c-200,270-200,449.9,0,539.9"/>
<path class="st24" d="M174.5,677.5L174.5,677.5"/>
<path class="st25" d="M174.5,494.5c-67.8,91.5-67.8,152.5,0,183"/>
<path class="st26" d="M174.5,535.7c-52.5,70.9-52.5,118.2,0,141.8"/>
<path class="st27" d="M174.5,82.7c-220.3,297.4-220.3,495.7,0,594.8"/>
<path class="st22" d="M174.5,311.4c-135.6,183-135.6,305,0,366.1"/>
<path class="st28" d="M174.5,572.3c-39,52.6-39,87.7,0,105.2"/>
<path class="st22" d="M174.5,261.1c-154.2,208.2-154.2,347,0,416.4"/>
<path class="st8" d="M174.5,261.1c39.8-53.8,39.8-89.6,0-107.5"/>
<path class="st29" d="M174.5,494.5c126.3-170.4,126.3-284.1,0-340.9"/>
<path class="st8" d="M174.5,384.7c85.6-115.5,85.6-192.6,0-231.1"/>
<path class="st7" d="M174.5,572.3c155.1-209.3,155.1-348.9,0-418.7"/>
<path class="st7" d="M174.5,144.4c-14.4,19.4-14.4,32.4,0,38.9"/>
<path class="st8" d="M174.5,476.2c108.5-146.4,108.5-244,0-292.8"/>
<path class="st30" d="M174.5,137.6c-16.9,22.9-16.9,38.1,0,45.8"/>
<path class="st25" d="M174.5,494.5c115.2-155.6,115.2-259.3,0-311.1"/>
<path class="st31" d="M174.5,535.7c130.5-176.2,130.5-293.6,0-352.3"/>
<path class="st32" d="M174.5,384.7c74.6-100.7,74.6-167.8,0-201.3"/>
<path class="st33" d="M174.5,572.3c144-194.5,144-324.1,0-388.9"/>
<path class="st34" d="M174.5,306.9c45.8-61.8,45.8-103,0-123.5"/>
<path class="st8" d="M174.5,162.7c-39.8,53.8-39.8,89.6,0,107.5"/>
<path class="st7" d="M174.5,270.3C174.5,270.3,174.5,270.3,174.5,270.3"/>
<path class="st7" d="M174.5,137.6c-49.1,66.3-49.1,110.6,0,132.7"/>
<path class="st35" d="M174.5,62.1c-77.1,104.1-77.1,173.5,0,208.2"/>
<path class="st8" d="M174.5,572.3c111.8-151,111.8-251.7,0-302"/>
<path class="st36" d="M174.5,334.3c72.9-98.4,72.9-164,0-196.8"/>
<path class="st37" d="M174.5,677.5c200-270,200-449.9,0-539.9"/>
<path class="st38" d="M174.5,494.5c132.2-178.5,132.2-297.4,0-356.9"/>
<path class="st39" d="M174.5,535.7c147.4-199,147.4-331.7,0-398.1"/>
<path class="st40" d="M174.5,384.7c91.5-123.5,91.5-205.9,0-247.1"/>
<path class="st36" d="M174.5,540.2c149.1-201.3,149.1-335.5,0-402.7"/>
<path class="st36" d="M174.5,373.2c87.3-117.8,87.3-196.4,0-235.6"/>
<path class="st7" d="M174.5,183.3c-183,247.1-183,411.8,0,494.2"/>
<path class="st16" d="M174.5,137.6c-200,270-200,449.9,0,539.9"/>
<path class="st41" d="M174.5,494.5c-67.8,91.5-67.8,152.5,0,183"/>
<path class="st42" d="M174.5,535.7c-52.5,70.9-52.5,118.2,0,141.8"/>
<path class="st43" d="M174.5,384.7C66,531.1,66,628.7,174.5,677.5"/>
<path class="st7" d="M174.5,361.8c-116.9,157.9-116.9,263.1,0,315.7"/>
<path class="st32" d="M174.5,57.5c-229.6,310-229.6,516.7,0,620"/>
<path class="st7" d="M174.5,261.1c-154.2,208.2-154.2,347,0,416.4"/>
<path class="st32" d="M174.5,126.1c-204.2,275.7-204.2,459.5,0,551.4"/>
<path class="st44" d="M174.5,334.3c27.1-36.6,27.1-61,0-73.2"/>
<path class="st44" d="M174.5,153.6c-39.8,53.8-39.8,89.6,0,107.5"/>
<path class="st45" d="M174.5,183.3c-28.8,38.9-28.8,64.8,0,77.8"/>
<path class="st7" d="M174.5,270.3c3.4-4.6,3.4-7.6,0-9.2"/>
<path class="st46" d="M174.5,137.6c-45.8,61.8-45.8,103,0,123.5"/>
<path class="st47" d="M174.5,494.5c86.4-116.7,86.4-194.5,0-233.4"/>
<path class="st48" d="M174.5,535.7c101.7-137.3,101.7-228.8,0-274.5"/>
<path class="st49" d="M174.5,62.1c-73.7,99.5-73.7,165.9,0,199"/>
<path class="st17" d="M174.5,384.7c45.8-61.8,45.8-103,0-123.5"/>
<path class="st44" d="M174.5,467c76.3-103,76.3-171.6,0-205.9"/>
<path class="st50" d="M174.5,572.3c115.2-155.6,115.2-259.3,0-311.1"/>
<path class="st51" d="M174.5,306.9c16.9-22.9,16.9-38.1,0-45.8"/>
<path class="st52" d="M174.5,476.2c-6.8,9.2-6.8,15.3,0,18.3"/>
<path class="st53" d="M174.5,677.5c67.8-91.5,67.8-152.5,0-183"/>
<path class="st15" d="M174.5,137.6C42.3,316,42.3,435,174.5,494.5"/>
<path class="st54" d="M174.5,261.1C88,377.8,88,455.6,174.5,494.5"/>
<path class="st31" d="M174.5,535.7c15.3-20.6,15.3-34.3,0-41.2"/>
<path class="st17" d="M174.5,274.8c-81.3,109.8-81.3,183,0,219.6"/>
<path class="st55" d="M174.5,384.7c-40.7,54.9-40.7,91.5,0,109.8"/>
<path class="st56" d="M174.5,467c-10.2,13.7-10.2,22.9,0,27.5"/>
<path class="st57" d="M174.5,57.5c-161.8,218.5-161.8,364.1,0,437"/>
<path class="st58" d="M174.5,572.3c28.8-38.9,28.8-64.8,0-77.8"/>
<path class="st59" d="M174.5,261.1C88,377.8,88,455.6,174.5,494.5"/>
<path class="st60" d="M174.5,126.1c-136.4,184.2-136.4,306.9,0,368.3"/>
<path class="st61" d="M174.5,219.9c-101.7,137.3-101.7,228.8,0,274.5"/>
<path class="st62" d="M174.5,334.3c-74.6,100.7-74.6,167.8,0,201.3"/>
<path class="st63" d="M174.5,476.2c-22,29.7-22,49.6,0,59.5"/>
<path class="st64" d="M174.5,677.5c52.5-70.9,52.5-118.2,0-141.8"/>
<path class="st65" d="M174.5,137.6C27,336.6,27,469.3,174.5,535.7"/>
<path class="st24" d="M174.5,677.5c52.5-70.9,52.5-118.2,0-141.8"/>
<path class="st66" d="M174.5,261.1c-101.7,137.3-101.7,228.8,0,274.5"/>
<path class="st47" d="M174.5,494.5c-15.3,20.6-15.3,34.3,0,41.2"/>
<path class="st67" d="M174.5,192.5c-127.1,171.6-127.1,286,0,343.2"/>
<path class="st62" d="M174.5,311.4c-83,112.1-83,186.8,0,224.2"/>
<path class="st68" d="M174.5,467c-25.4,34.3-25.4,57.2,0,68.6"/>
<path class="st65" d="M174.5,572.3c13.6-18.3,13.6-30.5,0-36.6"/>
<path class="st69" d="M174.5,306.9c-84.7,114.4-84.7,190.7,0,228.8"/>
<path class="st7" d="M174.5,144.4c-17.8,24-17.8,40,0,48"/>
<path class="st50" d="M174.5,137.6c-20.3,27.5-20.3,45.8,0,54.9"/>
<path class="st70" d="M174.5,535.7c127.1-171.6,127.1-286,0-343.2"/>
<path class="st7" d="M174.5,82.7c-40.7,54.9-40.7,91.5,0,109.8"/>
<path class="st8" d="M174.5,467c101.7-137.3,101.7-228.8,0-274.5"/>
<path class="st71" d="M174.5,126.1c-24.6,33.2-24.6,55.3,0,66.3"/>
<path class="st72" d="M174.5,306.9c42.4-57.2,42.4-95.3,0-114.4"/>
<path class="st73" d="M174.5,373.2c66.9-90.4,66.9-150.6,0-180.7"/>
<path class="st74" d="M174.5,162.7c29.7-40,29.7-66.7,0-80.1"/>
<path class="st7" d="M174.5,144.4c22.9-30.9,22.9-51.5,0-61.8"/>
<path class="st7" d="M174.5,476.2c145.7-196.8,145.7-327.9,0-393.5"/>
<path class="st8" d="M174.5,677.5c220.3-297.4,220.3-495.7,0-594.8"/>
<path class="st7" d="M174.5,183.3c37.3-50.3,37.3-83.9,0-100.7"/>
<path class="st8" d="M174.5,261.1c66.1-89.2,66.1-148.7,0-178.5"/>
<path class="st75" d="M174.5,494.5C327,288.6,327,151.3,174.5,82.7"/>
<path class="st7" d="M174.5,274.8c71.2-96.1,71.2-160.1,0-192.2"/>
<path class="st8" d="M174.5,62.1c-7.6,10.3-7.6,17.2,0,20.6"/>
<path class="st76" d="M174.5,361.8c103.4-139.6,103.4-232.6,0-279.1"/>
<path class="st8" d="M174.5,373.2c107.6-145.3,107.6-242.1,0-290.6"/>
<path class="st8" d="M174.5,219.9c50.8-68.6,50.8-114.4,0-137.3"/>
<path class="st34" d="M174.5,162.7c-41.5,56.1-41.5,93.4,0,112.1"/>
<path class="st77" d="M174.5,183.3c-33.9,45.8-33.9,76.3,0,91.5"/>
<path class="st78" d="M174.5,261.1c-5.1,6.9-5.1,11.4,0,13.7"/>
<path class="st64" d="M174.5,494.5c81.3-109.8,81.3-183,0-219.6"/>
<path class="st79" d="M174.5,535.7c96.6-130.4,96.6-217.3,0-260.8"/>
<path class="st48" d="M174.5,57.5C94,166.2,94,238.6,174.5,274.8"/>
<path class="st80" d="M174.5,572.3c110.2-148.7,110.2-247.8,0-297.4"/>
<path class="st48" d="M174.5,261.1c-5.1,6.9-5.1,11.4,0,13.7"/>
<path class="st81" d="M174.5,126.1c-55.1,74.4-55.1,123.9,0,148.7"/>
<path class="st7" d="M174.5,270.3c77.1-104.1,77.1-173.5,0-208.2"/>
<path class="st7" d="M174.5,677.5c227.9-307.7,227.9-512.9,0-615.4"/>
<path class="st12" d="M174.5,270.3c77.1-104.1,77.1-173.5,0-208.2"/>
<path class="st7" d="M174.5,677.5c227.9-307.7,227.9-512.9,0-615.4"/>
<path class="st46" d="M174.5,192.5c48.3-65.2,48.3-108.7,0-130.4"/>
<path class="st82" d="M174.5,311.4c92.4-124.7,92.4-207.8,0-249.4"/>
<path class="st7" d="M174.5,467c150-202.5,150-337.5,0-404.9"/>
<path class="st8" d="M174.5,540.2c177.1-239.1,177.1-398.5,0-478.2"/>
<path class="st83" d="M174.5,373.2c115.2-155.6,115.2-259.3,0-311.1"/>
<path class="st7" d="M174.5,270.3c-42.4,57.2-42.4,95.3,0,114.4"/>
<path class="st84" d="M174.5,153.6c-85.6,115.5-85.6,192.6,0,231.1"/>
<path class="st40" d="M174.5,137.6C83,261.1,83,343.5,174.5,384.7"/>
<path class="st85" d="M174.5,494.5c40.7-54.9,40.7-91.5,0-109.8"/>
<path class="st86" d="M174.5,535.7c55.9-75.5,55.9-125.8,0-151"/>
<path class="st84" d="M174.5,311.4c-27.1,36.6-27.1,61,0,73.2"/>
<path class="st87" d="M174.5,361.8c-8.5,11.4-8.5,19.1,0,22.9"/>
<path class="st78" d="M174.5,572.3c69.5-93.8,69.5-156.3,0-187.6"/>
<path class="st88" d="M174.5,261.1c-45.8,61.8-45.8,103,0,123.5"/>
<path class="st45" d="M174.5,306.9c-28.8,38.9-28.8,64.8,0,77.8"/>
<path class="st84" d="M174.5,373.2c-4.2,5.7-4.2,9.5,0,11.4"/>
<path class="st89" d="M174.5,219.9c-61,82.4-61,137.3,0,164.7"/>
<path class="st7" d="M174.5,144.4c-61.9,83.5-61.9,139.2,0,167"/>
<path class="st90" d="M174.5,677.5c135.6-183,135.6-305,0-366.1"/>
<path class="st7" d="M174.5,183.3c-47.5,64.1-47.5,106.8,0,128.1"/>
<path class="st7" d="M174.5,270.3c-15.3,20.6-15.3,34.3,0,41.2"/>
<path class="st7" d="M174.5,137.6c-64.4,86.9-64.4,144.9,0,173.9"/>
<path class="st90" d="M174.5,677.5c135.6-183,135.6-305,0-366.1"/>
<path class="st90" d="M174.5,535.7c83-112.1,83-186.8,0-224.2"/>
<path class="st90" d="M174.5,57.5c-94.1,127-94.1,211.6,0,253.9"/>
<path class="st7" d="M174.5,572.3c96.6-130.4,96.6-217.3,0-260.8"/>
<path class="st91" d="M174.5,476.2c3.4-4.6,3.4-7.6,0-9.2"/>
<path class="st37" d="M174.5,137.6c-122,164.7-122,274.5,0,329.4"/>
<path class="st7" d="M174.5,274.8c-71.2,96.1-71.2,160.1,0,192.2"/>
<path class="st92" d="M174.5,62.1c-150,202.5-150,337.5,0,404.9"/>
<path class="st92" d="M174.5,384.7c-30.5,41.2-30.5,68.6,0,82.4"/>
<path class="st93" d="M174.5,572.3c39-52.6,39-87.7,0-105.2"/>
<path class="st92" d="M174.5,261.1c-76.3,103-76.3,171.6,0,205.9"/>
<path class="st8" d="M174.5,535.7c-1.7,2.3-1.7,3.8,0,4.6"/>
<path class="st94" d="M174.5,274.8c-98.3,132.7-98.3,221.2,0,265.4"/>
<path class="st7" d="M174.5,62.1c-177.1,239.1-177.1,398.5,0,478.2"/>
<path class="st8" d="M174.5,384.7c-57.6,77.8-57.6,129.6,0,155.6"/>
<path class="st8" d="M174.5,261.1c-103.4,139.6-103.4,232.6,0,279.1"/>
<path class="st7" d="M174.5,306.9C88,423.6,88,501.3,174.5,540.2"/>
<path class="st7" d="M174.5,373.2c-61.9,83.5-61.9,139.2,0,167"/>
<path class="st7" d="M174.5,270.3c-33.9,45.8-33.9,76.3,0,91.5"/>
<path class="st95" d="M174.5,183.3c-66.1,89.2-66.1,148.7,0,178.5"/>
<path class="st96" d="M174.5,137.6c-83,112.1-83,186.8,0,224.2"/>
<path class="st97" d="M174.5,535.7c64.4-86.9,64.4-144.9,0-173.9"/>
<path class="st8" d="M174.5,274.8c-32.2,43.5-32.2,72.4,0,86.9"/>
<path class="st98" d="M174.5,384.7c8.5-11.4,8.5-19.1,0-22.9"/>
<path class="st99" d="M174.5,126.1c-87.3,117.8-87.3,196.4,0,235.6"/>
<path class="st100" d="M174.5,162.7c39-52.6,39-87.7,0-105.2"/>
<path class="st101" d="M174.5,270.3c78.8-106.4,78.8-177.3,0-212.8"/>
<path class="st102" d="M174.5,183.3c46.6-62.9,46.6-104.9,0-125.8"/>
<path class="st57" d="M174.5,137.6c29.7-40,29.7-66.7,0-80.1"/>
<path class="st103" d="M174.5,494.5c161.8-218.5,161.8-364.1,0-437"/>
<path class="st32" d="M174.5,82.7c9.3-12.6,9.3-21,0-25.2"/>
<path class="st41" d="M174.5,62.1c1.7-2.3,1.7-3.8,0-4.6"/>
<path class="st54" d="M174.5,384.7c121.2-163.6,121.2-272.6,0-327.2"/>
<path class="st32" d="M174.5,467c151.7-204.8,151.7-341.3,0-409.5"/>
<path class="st97" d="M174.5,572.3c190.7-257.4,190.7-429,0-514.8"/>
<path class="st59" d="M174.5,270.3c-111.8,151-111.8,251.7,0,302"/>
<path class="st104" d="M174.5,476.2c-35.6,48-35.6,80.1,0,96.1"/>
<path class="st105" d="M174.5,677.5c39-52.6,39-87.7,0-105.2"/>
<path class="st59" d="M174.5,153.6c-155.1,209.3-155.1,348.9,0,418.7"/>
<path class="st106" d="M174.5,137.6c-161,217.3-161,362.2,0,434.7"/>
<path class="st107" d="M174.5,677.5c39-52.6,39-87.7,0-105.2"/>
<path class="st108" d="M174.5,494.5c-28.8,38.9-28.8,64.8,0,77.8"/>
<path class="st65" d="M174.5,535.7c-13.6,18.3-13.6,30.5,0,36.6"/>
<path class="st7" d="M174.5,62.1c-189,255.1-189,425.2,0,510.2"/>
<path class="st39" d="M174.5,384.7c-69.5,93.8-69.5,156.3,0,187.6"/>
<path class="st103" d="M174.5,361.8c-78,105.2-78,175.4,0,210.5"/>
<path class="st109" d="M174.5,162.7c-36.4,49.2-36.4,82,0,98.4"/>
<path class="st7" d="M174.5,270.3c3.4-4.6,3.4-7.6,0-9.2"/>
<path class="st110" d="M174.5,476.2c79.7-107.5,79.7-179.2,0-215.1"/>
<path class="st110" d="M174.5,153.6c-39.8,53.8-39.8,89.6,0,107.5"/>
<path class="st87" d="M174.5,183.3c-28.8,38.9-28.8,64.8,0,77.8"/>
<path class="st110" d="M174.5,82.7c-66.1,89.2-66.1,148.7,0,178.5"/>
<path class="st7" d="M174.5,361.8c37.3-50.3,37.3-83.9,0-100.7"/>
<path class="st23" d="M174.5,57.5c-75.4,101.8-75.4,169.7,0,203.6"/>
<path class="st110" d="M174.5,572.3c115.2-155.6,115.2-259.3,0-311.1"/>
<path class="st111" d="M174.5,126.1c-50,67.5-50,112.5,0,135"/>
<path class="st99" d="M174.5,306.9c16.9-22.9,16.9-38.1,0-45.8"/>
<path class="st7" d="M174.5,373.2c41.5-56.1,41.5-93.4,0-112.1"/>
<path class="st7" d="M174.5,270.3c53.4-72.1,53.4-120.1,0-144.1"/>
<path class="st112" d="M174.5,137.6c4.2-5.7,4.2-9.5,0-11.4"/>
<path class="st93" d="M174.5,261.1c50-67.5,50-112.5,0-135"/>
<path class="st113" d="M174.5,494.5c136.4-184.2,136.4-306.9,0-368.3"/>
<path class="st114" d="M174.5,535.7c151.7-204.8,151.7-341.3,0-409.5"/>
<path class="st115" d="M174.5,82.7c-16.1,21.7-16.1,36.2,0,43.5"/>
<path class="st83" d="M174.5,274.8c55.1-74.4,55.1-123.9,0-148.7"/>
<path class="st116" d="M174.5,62.1c-23.7,32-23.7,53.4,0,64.1"/>
<path class="st8" d="M174.5,311.4c68.6-92.7,68.6-154.4,0-185.3"/>
<path class="st117" d="M174.5,361.8c87.3-117.8,87.3-196.4,0-235.6"/>
<path class="st53" d="M174.5,57.5c-25.4,34.3-25.4,57.2,0,68.6"/>
<path class="st118" d="M174.5,219.9c34.7-46.9,34.7-78.2,0-93.8"/>
<path class="st7" d="M174.5,144.4c-60.2,81.2-60.2,135.4,0,162.4"/>
<path class="st7" d="M174.5,270.3c-13.6,18.3-13.6,30.5,0,36.6"/>
<path class="st7" d="M174.5,153.6c-56.8,76.6-56.8,127.7,0,153.3"/>
<path class="st8" d="M174.5,270.3c-13.6,18.3-13.6,30.5,0,36.6"/>
<path class="st113" d="M174.5,494.5c69.5-93.8,69.5-156.3,0-187.6"/>
<path class="st7" d="M174.5,82.7c-83,112.1-83,186.8,0,224.2"/>
<path class="st7" d="M174.5,467c59.3-80.1,59.3-133.5,0-160.1"/>
<path class="st73" d="M174.5,183.3c-70.3,94.9-70.3,158.2,0,189.9"/>
<path class="st7" d="M174.5,677.5c112.7-152.1,112.7-253.6,0-304.3"/>
<path class="st119" d="M174.5,261.1c-41.5,56.1-41.5,93.4,0,112.1"/>
<path class="st8" d="M174.5,82.7c-107.6,145.3-107.6,242.1,0,290.6"/>
<path class="st7" d="M174.5,384.7c4.2-5.7,4.2-9.5,0-11.4"/>
<path class="st120" d="M174.5,677.5c169.5-228.8,169.5-381.3,0-457.6"/>
<path class="st29" d="M174.5,494.5c101.7-137.3,101.7-228.8,0-274.5"/>
<path class="st7" d="M174.5,192.5c-10.2,13.7-10.2,22.9,0,27.5"/>
<path class="st56" d="M174.5,62.1c-58.5,78.9-58.5,131.5,0,157.9"/>
<path class="st42" d="M174.5,384.7c61-82.4,61-137.3,0-164.7"/>
<path class="st56" d="M174.5,467c91.5-123.5,91.5-205.9,0-247.1"/>
<path class="st97" d="M174.5,572.3c130.5-176.2,130.5-293.6,0-352.3"/>
<circle class="st121" cx="174.5" cy="162.7" r="3.5"/>
<circle class="st121" cx="174.5" cy="144.4" r="3.5"/>
<circle class="st121" cx="174.5" cy="270.3" r="3.5"/>
<circle class="st121" cx="174.5" cy="334.3" r="3.5"/>
<circle class="st121" cx="174.5" cy="476.2" r="3.5"/>
<circle class="st121" cx="174.5" cy="677.5" r="3.5"/>
<circle class="st121" cx="174.5" cy="153.6" r="3.5"/>
<circle class="st121" cx="174.5" cy="183.3" r="3.5"/>
<circle class="st121" cx="174.5" cy="270.3" r="3.5"/>
<circle class="st121" cx="174.5" cy="137.6" r="3.5"/>
<circle class="st121" cx="174.5" cy="677.5" r="3.5"/>
<circle class="st121" cx="174.5" cy="261.1" r="3.5"/>
<circle class="st121" cx="174.5" cy="494.5" r="3.5"/>
<circle class="st121" cx="174.5" cy="535.7" r="3.5"/>
<circle class="st121" cx="174.5" cy="192.5" r="3.5"/>
<circle class="st121" cx="174.5" cy="82.7" r="3.5"/>
<circle class="st121" cx="174.5" cy="274.8" r="3.5"/>
<circle class="st121" cx="174.5" cy="62.1" r="3.5"/>
<circle class="st121" cx="174.5" cy="384.7" r="3.5"/>
<circle class="st121" cx="174.5" cy="311.4" r="3.5"/>
<circle class="st121" cx="174.5" cy="467" r="3.5"/>
<circle class="st121" cx="174.5" cy="540.2" r="3.5"/>
<circle class="st121" cx="174.5" cy="361.8" r="3.5"/>
<circle class="st121" cx="174.5" cy="57.5" r="3.5"/>
<circle class="st121" cx="174.5" cy="572.3" r="3.5"/>
<circle class="st121" cx="174.5" cy="261.1" r="3.5"/>
<circle class="st121" cx="174.5" cy="126.1" r="3.5"/>
<circle class="st121" cx="174.5" cy="306.9" r="3.5"/>
<circle class="st121" cx="174.5" cy="373.2" r="3.5"/>
<circle class="st121" cx="174.5" cy="219.9" r="3.5"/>
</svg>
